SplineFontDB: 3.0
FontName: Exo-Light
FullName: Exo Light
FamilyName: Exo
Weight: Light
Copyright: Copyright (c) 2011 Natanael Gama (exo@ndiscovered.com), with Reserved Font Name "Exo"
Version: 1.00
ItalicAngle: 0
UnderlinePosition: -50
UnderlineWidth: 50
Ascent: 800
Descent: 200
sfntRevision: 0x00010000
LayerCount: 2
Layer: 0 0 "Back"  1
Layer: 1 0 "Fore"  0
XUID: [1021 762 1116966003 8983286]
FSType: 8
OS2Version: 0
OS2_WeightWidthSlopeOnly: 0
OS2_UseTypoMetrics: 1
CreationTime: 1317846202
ModificationTime: 1325018876
PfmFamily: 33
TTFWeight: 300
TTFWidth: 5
LineGap: 90
VLineGap: 0
OS2TypoAscent: 0
OS2TypoAOffset: 1
OS2TypoDescent: 0
OS2TypoDOffset: 1
OS2TypoLinegap: 90
OS2WinAscent: 0
OS2WinAOffset: 1
OS2WinDescent: 0
OS2WinDOffset: 1
HheadAscent: 0
HheadAOffset: 1
HheadDescent: 0
HheadDOffset: 1
OS2Vendor: 'PfEd'
Lookup: 4 0 0 "'ordn' Ordinals lookup 21"  {"'ordn' Ordinals lookup 21-1"  } ['ordn' ('DFLT' <'dflt' > 'grek' <'dflt' > 'latn' <'dflt' > ) ]
Lookup: 1 0 0 "'smcp' Lowercase to Small Capitals lookup 16"  {"'smcp' Lowercase to Small Capitals lookup 16-1" ("smcp" ) } ['smcp' ('DFLT' <'dflt' > 'grek' <'dflt' > 'latn' <'FRA ' 'dflt' > ) ]
Lookup: 1 0 0 "'c2sc' Capitals to Small Capitals in Latin lookup 17"  {"'c2sc' Capitals to Small Capitals in Latin lookup 17 subtable" ("smcp" ) } ['c2sc' ('latn' <'dflt' > ) ]
Lookup: 4 0 0 "'dlig' Discretionary Ligatures lookup 14"  {"'dlig' Discretionary Ligatures lookup 14-1"  } ['dlig' ('DFLT' <'dflt' > 'grek' <'dflt' > 'latn' <'dflt' > ) ]
Lookup: 4 0 1 "'liga' Standard Ligatures lookup 15"  {"'liga' Standard Ligatures lookup 15-1"  } ['liga' ('DFLT' <'dflt' > 'grek' <'dflt' > 'latn' <'FRA ' 'dflt' > ) ]
Lookup: 1 0 0 "'frac' Diagonal Fractions lookup 13"  {"'frac' Diagonal Fractions lookup 13-1"  } ['frac' ('DFLT' <'dflt' > 'grek' <'dflt' > 'latn' <'FRA ' 'dflt' > ) ]

StartChar: a
Encoding: 97 97 0
Width: 519
VWidth: 0
Flags: HW
LayerCount: 2
Fore
SplineSet
44.76 126 m 10
 44.76 187 l 2
 44.76 268.7 95.1 320 177.76 320 c 2
 177.76 320 406.56 319 406.56 320 c 0
 406.56 320 407.56 386 406.56 387 c 2
 406.56 450.72 375.58 485.66 308.24 486 c 0
 236.24 486.34 156.72 479.64 61.76 470.26 c 9
 61.76 510.66 l 17
 128 528.62 211.22 540 310.56 541 c 1
 393.56 542 463.56 497 463.56 387 c 2
 463.56 0 l 9
 422.16 0 l 25
 406.56 64 l 17
 404.56 64 271.14 -6 177.76 -6 c 27
 104.76 -6 44.76 41 44.76 126 c 10
101.76 131 m 2
 101.76 70.42 138.66 51.34 177.76 51 c 0
 257.76 50.32 406.56 105.06 406.56 105.06 c 9
 406.56 276.96 l 17
 177.76 263 l 1
 121.84 259.34 101.76 224.9 101.76 183.04 c 2
 101.76 131 l 2
EndSplineSet
AlternateSubs2: "'salt' Access All Alternates in Latin lookup 4-1" a.salt
Substitution2: "'smcp' Lowercase to Small Capitals lookup 16-1" a.smcp
EndChar

StartChar: z
Encoding: 122 122 1
Width: 462
VWidth: 0
Flags: HW
LayerCount: 2
Fore
SplineSet
33.4 474 m 17
 33.4 531 l 25
 429.4 531 l 25
 429.4 474 l 25
 122.96 58 l 17
 429.4 58 l 17
 430.4 57 429.4 1 429.4 1 c 25
 48.74 1 l 25
 48.74 58 l 25
 357.8 474 l 17
 33.4 474 l 17
EndSplineSet
Substitution2: "'smcp' Lowercase to Small Capitals lookup 16-1" z.smcp
EndChar

StartChar: e
Encoding: 101 101 2
Width: 525
VWidth: 0
Flags: W
HStem: -5 57<155.154 446.022> 233.5 56<113.12 410.632> 478 57<159.491 392.595>
VStem: 56.12 57<97.5093 233.5 289.5 427.207> 423.58 57<301.563 446.921>
LayerCount: 2
Fore
SplineSet
56.12 268 m 0
 56.12 503.98 119.36 535 277.92 535 c 3
 401.56 535 480.58 523 480.58 347 c 0
 480.58 269.32 436.52 233.5 343.92 233.5 c 2
 113.12 233.5 l 1
 113.12 82.32 149.72 52 230.78 52 c 3
 322.78 52 395.58 54.4 470.58 65.4 c 1
 470.58 23 l 17
 389.58 0 313.78 -5.34 230.78 -5 c 0
 95.44 -4.32 56.12 64.08 56.12 268 c 0
113.12 289.5 m 1
 343.92 289.5 l 2
 392 289.5 423.58 301.42 423.58 347 c 0
 423.58 467.3 389.98 478 278.58 478 c 3
 156.74 478 113.12 467.14 113.12 289.5 c 1
EndSplineSet
Substitution2: "'smcp' Lowercase to Small Capitals lookup 16-1" e.smcp
EndChar

StartChar: o
Encoding: 111 111 3
Width: 569
VWidth: 0
Flags: W
HStem: -5 57<172.851 395.312> 479 57<171.298 396.435>
VStem: 56.12 57<118.266 410.956> 456.92 57<120.889 411.8>
LayerCount: 2
Fore
SplineSet
56.12 258 m 3
 56.12 475 115.78 536 284.68 536 c 3
 461.64 536 513.92 460.84 513.92 258 c 3
 513.92 62.02 459.94 -5 284.68 -5 c 3
 106.7 -5 56.12 68 56.12 258 c 3
113.12 258 m 3
 113.12 69.44 173.52 52 284.68 52 c 3
 399.48 52 456.92 73.82 456.92 258 c 3
 456.92 457.18 403.04 479 284.68 479 c 3
 169.96 479 113.12 462.94 113.12 258 c 3
EndSplineSet
Substitution2: "'smcp' Lowercase to Small Capitals lookup 16-1" o.smcp
EndChar

StartChar: c
Encoding: 99 99 5
Width: 500
VWidth: 0
Flags: HW
LayerCount: 2
Fore
SplineSet
56.12 266 m 0
 56.12 498 128.78 536 230.78 536 c 3
 282.78 536 381.3 523.34 448.58 510 c 1
 448.58 469.6 l 1
 448.58 469.6 319.78 479 230.78 479 c 3
 160.24 479 113.12 460.18 113.12 262 c 3
 113.12 90.98 154.02 52 230.78 52 c 3
 322.78 52 455.92 66.4 455.92 66.4 c 1
 455.92 24 l 17
 374.92 1 313.78 -4 230.78 -5 c 0
 131.78 -5 56.12 33 56.12 266 c 0
EndSplineSet
Substitution2: "'smcp' Lowercase to Small Capitals lookup 16-1" c.smcp
EndChar

StartChar: d
Encoding: 100 100 6
Width: 553
VWidth: 0
Flags: HW
LayerCount: 2
Fore
SplineSet
56.12 263 m 0
 56.12 399 83.18 539 234.18 539 c 3
 279.18 539 366.86 525 430.86 499 c 1
 430.86 785 l 1
 486.18 785 l 1
 486.18 0 l 1
 446.78 0 l 1
 430.18 59 l 17
 404.18 38.3 302.18 -6 234.18 -6 c 3
 89.18 -6 56.12 141 56.12 263 c 0
113.12 263 m 0
 113.12 115.66 162.38 51 234.18 51 c 3
 313.18 51 376.52 76.36 430.18 100.06 c 1
 430.18 454.64 l 1
 361.18 472.64 311.18 482 234.18 482 c 3
 163.38 482 113.12 441.64 113.12 263 c 0
EndSplineSet
AlternateSubs2: "'salt' Access All Alternates in Latin lookup 4-1" d.salt
Substitution2: "'smcp' Lowercase to Small Capitals lookup 16-1" d.smcp
EndChar

StartChar: A
Encoding: 65 65 7
Width: 666
VWidth: 0
Flags: W
HStem: 0 21G<50.44 126.185 566.747 640.24> 0 21G<50.44 126.185 566.747 640.24> 220.66 57<215.74 480.58> 712 20G<313.744 388.608>
DStem2: 50.44 0 119.34 0 0.346851 0.93792<23.898 257.054 317.757 317.757> 381.54 732 350.68 649.26 0.333218 -0.94285<67.7283 461.376 521.856 754.071>
LayerCount: 2
Fore
SplineSet
50.44 0 m 1xb0
 321.14 732 l 1
 381.54 732 l 1
 640.24 0 l 1
 573.32 0 l 1
 500.8 220.66 l 1
 194.86 220.66 l 1
 119.34 0 l 1
 50.44 0 l 1xb0
215.74 277.66 m 1
 480.58 277.66 l 1
 350.68 649.26 l 1
 215.74 277.66 l 1
EndSplineSet
Substitution2: "'c2sc' Capitals to Small Capitals in Latin lookup 17 subtable" a.smcp
EndChar

StartChar: p
Encoding: 112 112 8
Width: 553
VWidth: 0
Flags: HW
LayerCount: 2
Fore
SplineSet
67.14 -269.32 m 1
 67.14 531 l 1
 106.54 531 l 1
 122.82 472 l 17
 148.82 492.7 251.14 537 319.14 537 c 3
 464.14 537 497.54 390 497.54 268 c 0
 497.54 132 470.14 -8 319.14 -8 c 3
 274.14 -8 186.48 6 122.48 32 c 1
 122.48 -269.32 l 1
 67.14 -269.32 l 1
122.82 76.36 m 1
 191.82 58.36 242.14 49 319.14 49 c 3
 389.94 49 440.54 90.72 440.54 268 c 0
 440.54 412.96 390.94 480 319.14 480 c 3
 240.14 480 176.48 454.64 122.82 430.94 c 1
 122.82 76.36 l 1
EndSplineSet
AlternateSubs2: "'salt' Access All Alternates in Latin lookup 4-1" p.salt
Substitution2: "'smcp' Lowercase to Small Capitals lookup 16-1" p.smcp
EndChar

StartChar: b
Encoding: 98 98 9
Width: 553
VWidth: 0
Flags: HW
LayerCount: 2
Fore
SplineSet
67.14 0 m 1
 67.14 785 l 1
 122.14 785 l 1
 122.14 499 l 1
 186.14 525 274.14 539 319.14 539 c 3
 470.14 539 497.54 399 497.54 263 c 0
 497.54 141 464.14 -6 319.14 -6 c 3
 251.14 -6 149.14 38.3 123.14 59 c 9
 106.54 0 l 1
 67.14 0 l 1
123.14 100.06 m 1
 176.8 76.36 240.14 51 319.14 51 c 3
 390.94 51 440.54 118.04 440.54 263 c 0
 440.54 440.28 389.94 482 319.14 482 c 3
 242.14 482 192.14 472.64 123.14 454.64 c 1
 123.14 100.06 l 1
EndSplineSet
AlternateSubs2: "'salt' Access All Alternates in Latin lookup 4-1" b.salt
Substitution2: "'smcp' Lowercase to Small Capitals lookup 16-1" b.smcp
EndChar

StartChar: q
Encoding: 113 113 10
Width: 556
VWidth: 0
Flags: HW
LayerCount: 2
Fore
SplineSet
56.12 268 m 3
 56.12 436 115.12 537 240.12 537 c 1
 346.12 537 441.54 523.1 489.22 517.74 c 1
 489.22 -270 l 17
 432.22 -270 l 9
 432.22 29 l 1
 368.22 3 285.12 -10 240.12 -10 c 3
 87.12 -10 56.12 110 56.12 268 c 3
113.12 268 m 3
 113.12 155.84 122.72 47 240.12 47 c 3
 314.12 47 349.22 53.04 432.22 74.04 c 1
 432.22 480 l 2
 240.12 480 l 2
 128.7 480 113.12 356.16 113.12 268 c 3
EndSplineSet
Substitution2: "'smcp' Lowercase to Small Capitals lookup 16-1" q.smcp
EndChar

StartChar: n
Encoding: 110 110 11
Width: 546
VWidth: 0
Flags: HW
LayerCount: 2
Fore
SplineSet
67.14 0 m 1
 67.14 531 l 1
 106.22 531 l 1
 124.14 469 l 1
 184.12 505.02 245.94 540 326.94 540 c 3
 432.94 540 490.94 458 490.94 370 c 2
 490.94 0 l 9
 433.94 0 l 17
 433.94 370 l 2
 433.94 440.42 390.86 483 326.94 483 c 3
 244.22 483 200.12 462.66 124.14 424.64 c 1
 124.14 0 l 1
 67.14 0 l 1
EndSplineSet
AlternateSubs2: "'salt' Access All Alternates in Latin lookup 4-1" n.salt
Substitution2: "'smcp' Lowercase to Small Capitals lookup 16-1" n.smcp
EndChar

StartChar: i
Encoding: 105 105 12
Width: 187
VWidth: 0
Flags: HW
LayerCount: 2
Fore
SplineSet
56.12 618.7 m 2
 56.12 675.42 l 2
 56.12 688.04 62.76 696 76.04 696 c 2
 112.78 696 l 2
 125.4 696 131.7 687.04 131.7 675.42 c 2
 131.7 618.7 l 2
 131.7 606.08 124.4 599.44 112.78 599.44 c 2
 76.04 599.44 l 2
 64.42 599.44 56.12 607.08 56.12 618.7 c 2
64.08 0 m 1
 64.08 531 l 1
 121.08 531 l 1
 121.08 0 l 1
 64.08 0 l 1
EndSplineSet
Substitution2: "'smcp' Lowercase to Small Capitals lookup 16-1" i.smcp
EndChar

StartChar: h
Encoding: 104 104 13
Width: 546
VWidth: 0
Flags: W
HStem: 0 21G<67.14 124.14 433.94 490.94> 0 21G<67.14 124.14 433.94 490.94> 483 57<218.889 394.377> 764 20G<67.14 124.14>
VStem: 67.14 57<0 434.865 469 784> 433.94 57<0 443.873>
LayerCount: 2
Fore
SplineSet
67.14 0 m 1xbc
 67.14 784 l 1
 124.14 784 l 1
 124.14 469 l 1
 184.12 505.02 245.94 540 326.94 540 c 3
 432.94 540 490.94 458 490.94 370 c 2
 490.94 0 l 9
 433.94 0 l 17
 433.94 370 l 2
 433.94 442.12 391.52 483 326.94 483 c 3
 244.22 483 200.12 462.66 124.14 424.64 c 1
 124.14 0 l 1
 67.14 0 l 1xbc
EndSplineSet
Substitution2: "'smcp' Lowercase to Small Capitals lookup 16-1" h.smcp
EndChar

StartChar: u
Encoding: 117 117 14
Width: 546
VWidth: 0
Flags: HW
LayerCount: 2
Fore
SplineSet
56.12 161.34 m 2
 56.12 531.34 l 9
 113.12 531.34 l 17
 113.12 161.34 l 2
 113.12 90.92 156.2 48.34 220.12 48.34 c 3
 302.84 48.34 346.94 68.68 422.92 106.7 c 1
 422.92 531.34 l 1
 479.92 531.34 l 1
 479.92 0.34 l 1
 440.84 0.34 l 1
 422.92 62.34 l 1
 362.94 26.32 301.12 -8.66 220.12 -8.66 c 3
 114.12 -8.66 56.12 73.34 56.12 161.34 c 2
EndSplineSet
AlternateSubs2: "'salt' Access All Alternates in Latin lookup 4-1" u.salt
Substitution2: "'smcp' Lowercase to Small Capitals lookup 16-1" u.smcp
EndChar

StartChar: r
Encoding: 114 114 15
Width: 425
VWidth: 0
Flags: HW
LayerCount: 2
Fore
SplineSet
67.14 0 m 1
 67.14 531 l 1
 105.54 531 l 1
 124.14 464 l 1
 185.14 499 244.22 537 328.94 537 c 27
 357.94 537 388.22 535.34 402.94 529 c 1
 402.94 473 l 1
 386.86 476.68 357.94 479.34 328.94 479.34 c 27
 245.88 479.34 201.14 454.6 124.14 417.6 c 1
 124.14 0 l 1
 67.14 0 l 1
EndSplineSet
AlternateSubs2: "'salt' Access All Alternates in Latin lookup 4-1" r.salt
Substitution2: "'smcp' Lowercase to Small Capitals lookup 16-1" r.smcp
EndChar

StartChar: m
Encoding: 109 109 16
Width: 909
VWidth: 0
Flags: HW
LayerCount: 2
Fore
SplineSet
67.14 0 m 1
 67.14 531 l 1
 106.22 531 l 1
 124.14 467.68 l 1
 184.12 503.7 242.64 538.02 322.32 538.02 c 1
 388.34 538.02 443.94 507.32 467.96 458.66 c 1
 519.96 500.3 603.5 538.02 689.44 538.02 c 1
 786.2 538.02 853.44 464.6 853.44 367.36 c 2
 853.44 0 l 1
 796.44 0 l 1
 796.44 367.36 l 2
 796.44 433.16 754.02 481.02 689.44 481.02 c 1
 608.74 481.02 549.24 461.56 481.54 420.26 c 1
 484.94 412.1 486.98 377.86 486.98 368.68 c 2
 486.98 0 l 1
 429.98 0 l 1
 429.98 367.36 l 2
 429.98 433.16 386.9 481.02 322.32 481.02 c 1
 241.58 481.02 200.12 461.34 124.14 423.32 c 1
 124.14 0 l 1
 67.14 0 l 1
EndSplineSet
AlternateSubs2: "'salt' Access All Alternates in Latin lookup 4-1" m.salt
Substitution2: "'smcp' Lowercase to Small Capitals lookup 16-1" m.smcp
EndChar

StartChar: f
Encoding: 102 102 17
Width: 394
VWidth: 0
Flags: W
HStem: 0 21G<115.98 172.98> 0 21G<115.98 172.98> 474 57<172.98 331.18> 474 42.38<22.38 67.1953> 730.32 55.68<188.506 370.082>
VStem: 115.98 57<0 474 531 715.876>
LayerCount: 2
Fore
SplineSet
22.38 474 m 1x9c
 22.38 516.38 l 1x9c
 115.98 531 l 1
 115.98 630 l 2
 115.98 684 118.98 786 228.78 786 c 0
 271.32 786 327.6 779.72 372.18 766.42 c 1
 372.18 729.66 l 1
 371.52 729.66 242.72 730.32 242.72 730.32 c 2
 177.36 730.98 172.98 688.2 172.98 630 c 2
 172.98 531 l 1
 331.18 531 l 1
 331.18 474 l 1
 172.98 474 l 9x2c
 172.98 0 l 17
 115.98 0 l 1
 115.98 474 l 1
 22.38 474 l 1x9c
EndSplineSet
AlternateSubs2: "'salt' Access All Alternates in Latin lookup 4-1" f.salt
Substitution2: "'smcp' Lowercase to Small Capitals lookup 16-1" f.smcp
EndChar

StartChar: l
Encoding: 108 108 18
Width: 299
VWidth: 0
Flags: W
HStem: 0 39.4<185.343 276.94> 763 20G<67.14 124.14>
VStem: 67.14 57<88.1814 783>
LayerCount: 2
Fore
SplineSet
67.14 189 m 2
 67.14 783 l 1
 124.14 783 l 1
 124.14 189 l 2
 124.14 78.2 160.4 63.64 193.04 57 c 2
 193.04 57 269.94 39.4 276.94 39.4 c 1
 276.94 0 l 1
 196.08 0 l 2
 116.7 0 67.14 51.06 67.14 189 c 2
EndSplineSet
Substitution2: "'smcp' Lowercase to Small Capitals lookup 16-1" l.smcp
EndChar

StartChar: j
Encoding: 106 106 19
Width: 210
VWidth: 0
Flags: HW
LayerCount: 2
Fore
SplineSet
67.14 618.7 m 2
 67.14 675.42 l 2
 67.14 688.04 73.78 696 87.06 696 c 2
 123.8 696 l 2
 136.42 696 143.06 687.04 143.06 675.42 c 2
 143.06 618.7 l 2
 143.06 606.08 135.42 599.44 123.8 599.44 c 2
 87.06 599.44 l 2
 75.44 599.44 67.14 607.08 67.14 618.7 c 2
76.44 -270 m 1
 76.44 531 l 1
 133.44 531 l 1
 133.44 -4 l 2
 134.44 -90 133.12 -187.28 112.54 -270 c 1
 76.44 -270 l 1
EndSplineSet
Substitution2: "'smcp' Lowercase to Small Capitals lookup 16-1" j.smcp
EndChar

StartChar: t
Encoding: 116 116 20
Width: 368
VWidth: 0
Flags: W
HStem: 0.32 39.4<234.483 326.08> 475 57<173.28 335.08> 475 42.4<22.38 67.4006>
VStem: 116.28 57<88.5014 475> 130.88 42.4<609.041 680>
LayerCount: 2
Fore
SplineSet
22.38 475 m 1xb0
 22.38 517.4 l 1xb0
 116.28 532 l 1xd0
 130.88 680 l 1
 173.28 680 l 1
 173.28 532 l 1xc8
 335.08 532 l 1
 335.08 475 l 1
 173.28 475 l 1xd0
 173.28 189.32 l 2
 173.28 78.52 209.54 63.96 242.18 57.32 c 2
 242.18 57.32 319.08 39.72 326.08 39.72 c 1
 326.08 0.32 l 1
 245.22 0.32 l 2
 165.84 0.32 116.28 51.38 116.28 189.32 c 2
 116.28 475 l 1
 22.38 475 l 1xb0
EndSplineSet
AlternateSubs2: "'salt' Access All Alternates in Latin lookup 4-1" t.salt
Substitution2: "'smcp' Lowercase to Small Capitals lookup 16-1" t.smcp
EndChar

StartChar: s
Encoding: 115 115 21
Width: 505
VWidth: 0
Flags: W
HStem: -5 57<108.832 389.071> 10.94 41.06<66.76 274.013> 235.5 57<112.104 388.986> 480 56<114.667 402.965> 480 42.38<224.593 433.56>
VStem: 44.76 57<303.215 466.566> 403.56 57<67.6254 219.6>
LayerCount: 2
Fore
SplineSet
44.76 359.7 m 10xa6
 44.76 405.7 l 18
 44.76 487.7 79.76 536 182.76 536 c 3xb6
 234.76 536 381.56 527.38 433.56 522.38 c 9
 433.56 480 l 17x2e
 182.76 480 l 2
 111.96 480 101.76 452.62 101.76 405.7 c 10
 101.76 359.7 l 18
 101.76 294.16 132.84 292.5 182.76 292.5 c 2
 330.56 292.5 l 2
 413.82 292.5 460.56 243.6 460.56 168.6 c 1
 460.56 119.6 l 2
 460.56 10.6 394.56 -5 330.56 -5 c 3xb6
 281.56 -5 104.76 6.94 66.76 10.94 c 9
 66.76 52 l 17x66
 330.56 52 l 18
 346.54 52 403.56 48.38 403.56 119.6 c 2
 403.56 168.6 l 2
 403.56 208.36 383.74 235.5 330.56 235.5 c 10
 182.76 235.5 l 2
 88.76 235.5 44.76 256.7 44.76 359.7 c 10xa6
EndSplineSet
Substitution2: "'smcp' Lowercase to Small Capitals lookup 16-1" s.smcp
EndChar

StartChar: k
Encoding: 107 107 22
Width: 499
VWidth: 0
Flags: HW
LayerCount: 2
Fore
SplineSet
67.14 0 m 1
 67.14 782 l 1
 124.14 782 l 1
 124.14 333.5 l 1
 170.94 333.5 l 1
 396.04 531 l 1
 476.94 531 l 1
 225.3 304.66 l 1
 476.6 0 l 1
 403.98 0 l 1
 170.94 276.5 l 1
 124.14 276.5 l 1
 124.14 0 l 1
 67.14 0 l 1
EndSplineSet
Substitution2: "'smcp' Lowercase to Small Capitals lookup 16-1" k.smcp
EndChar

StartChar: g
Encoding: 103 103 23
Width: 560
VWidth: 0
Flags: W
HStem: -270 57<137.52 425.824> 19.84 56.66<115.454 432.2> 157.16 57.34<151.793 386.24> 476 57<151.953 395.343> 491.28 41.72<496.3 538.08>
VStem: 53.44 56.32<-183.22 -27.94 83.767 149.693 258.794 433.018> 431.08 57<262.405 437.54> 452.08 57<-187.199 1.39128>
LayerCount: 2
Fore
SplineSet
53.44 116.7 m 1xf5
 53.44 148.68 74.33 188.64 121.28 194.6 c 1
 67.08 223.28 53.42 288.96 53.42 344 c 0
 53.42 472.7 114.32 533 226.08 533 c 2xf5
 538.08 533 l 1
 538.08 491.28 l 1xed
 446.88 476 l 1
 460.26 457.72 488.08 431.28 488.08 344 c 0xf6
 488.08 284 465.08 157.16 323.08 157.16 c 2
 167.08 157.16 l 2
 151.08 157.16 109.76 152.82 109.76 117.98 c 0
 109.76 87.22 139.845 76.5 164.02 76.5 c 2
 374.64 76.5 l 2
 461.286 76.5 509.08 21.84 509.08 -59.8 c 2
 509.08 -119.4 l 2
 509.08 -179.4 490.08 -270 359.08 -270 c 2
 209.08 -270 l 2
 115.08 -270 50.44 -218.3 50.44 -116 c 2
 50.44 -27.94 l 1
 80.92 50.66 l 1
 60.06 67.09 53.44 94.12 53.44 116.7 c 1xf5
107.78 -116 m 2
 107.78 -202.26 172.38 -213 209.08 -213 c 2
 359.08 -213 l 2
 421.82 -213 452.08 -182.38 452.08 -119.4 c 2
 452.08 -63.1 l 2
 452.08 -12.02 434.846 19.84 366.06 19.84 c 2
 165.36 19.84 l 2
 126.54 19.84 107.78 34.98 107.78 34.98 c 1
 107.78 -116 l 2
110.42 344 m 0
 110.42 275.62 139.36 214.5 219.08 214.5 c 2
 318.44 214.5 l 2
 407.96 214.5 432.4 287.82 431.08 344 c 0xf6
 429.1 428.96 401.54 476 332.4 476 c 2
 222.68 476 l 2
 131.16 476 110.42 413.62 110.42 344 c 0
EndSplineSet
AlternateSubs2: "'salt' Access All Alternates in Latin lookup 4-1" g.salt
Substitution2: "'smcp' Lowercase to Small Capitals lookup 16-1" g.smcp
EndChar

StartChar: v
Encoding: 118 118 24
Width: 530
VWidth: 0
Flags: W
HStem: 0 21G<226.453 300.258> 0 21G<226.453 300.258> 511 20G<22.38 92.0359 438.404 508.18>
DStem2: 84 531 22.38 531 0.370878 -0.928682<0 482.637> 263.94 83.16 292.12 0 0.376888 0.926259<0 483.643>
LayerCount: 2
Fore
SplineSet
22.38 531 m 25xa0
 84 531 l 17
 263.94 83.16 l 9
 446.56 531 l 25
 508.18 531 l 25
 292.12 0 l 25
 234.44 0 l 25
 22.38 531 l 25xa0
EndSplineSet
Substitution2: "'smcp' Lowercase to Small Capitals lookup 16-1" v.smcp
EndChar

StartChar: w
Encoding: 119 119 25
Width: 793
VWidth: 0
Flags: W
HStem: 0 21G<216.673 293.496 497.634 572.558> 0 21G<216.673 293.496 497.634 572.558> 511 20G<22.31 92.4123 403.25 471.71 701.09 770.77>
DStem2: 84.83 531 22.31 531 0.35551 -0.934672<0 479.189> 254.7 82.93 286.46 0 0.3294 0.944191<0 223.169 305.037 474.282> 411.11 351.43 383.03 274.52 0.410575 -0.911827<58.5997 295.162> 533.71 82.93 564.8 0 0.361638 0.932319<0 481.103>
LayerCount: 2
Fore
SplineSet
22.31 531 m 1xa0
 84.83 531 l 1
 254.7 82.93 l 1
 410.19 531 l 1
 471.71 531 l 1
 411.11 351.43 l 1
 533.71 82.93 l 1
 708.91 531 l 1
 770.77 531 l 1
 564.8 0 l 1
 506.64 0 l 1
 383.03 274.52 l 1
 286.46 0 l 1
 224.28 0 l 1
 22.31 531 l 1xa0
EndSplineSet
Substitution2: "'smcp' Lowercase to Small Capitals lookup 16-1" w.smcp
EndChar

StartChar: y
Encoding: 121 121 26
Width: 545
VWidth: 0
Flags: W
HStem: 0 59.32<240.807 279.16> 511 20G<23.38 92.2082 450.781 520.78>
DStem2: 85.68 531 23.38 531 0.309035 -0.951051<0 497.652> 187.54 -270 287.12 -168 0.319378 0.947627<76.0806 285.121 347.683 845.269>
LayerCount: 2
Fore
SplineSet
23.38 531 m 1
 85.68 531 l 1
 221.14 116 l 2
 245.6 43.36 300.04 59.32 299.04 59.32 c 9
 457.5 531 l 1
 520.78 531 l 9
 287.12 -168 l 17
 221.98 -270 l 1
 187.54 -270 l 1
 279.16 0 l 0
 258.16 0.34 192.5 4.38 160.18 110 c 2
 23.38 531 l 1
EndSplineSet
Substitution2: "'smcp' Lowercase to Small Capitals lookup 16-1" y.smcp
EndChar

StartChar: x
Encoding: 120 120 27
Width: 509
VWidth: 0
Flags: W
HStem: 0 21G<26.72 112.787 396.253 477.04> 0 21G<26.72 112.787 396.253 477.04> 511 20G<26.72 112.578 396.219 482.32>
DStem2: 98.32 531 26.72 531 0.585992 -0.810317<0 266.808 346.83 613.342> 26.72 0 98.32 0 0.585992 0.810317<41.957 308.469 386.944 655.299>
LayerCount: 2
Fore
SplineSet
26.72 0 m 1xa0
 218.72 266 l 1
 26.72 531 l 1
 98.32 531 l 1
 253.2 313.74 l 1
 410.72 531 l 1
 482.32 531 l 1
 289 264.02 l 1
 477.04 0 l 1
 410.72 0 l 1
 254.52 215.94 l 1
 98.32 0 l 1
 26.72 0 l 1xa0
EndSplineSet
AlternateSubs2: "'salt' Access All Alternates in Latin lookup 4-1" x.salt
Substitution2: "'smcp' Lowercase to Small Capitals lookup 16-1" x.smcp
EndChar

StartChar: V
Encoding: 86 86 28
Width: 666
VWidth: 0
Flags: W
HStem: 0 21G<302.072 376.936> 0 21G<302.072 376.936> 712 20G<50.44 119.776 570.573 640.24>
DStem2: 112.74 732 50.44 732 0.333218 -0.94285<0 684.77> 340 86.04 369.54 0 0.346851 0.93792<0 688.389>
LayerCount: 2
Fore
SplineSet
50.44 732 m 1xa0
 112.74 732 l 1
 340 86.04 l 1
 577.94 732 l 1
 640.24 732 l 1
 369.54 0 l 1
 309.14 0 l 1
 50.44 732 l 1xa0
EndSplineSet
Substitution2: "'c2sc' Capitals to Small Capitals in Latin lookup 17 subtable" v.smcp
EndChar

StartChar: W
Encoding: 87 87 29
Width: 965
VWidth: 0
Flags: HW
LayerCount: 2
Fore
SplineSet
50.44 732 m 1
 112.74 732 l 1
 339.34 93.3 l 1
 542.1 732 l 1
 606.38 732 l 1
 526.48 475.22 l 1
 669.68 89.34 l 1
 877.42 732 l 1
 939.04 732 l 1
 701.54 0 l 1
 641.14 0 l 1
 496.32 381.48 l 1
 369.54 0 l 1
 309.14 0 l 1
 50.44 732 l 1
EndSplineSet
Substitution2: "'c2sc' Capitals to Small Capitals in Latin lookup 17 subtable" w.smcp
EndChar

StartChar: C
Encoding: 67 67 30
Width: 575
VWidth: 0
Flags: HW
LayerCount: 2
Fore
SplineSet
61.46 368 m 0
 61.46 600.64 104.76 740 305.12 740 c 0
 357.12 740 468.92 728.34 538.92 715.34 c 1
 538.92 671.64 l 17
 537.92 671.64 397.12 683 305.12 683 c 3
 172.64 683 118.46 621.58 118.46 366 c 0
 118.46 180.24 166 51 305.46 51 c 3
 410.46 51 538.92 59.7 538.92 59.7 c 1
 538.92 16 l 1
 468.92 3 357.12 -6 305.12 -6 c 0
 120.12 -6 61.46 153 61.46 368 c 0
EndSplineSet
Substitution2: "'c2sc' Capitals to Small Capitals in Latin lookup 17 subtable" c.smcp
EndChar

StartChar: D
Encoding: 68 68 31
Width: 661
VWidth: 0
Flags: HW
LayerCount: 2
Fore
SplineSet
89.52 0 m 1
 89.52 732 l 2
 355.06 732 l 0
 580.4 732 614.72 513 614.72 363 c 0
 614.72 197 545.34 0 355.06 0 c 0
 89.52 0 l 1
146.52 58.98 m 1
 355.06 58.98 l 2
 498.96 58.98 557.72 212.04 557.72 364 c 0
 557.72 585.48 481.94 675 355.06 675 c 2
 146.52 675 l 1
 146.52 58.98 l 1
EndSplineSet
Substitution2: "'c2sc' Capitals to Small Capitals in Latin lookup 17 subtable" d.smcp
EndChar

StartChar: O
Encoding: 79 79 32
Width: 675
VWidth: 0
Flags: W
HStem: -4 57<218.354 477.785> 680 57<217.004 485.383>
VStem: 72.82 57<163.184 565.223> 571.62 57<166.617 564.25>
LayerCount: 2
Fore
SplineSet
72.82 361 m 3
 72.82 704 182.02 737 351.38 737 c 3
 524.38 737 628.62 704 628.62 361 c 3
 628.62 38 531.38 -4 351.38 -4 c 3
 171.38 -4 72.82 28 72.82 361 c 3
129.82 361 m 3
 129.82 90.06 186.24 53 351.38 53 c 3
 512.48 53 571.62 96.02 571.62 361 c 3
 571.62 668.5 495.54 680 351.38 680 c 3
 213.28 680 129.82 672.92 129.82 361 c 3
EndSplineSet
Substitution2: "'c2sc' Capitals to Small Capitals in Latin lookup 17 subtable" o.smcp
EndChar

StartChar: S
Encoding: 83 83 33
Width: 584
VWidth: 0
Flags: HW
LayerCount: 2
Fore
SplineSet
72.82 494 m 10
 72.82 560 l 18
 72.82 705 157.12 738 269.12 738 c 0
 322.12 738 467.86 721.72 509.6 715.7 c 1
 509.6 671.68 l 1
 445.6 675.68 269.12 681 269.12 681 c 1
 187.217 684.267 129.82 667.14 129.82 560 c 10
 129.82 494 l 18
 129.82 398.58 176.24 387.5 247.12 387.5 c 2
 379.6 387.5 l 18
 512.6 387.5 537.64 306 537.64 224 c 2
 537.64 156 l 2
 537.64 14 437.36 -8 338.36 -8 c 3
 289.36 -8 139.46 5.6 93.46 13.6 c 9
 93.46 58.3 l 17
 134.82 54.3 245.36 49 338.36 49 c 1
 396.02 49 480.64 58.14 480.64 156 c 2
 480.64 224 l 2
 480.64 290.52 456.5 330.5 379.6 330.5 c 10
 249.12 330.5 l 2
 90.82 330.5 72.82 412.04 72.82 494 c 10
EndSplineSet
Substitution2: "'c2sc' Capitals to Small Capitals in Latin lookup 17 subtable" s.smcp
EndChar

StartChar: G
Encoding: 71 71 34
Width: 616
VWidth: 0
Flags: HW
LayerCount: 2
Fore
SplineSet
61.46 370 m 3
 61.46 570 91.02 740 290.02 740 c 0
 342.02 740 472.32 726 542.32 713 c 1
 542.32 667.6 l 1
 536.32 667.6 387.32 683 290.02 683 c 3
 146.46 683 118.46 575.1 118.46 368 c 0
 118.46 137.16 159.12 52.66 294.36 51.34 c 0
 371.04 50.68 501.66 98.7 501.66 98.7 c 9
 501.66 331 l 25
 318.02 331 l 25
 318.02 368.76 l 17
 358.02 379.76 409.66 389 490.66 389 c 0
 511.66 389 534.66 388 558.66 386 c 9
 558.66 0 l 17
 516.94 0 l 0
 503.66 50.7 l 1
 468.38 31.4 384.36 -5 294.36 -5 c 1
 87.36 -7 61.46 159.7 61.46 370 c 3
EndSplineSet
Substitution2: "'c2sc' Capitals to Small Capitals in Latin lookup 17 subtable" g.smcp
EndChar

StartChar: Q
Encoding: 81 81 35
Width: 675
VWidth: 0
Flags: HW
LayerCount: 2
Fore
SplineSet
72.82 361 m 3
 72.82 704 178.06 737 350.06 737 c 3
 523.06 737 628.62 704 628.62 361 c 3
 628.62 38 530.06 -4 350.06 -4 c 3
 170.06 -4 72.82 28 72.82 361 c 3
129.82 361 m 3
 129.82 90.06 184.92 53 350.06 53 c 3
 511.16 53 571.62 96.02 571.62 361 c 3
 571.62 668.5 494.22 680 350.06 680 c 3
 211.96 680 129.82 672.92 129.82 361 c 3
327.54 -33 m 9
 366.62 -33 l 17
 417.74 -89.92 479 -88.28 537.34 -67.62 c 1
 537.34 -128.58 l 1
 465.34 -155.58 344.9 -130.96 327.54 -33 c 9
EndSplineSet
Substitution2: "'c2sc' Capitals to Small Capitals in Latin lookup 17 subtable" q.smcp
EndChar

StartChar: M
Encoding: 77 77 36
Width: 799
VWidth: 0
Flags: W
HStem: 0 21G<61.46 120.119 366.161 438.051 683.453 742.26> 0 21G<61.46 120.119 366.161 438.051 683.453 742.26> 712 20G<119.062 206.556 591.011 678.53>
DStem2: 61.46 0 118.46 0 0.0806382 0.996743<4.59638 640.473> 200.24 732 171.04 633.7 0.301131 -0.953583<84.9441 667.881> 401.36 95.12 431.86 0 0.293862 0.955848<0 581.407> 676.74 732 628.02 633.7 0.0891518 -0.996018<93.5651 729.845>
LayerCount: 2
Fore
SplineSet
61.46 0 m 1xa0
 120.68 732 l 1
 200.24 732 l 1
 401.36 95.12 l 1
 597.16 732 l 1
 676.74 732 l 1
 742.26 0 l 1
 685.26 0 l 1
 628.02 633.7 l 1
 431.86 0 l 1
 372.52 0 l 1
 171.04 633.7 l 1
 118.46 0 l 1
 61.46 0 l 1xa0
EndSplineSet
AlternateSubs2: "'salt' Access All Alternates in Latin lookup 4-1" M.salt
Substitution2: "'c2sc' Capitals to Small Capitals in Latin lookup 17 subtable" m.smcp
EndChar

StartChar: I
Encoding: 73 73 37
Width: 209
VWidth: 0
Flags: W
HStem: 0 21G<89.52 146.52> 0 21G<89.52 146.52> 712 20G<89.52 146.52>
VStem: 89.52 57<0 732>
LayerCount: 2
Fore
SplineSet
89.52 0 m 1xb0
 89.52 732 l 1
 146.52 732 l 1
 146.52 0 l 1
 89.52 0 l 1xb0
EndSplineSet
Substitution2: "'c2sc' Capitals to Small Capitals in Latin lookup 17 subtable" i.smcp
EndChar

StartChar: J
Encoding: 74 74 38
Width: 355
VWidth: 0
Flags: HW
LayerCount: 2
Fore
SplineSet
39.08 21 m 1
 43.08 61.4 l 1
 121.84 40.34 235.22 14.1 235.88 165 c 1
 235.88 732 l 1
 292.88 732 l 1
 292.88 165 l 2
 292.88 118 289.18 50.34 240.88 18 c 0
 191.28 -15.32 91.08 -13 39.08 21 c 1
EndSplineSet
Substitution2: "'c2sc' Capitals to Small Capitals in Latin lookup 17 subtable" j.smcp
EndChar

StartChar: H
Encoding: 72 72 39
Width: 646
VWidth: 0
Flags: HW
LayerCount: 2
Fore
SplineSet
89.52 0 m 1
 89.52 732 l 1
 146.52 732 l 1
 146.52 382.5 l 1
 527.12 382.5 l 1
 527.12 732 l 1
 584.12 732 l 1
 584.12 0 l 1
 527.12 0 l 1
 527.12 325.5 l 1
 146.52 325.5 l 1
 146.52 0 l 1
 89.52 0 l 1
EndSplineSet
Substitution2: "'c2sc' Capitals to Small Capitals in Latin lookup 17 subtable" h.smcp
EndChar

StartChar: E
Encoding: 69 69 40
Width: 572
VWidth: 0
Flags: W
HStem: -3 57<159.597 368.939> 11.62 42.38<381.641 525.06> 332.52 60.3<146.52 432.035> 340.82 43.7<199.545 485.06> 675 57<159.748 370.733> 675 43.04<369.847 525.06>
VStem: 89.52 57<69.1176 332.52 392.82 660.81>
LayerCount: 2
Fore
SplineSet
89.52 123 m 2x82
 89.52 602 l 2
 89.52 700 149.542 734.712 215.52 732 c 2x8a
 525.06 718.04 l 1
 525.06 675 l 1x06
 215.52 675 l 2
 160.12 675 146.52 645.32 146.52 602 c 2
 146.52 392.82 l 1x2a
 485.06 384.52 l 1
 485.06 340.82 l 1x12
 146.52 332.52 l 1
 146.52 123 l 2
 147.18 56.74 187.68 54 225.52 54 c 2xa2
 525.06 54 l 1
 525.06 11.62 l 1x42
 225.52 -3 l 2
 159.511 -6.42227 89.52 10 89.52 123 c 2x82
EndSplineSet
Substitution2: "'c2sc' Capitals to Small Capitals in Latin lookup 17 subtable" e.smcp
EndChar

StartChar: L
Encoding: 76 76 41
Width: 557
VWidth: 0
Flags: W
HStem: 0 57<159.383 521.32> 712 20G<89.52 146.52>
VStem: 89.52 57<72.4109 732>
LayerCount: 2
Fore
SplineSet
89.52 126 m 2
 89.52 732 l 1
 146.52 732 l 1
 146.52 126 l 2
 146.52 59.74 188.02 57 225.52 57 c 2
 521.32 57 l 1
 521.32 0 l 1
 225.52 0 l 2
 159.52 0 89.52 13 89.52 126 c 2
EndSplineSet
Substitution2: "'c2sc' Capitals to Small Capitals in Latin lookup 17 subtable" l.smcp
EndChar

StartChar: F
Encoding: 70 70 42
Width: 572
VWidth: 0
Flags: HW
LayerCount: 2
Fore
SplineSet
89.52 0 m 25
 89.52 602 l 2
 89.52 700 149.542 734.712 215.52 732 c 2
 525.06 718.04 l 1
 525.06 675 l 1
 215.52 675 l 2
 160.12 675 146.52 645.32 146.52 602 c 2
 146.52 392.82 l 1
 485.06 384.52 l 1
 485.06 340.82 l 1
 146.52 332.52 l 1
 146.52 0 l 25
 89.52 0 l 25
EndSplineSet
Substitution2: "'c2sc' Capitals to Small Capitals in Latin lookup 17 subtable" f.smcp
EndChar

StartChar: K
Encoding: 75 75 43
Width: 591
VWidth: 0
Flags: HW
LayerCount: 2
Fore
SplineSet
89.52 0 m 1
 89.52 732 l 1
 146.52 732 l 1
 146.52 395.5 l 1
 252.32 395.5 l 1
 486.06 732 l 1
 555.32 732 l 1
 304.68 367 l 1
 555.32 0 l 1
 485.72 0 l 1
 251.98 338.5 l 1
 147.52 338.5 l 9
 147.52 0 l 17
 89.52 0 l 1
EndSplineSet
Substitution2: "'c2sc' Capitals to Small Capitals in Latin lookup 17 subtable" k.smcp
EndChar

StartChar: T
Encoding: 84 84 44
Width: 586
VWidth: 0
Flags: W
HStem: 0 21G<269.88 326.88> 0 21G<269.88 326.88> 675 57<45.68 269.88 326.88 557.08>
VStem: 269.88 57<0 675>
LayerCount: 2
Fore
SplineSet
45.68 675 m 1xb0
 45.68 732 l 1
 557.08 732 l 1
 557.08 675 l 1
 326.88 675 l 1
 326.88 0 l 1
 269.88 0 l 1
 269.88 675 l 1
 45.68 675 l 1xb0
EndSplineSet
Substitution2: "'c2sc' Capitals to Small Capitals in Latin lookup 17 subtable" t.smcp
EndChar

StartChar: P
Encoding: 80 80 45
Width: 582
VWidth: 0
Flags: HW
LayerCount: 2
Fore
SplineSet
67.14 0 m 1
 67.14 732 l 1
 359.64 732 l 2
 438.64 732 534.98 703.08 534.98 524.08 c 0
 534.98 316.78 433.64 306.5 359.64 306.5 c 0
 319.64 306.5 129.14 320.1 124.14 323.1 c 1
 124.14 0 l 1
 67.14 0 l 1
124.14 363.5 m 2
 359.64 363.5 l 2
 420.82 363.5 477.66 382.24 476.98 524.08 c 1
 475.66 662.9 408.58 674 359.64 674 c 2
 124.14 674 l 1
 124.14 363.5 l 2
EndSplineSet
Substitution2: "'c2sc' Capitals to Small Capitals in Latin lookup 17 subtable" p.smcp
EndChar

StartChar: R
Encoding: 82 82 46
Width: 586
VWidth: 0
Flags: HW
LayerCount: 2
Fore
SplineSet
67.14 0 m 1
 67.14 732 l 1
 366.9 732 l 2
 456.46 732 538.28 689.22 538.28 518.8 c 0
 538.28 329.48 443.36 312.46 400.4 309.14 c 1
 556.78 0 l 1
 495.48 0 l 1
 338.76 307.16 l 1
 320.74 307.5 125.84 318.78 124.14 319.8 c 1
 124.14 0 l 1
 67.14 0 l 1
124.14 368.12 m 1
 366.9 368.12 l 2
 424.12 368.12 480.28 375.94 480.28 518.8 c 0
 480.28 657.62 421.78 674 366.9 674 c 2
 124.14 674 l 1
 124.14 368.12 l 1
EndSplineSet
Substitution2: "'c2sc' Capitals to Small Capitals in Latin lookup 17 subtable" r.smcp
EndChar

StartChar: U
Encoding: 85 85 47
Width: 679
VWidth: 0
Flags: HW
LayerCount: 2
Fore
SplineSet
89.52 320 m 2
 89.52 732 l 1
 146.52 732 l 1
 146.52 320 l 2
 146.52 48.72 231.96 52 355.42 52 c 3
 463.26 52 558.66 58.76 558.66 320 c 2
 558.66 732 l 1
 616.32 732 l 1
 616.32 320 l 2
 616.32 -3 476.42 -5 355.42 -5 c 3
 219.42 -5 89.52 -11.64 89.52 320 c 2
EndSplineSet
Substitution2: "'c2sc' Capitals to Small Capitals in Latin lookup 17 subtable" u.smcp
EndChar

StartChar: B
Encoding: 66 66 48
Width: 597
VWidth: 0
Flags: HW
LayerCount: 2
Fore
SplineSet
89.52 0 m 1
 89.52 732 l 1
 361.66 732 l 2
 508.34 732 551.66 634.88 551.66 544.38 c 0
 551.66 462.9 515.36 398.26 447.08 381.36 c 1
 491.08 371.36 555.32 318 555.32 204 c 0
 555.32 102 515.66 0 361.66 0 c 2
 89.52 0 l 1
147.18 57.34 m 1
 361.66 57.34 l 2
 420.2 57.34 498.32 76.46 498.32 206 c 0
 498.32 286.12 448.38 355.18 361.66 354.5 c 9
 147.18 354.5 l 1
 147.18 57.34 l 1
147.18 411.5 m 1
 361.66 411.5 l 2
 442.78 411.5 493.64 456.94 494.66 544.38 c 0
 496.02 648.52 432.36 675 361.66 675 c 2
 147.18 675 l 1
 147.18 411.5 l 1
EndSplineSet
Substitution2: "'c2sc' Capitals to Small Capitals in Latin lookup 17 subtable" b.smcp
EndChar

StartChar: N
Encoding: 78 78 49
Width: 674
VWidth: 0
Flags: W
HStem: 0 21G<89.52 147.18 542.13 612.18> 0 21G<89.52 147.18 542.13 612.18> 712 20G<89.52 161.198 555.18 612.18>
VStem: 89.52 57.66<0 625.28> 555.18 57<106.72 732>
DStem2: 148.18 732 147.18 625.28 0.546464 -0.837483<88.8297 746.072>
LayerCount: 2
Fore
SplineSet
89.52 0 m 1xb8
 89.52 732 l 1
 148.18 732 l 1
 555.18 106.72 l 1
 555.18 732 l 1
 612.18 732 l 1
 612.18 0 l 0
 555.18 0 l 1
 147.18 625.28 l 1
 147.18 0 l 1
 89.52 0 l 1xb8
EndSplineSet
AlternateSubs2: "'salt' Access All Alternates in Latin lookup 4-1" N.salt
Substitution2: "'c2sc' Capitals to Small Capitals in Latin lookup 17 subtable" n.smcp
EndChar

StartChar: X
Encoding: 88 88 50
Width: 585
VWidth: 0
Flags: W
HStem: 0 21G<53.44 129.133 478.664 554.44> 0 21G<53.44 129.133 478.664 554.44> 712 20G<50.44 126.258 483.414 559.44>
DStem2: 114.44 732 50.44 732 0.515184 -0.857079<0 371.193 452.238 821.091> 53.44 0 117.44 0 0.516901 0.856045<33.0817 401.245 482.193 855.095>
LayerCount: 2
Fore
SplineSet
50.44 732 m 1xa0
 114.44 732 l 1
 303.28 412.42 l 1
 495.44 732 l 1
 559.44 732 l 1
 341.06 368.28 l 1
 554.44 0 l 1
 490.44 0 l 1
 303.28 317.86 l 1
 117.44 0 l 1
 53.44 0 l 1
 265.84 368.28 l 1
 50.44 732 l 1xa0
EndSplineSet
AlternateSubs2: "'salt' Access All Alternates in Latin lookup 4-1" X.salt
Substitution2: "'c2sc' Capitals to Small Capitals in Latin lookup 17 subtable" x.smcp
EndChar

StartChar: Z
Encoding: 90 90 51
Width: 558
VWidth: 0
Flags: HW
LayerCount: 2
Fore
SplineSet
39.08 0 m 1
 39.08 57 l 1
 447.66 675 l 1
 39.08 675 l 1
 39.08 732 l 1
 521.88 732 l 1
 521.88 675 l 1
 113.3 57 l 1
 521.88 57 l 1
 521.88 0 l 1
 39.08 0 l 1
EndSplineSet
Substitution2: "'c2sc' Capitals to Small Capitals in Latin lookup 17 subtable" z.smcp
EndChar

StartChar: Y
Encoding: 89 89 52
Width: 626
VWidth: 0
Flags: HW
LayerCount: 2
Fore
SplineSet
50.44 732 m 1
 113.08 732 l 1
 315.34 328.62 l 1
 537.6 732 l 1
 600.24 732 l 1
 343.84 260 l 1
 343.84 0 l 1
 286.84 0 l 1
 286.84 260 l 1
 50.44 732 l 1
EndSplineSet
Substitution2: "'c2sc' Capitals to Small Capitals in Latin lookup 17 subtable" y.smcp
EndChar

StartChar: AE
Encoding: 198 198 59
Width: 925
VWidth: 0
Flags: HW
LayerCount: 2
Fore
SplineSet
33.4 0 m 1
 357.92 599.24 l 2
 426.86 727.94 483.54 733.7 575.72 732 c 1
 878.04 718.04 l 1
 878.04 674.34 l 1
 575.72 674.34 l 2
 504.6 674.34 509.36 643.24 508.04 599.92 c 1
 508.04 389.52 l 1
 838.04 381.22 l 1
 838.04 337.52 l 1
 508.04 329.22 l 1
 508.04 121.68 l 2
 508.04 55.42 549.2 55.98 587.04 55.98 c 2
 877.38 55.32 l 1
 877.38 10.3 l 1
 587.04 -4.32 l 2
 521.72 -7.64 451.04 8 451.04 121 c 2
 451.04 235.5 l 1
 224.72 235.5 l 1
 97.06 0 l 1
 33.4 0 l 1
254.58 292.5 m 1
 451.04 292.5 l 1
 451.04 653.7 l 1
 254.58 292.5 l 1
EndSplineSet
EndChar

StartChar: Eth
Encoding: 208 208 61
Width: 661
VWidth: 0
Flags: HW
LayerCount: 2
Fore
SplineSet
24.52 352.8 m 1
 24.52 393.2 l 1
 89.52 393.2 l 1
 89.52 731.34 l 1
 89.52 732 312.72 732 352.32 732 c 1
 577.66 732 611.32 513 611.32 363 c 0
 611.32 197 542.6 0 352.32 0 c 2
 89.52 0 l 1
 89.52 352.8 l 1
 24.52 352.8 l 1
146.52 58.98 m 1
 352.32 58.98 l 2
 496.22 58.98 552.34 212.04 552.34 364 c 0
 552.34 582.84 473.92 671.7 352.32 671.7 c 2
 146.52 671.04 l 1
 146.52 393.2 l 1
 292.32 393.2 l 1
 292.32 352.8 l 1
 146.52 352.8 l 1
 146.52 58.98 l 1
EndSplineSet
Substitution2: "'c2sc' Capitals to Small Capitals in Latin lookup 17 subtable" eth.smcp
EndChar

StartChar: Oslash
Encoding: 216 216 76
Width: 675
VWidth: 0
Flags: HW
LayerCount: 2
Fore
SplineSet
72.82 361 m 0
 72.82 704 178.72 737 350.72 737 c 0
 426.8 737 489.5 730.98 535.82 693.88 c 1
 560.56 732 l 1
 606.94 732 l 1
 564.3 666.04 l 1
 605.96 612.38 628.62 520.04 628.62 361 c 0
 628.62 38 530.72 -4 350.72 -4 c 0
 270.66 -4 207.64 2.34 161.66 38.42 c 1
 136.6 0 l 1
 90.22 0 l 1
 132.84 66.92 l 1
 93.16 119.24 72.82 207.92 72.82 361 c 0
129.82 361 m 0
 129.82 240.08 141.2 166.64 168.3 121.6 c 1
 504.66 645.48 l 1
 468.28 677.62 416.52 680 350.72 680 c 0
 212.62 680 129.82 672.92 129.82 361 c 0
194.14 89.8 m 1
 229.18 60.36 279.26 53 350.72 53 c 0
 511.82 53 571.62 96.02 571.62 361 c 0
 571.62 490.54 558.24 567.3 531.16 613.34 c 1
 194.14 89.8 l 1
EndSplineSet
Substitution2: "'c2sc' Capitals to Small Capitals in Latin lookup 17 subtable" oslash.smcp
EndChar

StartChar: ae
Encoding: 230 230 88
Width: 877
VWidth: 0
Flags: HW
LayerCount: 2
Fore
SplineSet
44.76 129.96 m 2
 44.76 166.22 l 2
 44.76 247.92 95.1 299.22 177.76 299.22 c 2
 177.76 299.22 406.56 298.22 406.56 299.22 c 2
 406.56 299.22 407.56 389.96 406.56 390.96 c 1
 406.56 454.68 375.58 489.62 308.24 489.96 c 0
 236.24 490.3 158.7 483.6 61.76 474.22 c 1
 61.76 514.62 l 1
 124.7 533.9 211.22 543.96 310.56 544.96 c 0
 369.34 545.96 420.1 523.2 444.7 470.64 c 1
 475.92 526.88 537.6 538.62 629.36 538.62 c 0
 753 538.62 832.36 531.04 832.36 355.04 c 0
 832.36 277.36 787.96 241.54 695.36 241.54 c 2
 464.56 241.54 l 1
 463.88 94.44 477.7 56.3 582.56 55.62 c 0
 674.56 55.28 747.36 58.02 822.36 69.02 c 1
 822.36 26.62 l 1
 741.36 3.62 665.56 -1.38 582.56 -1.38 c 0
 480.94 -1.38 453.34 33.76 426.18 68.28 c 1
 424.18 68.28 271.14 -2.04 177.76 -2.04 c 0
 104.76 -2.04 44.76 44.96 44.76 129.96 c 2
101.76 134.96 m 2
 101.76 74.38 138.66 55.3 177.76 54.96 c 0
 257.76 54.28 406.56 111.4 406.56 111.4 c 1
 406.56 258.78 l 1
 177.76 246.18 l 2
 121.84 242.86 101.76 208.08 101.76 166.22 c 2
 101.76 134.96 l 2
464.56 297.54 m 1
 695.36 297.54 l 2
 745.82 297.54 775.36 309.46 775.36 355.04 c 0
 775.36 475.34 743.8 481.62 630.36 481.62 c 0
 505.46 481.62 465.24 468.04 464.56 297.54 c 1
EndSplineSet
Substitution2: "'smcp' Lowercase to Small Capitals lookup 16-1" ae.smcp
EndChar

StartChar: ccedilla
Encoding: 231 231 89
Width: 500
VWidth: 0
Flags: HW
LayerCount: 2
Fore
SplineSet
56.12 266 m 0
 56.12 498 128.78 537.32 230.78 537.32 c 3
 282.78 537.32 381.3 523.34 448.58 510 c 1
 448.58 469.6 l 1
 448.58 469.6 319.78 480.32 230.78 480.32 c 3
 160.24 480.32 113.12 460.18 113.12 262 c 3
 113.12 90.98 154.02 50.68 230.78 50.68 c 3
 322.78 50.68 455.92 65.08 455.92 65.08 c 1
 455.92 22.68 l 17
 374.92 -0.32 313.78 -5.32 230.78 -6.32 c 0
 131.78 -6.32 56.12 33 56.12 266 c 0
169.56 -145.52 m 25
 215.76 -133.92 l 17
 252.26 -123.28 265.44 -98.12 264.76 -36.32 c 1
 314.76 -36.32 l 17
 314.76 -137.64 294.78 -172.32 213.76 -172.32 c 2
 169.56 -172.32 l 9
 169.56 -145.52 l 25
EndSplineSet
Substitution2: "'smcp' Lowercase to Small Capitals lookup 16-1" ccedilla.smcp
EndChar

StartChar: eth
Encoding: 240 240 98
Width: 538
VWidth: 0
Flags: HW
LayerCount: 2
Fore
SplineSet
44.76 264 m 0
 44.76 434 87.76 531 222.76 531 c 2
 312.56 531 l 2
 346.1 531 394.06 515.02 406.36 498.66 c 1
 393.38 548.74 370.04 613.04 322.84 660.24 c 1
 172.4 600.2 l 1
 154.86 644.56 l 1
 279.16 694.34 l 1
 235.14 722.78 182.76 733.94 128.76 732.96 c 1
 128.76 783 l 1
 222.12 783 287.46 759.58 339.46 717.2 c 1
 460.86 765.56 l 1
 479.4 721.2 l 1
 377.86 681.12 l 1
 476.84 564.92 492.56 378.7 492.56 264 c 0
 492.56 65 419.56 0 312.56 0 c 2
 222.76 0 l 2
 85.76 0 44.76 85 44.76 264 c 0
101.76 264 m 0
 101.76 77.52 151.5 59 222.76 59 c 2
 312.56 59 l 2
 411.5 59 435.56 141.58 435.56 264 c 0
 435.56 400.4 416.62 474 312.56 474 c 2
 222.76 474 l 2
 148.94 474 101.76 440.92 101.76 264 c 0
EndSplineSet
Substitution2: "'smcp' Lowercase to Small Capitals lookup 16-1" eth.smcp
EndChar

StartChar: oslash
Encoding: 248 248 105
Width: 569
VWidth: 0
Flags: HW
LayerCount: 2
Fore
SplineSet
56.12 258 m 0
 56.12 475 115.78 536 284.68 536 c 0
 348.42 536 395.78 526.28 430.44 503.86 c 1
 450.88 531 l 1
 500.56 531 l 1
 461.56 478.34 l 1
 499.92 434.32 513.92 363.3 513.92 258 c 0
 513.92 62.02 459.94 -5 284.68 -5 c 0
 214.62 -5 164.94 6.36 129.62 31.42 c 1
 106.56 0 l 1
 60.18 0 l 1
 101.8 57.26 l 1
 67.78 99.26 56.12 164.28 56.12 258 c 0
113.12 258 m 0
 113.12 185.78 122.16 138.68 139.58 108.3 c 1
 396.64 457.14 l 1
 369.24 475.3 331.8 479 284.68 479 c 0
 169.96 479 113.12 462.6 113.12 258 c 0
164.42 78.48 m 1
 192.8 55.7 233.88 52 284.68 52 c 0
 399.48 52 456.92 72.46 456.92 258 c 0
 456.92 344.82 446.52 397.92 425.44 430.3 c 1
 164.42 78.48 l 1
EndSplineSet
Substitution2: "'smcp' Lowercase to Small Capitals lookup 16-1" oslash.smcp
EndChar

StartChar: thorn
Encoding: 254 254 106
Width: 556
VWidth: 0
Flags: HW
LayerCount: 2
Fore
SplineSet
78.16 -270 m 1
 78.16 782 l 1
 135.16 782 l 1
 135.16 471 l 17
 161.16 490 269.3 540 337.3 540 c 3
 473.3 540 511.96 403 511.96 267 c 0
 511.96 133 491.3 -10 337.3 -10 c 3
 292.3 -10 199.16 3 135.16 29 c 1
 135.16 -270 l 1
 78.16 -270 l 1
135.16 73.36 m 1
 217.16 50.36 273.42 48.98 337.3 47 c 1
 414.28 47 454.96 100.6 454.96 269 c 0
 454.96 410.66 408.14 483 337.3 483 c 1
 270.26 480.36 197.16 453.94 135.16 429.94 c 1
 135.16 73.36 l 1
EndSplineSet
Substitution2: "'smcp' Lowercase to Small Capitals lookup 16-1" thorn.smcp
EndChar

StartChar: Thorn
Encoding: 222 222 113
Width: 555
VWidth: 0
Flags: HW
LayerCount: 2
Fore
SplineSet
67.14 0 m 1
 67.14 243 67.14 486 67.14 729 c 1
 124.14 729 l 1
 124.14 588 l 1
 327.94 588 l 2
 406.94 587.34 503.94 554 503.94 375 c 0
 503.94 171 401.94 149 327.94 149 c 0
 279.36 149.34 220.52 147.4 124.14 164.94 c 1
 124.14 0 l 1
 67.14 0 l 1
124.14 206 m 2
 327.94 206 l 2
 394.22 205.34 446.28 235.84 446.28 377 c 1
 444.96 518.88 373.48 530 327.94 530.34 c 1
 124.14 530.34 l 1
 124.14 206 l 2
EndSplineSet
Substitution2: "'c2sc' Capitals to Small Capitals in Latin lookup 17 subtable" thorn.smcp
EndChar

StartChar: uni00B5
Encoding: 181 181 114
Width: 602
VWidth: 0
Flags: HW
LayerCount: 2
Fore
SplineSet
100.88 161.34 m 1
 100.88 531.34 l 1
 157.88 531.34 l 1
 157.88 161.34 l 2
 157.88 90.92 200.96 48.34 264.88 48.34 c 0
 347.6 48.34 391.7 68.68 467.68 106.7 c 1
 467.68 531.34 l 1
 524.68 531.34 l 1
 524.68 0.34 l 1
 485.6 0.34 l 1
 467.68 62.34 l 1
 407.7 26.32 345.88 -8.66 264.88 -8.66 c 0
 218.68 -8.66 182.56 8.16 157.88 34.02 c 1
 157.88 -270 l 1
 100.88 -270 l 1
 100.88 161.34 l 1
EndSplineSet
EndChar

StartChar: germandbls
Encoding: 223 223 115
Width: 568
VWidth: 0
Flags: HW
LayerCount: 2
Fore
SplineSet
67.14 0 m 1
 67.14 566 l 2
 67.14 682 143.04 777 285.04 777 c 3
 580.04 777 532.14 536.44 423.14 460.44 c 1
 360.7 410.38 320.94 392.08 320.94 348 c 1
 320.94 265.02 546.6 328.32 546.94 179 c 1
 546.94 132 l 2
 547.6 29.12 462.82 -8 388.94 -8 c 3
 320.94 -8 252.92 4.62 215.94 9.64 c 9
 215.94 54 l 17
 255.26 53.32 322.58 49 391.58 49 c 3
 456.74 49 488.62 90.98 489.94 132 c 2
 489.94 179 l 1
 490.62 272.32 263.94 201.02 263.94 348 c 3
 263.94 408.94 289.02 431.88 389.02 504.52 c 0
 421.36 528.18 445.82 565.96 449.22 609.96 c 1
 456.7 692.08 378.5 720 285.04 720 c 3
 193.8 720 124.14 673.46 124.14 566 c 2
 124.14 0 l 1
 67.14 0 l 1
EndSplineSet
Substitution2: "'smcp' Lowercase to Small Capitals lookup 16-1" germandbls.smcp
EndChar

StartChar: asciitilde
Encoding: 126 126 116
Width: 449
VWidth: 0
Flags: HW
LayerCount: 2
Fore
SplineSet
56.12 572 m 17
 94.08 603.98 121.14 636.6 169.38 636.6 c 3
 211.68 636.6 244.9 588.68 282.18 588.68 c 3
 321.18 588.68 352.58 616.08 377.56 633.1 c 9
 394.12 603 l 17
 365.08 575.28 331.44 534.4 282.18 534.4 c 3
 238.2 534.4 204.36 582.32 167.4 582.32 c 3
 128.74 582.32 107.34 560.3 71.34 542.22 c 9
 56.12 572 l 17
EndSplineSet
EndChar

StartChar: asciicircum
Encoding: 94 94 117
Width: 397
VWidth: 0
Flags: HW
LayerCount: 2
Fore
SplineSet
56.12 531 m 1
 178.22 661 l 1
 231.88 661 l 1
 341.32 531 l 1
 288.34 531 l 1
 204.06 616.96 l 1
 109.76 531 l 1
 56.12 531 l 1
178.22 661 m 1
231.88 661 m 1
EndSplineSet
EndChar

StartChar: grave
Encoding: 96 96 118
Width: 228
VWidth: 0
Flags: HW
LayerCount: 2
Fore
SplineSet
22.38 664 m 25
 93.92 664 l 25
 205.68 531 l 25
 155.38 531 l 25
 22.38 664 l 25
EndSplineSet
Substitution2: "'smcp' Lowercase to Small Capitals lookup 16-1" grave.smcp
EndChar

StartChar: dieresis
Encoding: 168 168 119
Width: 445
VWidth: 0
Flags: HW
LayerCount: 2
Fore
SplineSet
56.12 582 m 0
 56.12 603.88 73.68 620.78 95.56 620.78 c 0
 117.44 620.78 134.34 603.88 134.34 582 c 0
 134.34 560.12 117.44 542.22 95.56 542.22 c 0
 73.68 542.22 56.12 560.12 56.12 582 c 0
310.78 582 m 0
 310.78 603.88 328.68 620.78 350.56 620.78 c 0
 372.44 620.78 389.34 603.88 389.34 582 c 0
 389.34 560.12 372.44 542.22 350.56 542.22 c 0
 328.68 542.22 310.78 560.12 310.78 582 c 0
EndSplineSet
Substitution2: "'smcp' Lowercase to Small Capitals lookup 16-1" dieresis.smcp
EndChar

StartChar: acute
Encoding: 180 180 120
Width: 228
VWidth: 0
Flags: HW
LayerCount: 2
Fore
SplineSet
22.38 531 m 25
 134.14 664 l 25
 205.68 664 l 25
 72.68 531 l 25
 22.38 531 l 25
EndSplineSet
Substitution2: "'smcp' Lowercase to Small Capitals lookup 16-1" acute.smcp
EndChar

StartChar: cedilla
Encoding: 184 184 121
Width: 257
VWidth: 0
Flags: HW
LayerCount: 2
Fore
SplineSet
56.12 -146.2 m 25
 101.98 -134.6 l 17
 138.48 -123.96 151.66 -98.8 150.98 -37 c 1
 200.98 -37 l 17
 200.98 -138.32 181 -173 99.98 -173 c 2
 56.12 -173 l 9
 56.12 -146.2 l 25
EndSplineSet
EndChar

StartChar: exclam
Encoding: 33 33 122
Width: 265
VWidth: 0
Flags: HW
LayerCount: 2
Fore
SplineSet
91.86 19.26 m 2
 91.86 77.96 l 2
 91.86 90.58 98.5 98.54 111.78 98.54 c 2
 151.82 98.54 l 2
 164.44 98.54 171.08 89.58 171.08 77.96 c 2
 171.08 19.26 l 2
 171.08 6.64 163.44 0 151.82 0 c 2
 111.78 0 l 2
 100.16 0 91.86 7.64 91.86 19.26 c 2
97.86 731 m 1
 164.08 731 l 1
 157.76 196 l 1
 104.18 196 l 1
 97.86 731 l 1
EndSplineSet
Substitution2: "'smcp' Lowercase to Small Capitals lookup 16-1" exclam.smcp
EndChar

StartChar: degree
Encoding: 176 176 123
Width: 314
VWidth: 0
Flags: HW
LayerCount: 2
Fore
SplineSet
56.12 632 m 0
 56.12 689 102.12 735 158.12 735 c 0
 214.12 735 258.78 689 258.78 632 c 0
 258.78 575 214.12 530 158.12 530 c 0
 102.12 530 56.12 575 56.12 632 c 0
91.9 632 m 27
 91.9 595.88 122 566.78 158.12 566.78 c 27
 194.24 566.78 223 595.88 223 632 c 27
 223 668.12 194.24 698.22 158.12 698.22 c 27
 122 698.22 91.9 668.12 91.9 632 c 27
EndSplineSet
Substitution2: "'smcp' Lowercase to Small Capitals lookup 16-1" degree.smcp
EndChar

StartChar: period
Encoding: 46 46 124
Width: 238
VWidth: 0
Flags: W
HStem: 0 98.54<79.5661 158.78>
VStem: 79.56 79.22<0 98.54>
LayerCount: 2
Fore
SplineSet
79.56 19.26 m 2
 79.56 77.96 l 2
 79.56 90.58 86.2 98.54 99.48 98.54 c 2
 138.2 98.54 l 2
 152.8 98.54 158.78 90.9 158.78 77.96 c 2
 158.78 19.26 l 2
 158.78 4.66 149.82 0 138.2 0 c 2
 99.48 0 l 2
 87.86 0 79.56 7.64 79.56 19.26 c 2
EndSplineSet
EndChar

StartChar: periodcentered
Encoding: 183 183 125
Width: 269
VWidth: 0
Flags: HW
LayerCount: 2
Fore
SplineSet
95.2 361.48 m 2
 95.2 403.18 l 2
 95.2 415.8 101.84 423.76 115.12 423.76 c 2
 153.84 423.76 l 2
 168.44 423.76 174.42 416.12 174.42 403.18 c 2
 174.42 361.48 l 2
 174.42 346.88 165.46 342.22 153.84 342.22 c 2
 115.12 342.22 l 2
 103.5 342.22 95.2 349.86 95.2 361.48 c 2
EndSplineSet
Substitution2: "'smcp' Lowercase to Small Capitals lookup 16-1" periodcentered.smcp
EndChar

StartChar: comma
Encoding: 44 44 126
Width: 236
VWidth: 0
Flags: HW
LayerCount: 2
Fore
SplineSet
79.56 20.92 m 2
 79.56 77.64 l 2
 79.56 92.58 86.86 99.88 100.14 99.88 c 2
 137.2 99.88 l 2
 152.14 99.88 157.12 90.26 157.12 77.64 c 2
 157.12 -19.84 l 2
 157.12 -96.14 83.54 -81.2 83.54 -81.2 c 1
 83.54 -58.04 l 0
 108.44 -58.7 109.44 -41.78 109.44 -32.48 c 2
 109.44 0 l 1
 100.14 0 l 2
 88.52 0 79.56 6.98 79.56 20.92 c 2
EndSplineSet
EndChar

StartChar: bullet
Encoding: 256 8226 127
Width: 315
VWidth: 0
Flags: HW
LayerCount: 2
Fore
SplineSet
95.2 349.5 m 2
 95.2 412.5 l 2
 95.2 433.5 106.2 447.5 128.2 447.5 c 2
 185.2 447.5 l 2
 210.2 447.5 220.2 434.5 220.2 412.5 c 2
 220.2 349.5 l 2
 220.2 325.5 205.2 317.5 185.2 317.5 c 2
 128.2 317.5 l 2
 108.2 317.5 95.2 329.5 95.2 349.5 c 2
EndSplineSet
Substitution2: "'smcp' Lowercase to Small Capitals lookup 16-1" bullet.smcp
EndChar

StartChar: quoteleft
Encoding: 257 8216 128
Width: 235
VWidth: 0
Flags: HW
LayerCount: 2
Fore
SplineSet
74.8319 567.88 m 2
 74.8319 668.58 l 2
 74.8319 753.88 156.392 736.94 156.392 736.94 c 1
 156.392 711.46 l 0
 128.492 712.46 127.492 692.86 127.492 682.56 c 2
 127.492 651.5 l 1
 137.792 651.5 l 2
 150.412 651.5 161.372 644.18 161.372 628.24 c 2
 161.372 567.88 l 2
 161.372 550.94 153.072 542.64 137.792 542.64 c 2
 96.7519 542.64 l 2
 79.8119 542.64 74.8319 554.26 74.8319 567.88 c 2
EndSplineSet
Substitution2: "'smcp' Lowercase to Small Capitals lookup 16-1" quoteleft.smcp
EndChar

StartChar: quoteright
Encoding: 258 8217 129
Width: 235
VWidth: 0
Flags: HW
LayerCount: 2
Fore
SplineSet
74.6281 652.66 m 2
 74.9681 713.36 l 2
 75.0265 730.3 83.2681 738.6 98.5481 738.6 c 2
 139.248 738.6 l 2
 156.188 738.6 161.537 726.98 161.508 713.36 c 2
 161.168 612.32 l 2
 161.168 527.02 79.6081 543.64 79.6081 543.64 c 1
 79.6081 569.12 l 0
 107.508 568.12 108.508 588.04 108.508 598.34 c 2
 108.508 629.08 l 1
 98.2081 629.08 l 2
 85.5881 629.08 74.6281 636.72 74.6281 652.66 c 2
EndSplineSet
Substitution2: "'smcp' Lowercase to Small Capitals lookup 16-1" quoteright.smcp
EndChar

StartChar: quotesinglbase
Encoding: 259 8218 130
Width: 235
VWidth: 0
Flags: HW
LayerCount: 2
Fore
SplineSet
74.8319 22.92 m 2
 74.8319 83.28 l 2
 74.8319 100.22 83.1319 108.86 98.4119 108.86 c 2
 139.112 108.86 l 2
 156.052 108.86 161.372 96.9 161.372 83.28 c 2
 161.372 -17.42 l 2
 161.372 -103.38 79.8119 -86.44 79.8119 -86.44 c 1
 79.8119 -60.96 l 0
 107.712 -61.96 108.712 -41.7 108.712 -31.4 c 2
 108.712 -0.66 l 1
 98.4119 -0.66 l 2
 85.7919 -0.66 74.8319 6.98 74.8319 22.92 c 2
EndSplineSet
Substitution2: "'smcp' Lowercase to Small Capitals lookup 16-1" quotesinglbase.smcp
EndChar

StartChar: quotedblright
Encoding: 260 8221 131
Width: 362
VWidth: 0
Flags: HW
LayerCount: 2
Fore
SplineSet
68.3761 652.66 m 2
 68.3761 713.36 l 2
 68.3761 730.3 76.0161 738.6 91.2961 738.6 c 2
 131.996 738.6 l 2
 148.936 738.6 154.916 726.98 154.916 713.36 c 2
 154.916 612.32 l 2
 154.916 527.02 72.6961 543.64 72.6961 543.64 c 1
 72.6961 569.12 l 0
 100.596 568.12 101.256 588.04 101.256 598.34 c 2
 101.256 629.08 l 1
 91.2961 629.08 l 2
 78.6761 629.08 68.3761 636.72 68.3761 652.66 c 2
207.936 652.66 m 2
 207.936 713.36 l 2
 207.936 730.3 216.236 738.6 231.516 738.6 c 2
 272.556 738.6 l 2
 289.496 738.6 294.476 726.98 294.476 713.36 c 2
 294.476 612.32 l 2
 294.476 527.02 212.916 543.64 212.916 543.64 c 1
 212.916 569.12 l 0
 240.816 568.12 241.816 588.04 241.816 598.34 c 2
 241.816 629.08 l 1
 231.516 629.08 l 2
 218.896 629.08 207.936 636.72 207.936 652.66 c 2
EndSplineSet
Substitution2: "'smcp' Lowercase to Small Capitals lookup 16-1" quotedblright.smcp
EndChar

StartChar: quotedblbase
Encoding: 261 8222 132
Width: 362
VWidth: 0
Flags: HW
LayerCount: 2
Fore
SplineSet
68.3761 23.6 m 2
 68.3761 83.96 l 2
 68.3761 100.9 76.0161 109.54 91.2961 109.54 c 2
 131.996 109.54 l 2
 148.936 109.54 154.916 97.58 154.916 83.96 c 2
 154.916 -16.74 l 2
 154.916 -102.7 72.6961 -85.76 72.6961 -85.76 c 1
 72.6961 -60.28 l 0
 100.596 -61.28 101.256 -41.02 101.256 -30.72 c 2
 101.256 0.02 l 1
 91.2961 0.02 l 2
 78.6761 0.02 68.3761 7.66 68.3761 23.6 c 2
207.936 23.6 m 2
 207.936 83.96 l 2
 207.936 100.9 216.236 109.54 231.516 109.54 c 2
 272.556 109.54 l 2
 289.496 109.54 294.476 97.58 294.476 83.96 c 2
 294.476 -16.74 l 2
 294.476 -102.7 212.916 -85.76 212.916 -85.76 c 1
 212.916 -60.28 l 0
 240.816 -61.28 241.816 -41.02 241.816 -30.72 c 2
 241.816 0.02 l 1
 231.516 0.02 l 2
 218.896 0.02 207.936 7.66 207.936 23.6 c 2
EndSplineSet
Substitution2: "'smcp' Lowercase to Small Capitals lookup 16-1" quotedblbase.smcp
EndChar

StartChar: colon
Encoding: 58 58 133
Width: 239
VWidth: 0
Flags: HW
LayerCount: 2
Fore
SplineSet
79.56 19.26 m 2
 79.56 77.96 l 2
 79.56 90.58 86.2 98.54 99.48 98.54 c 2
 138.2 98.54 l 2
 152.8 98.54 158.78 90.9 158.78 77.96 c 2
 158.78 19.26 l 2
 158.78 4.66 149.82 0 138.2 0 c 2
 99.48 0 l 2
 87.86 0 79.56 7.64 79.56 19.26 c 2
79.56 451.7 m 2
 79.56 510.74 l 2
 79.56 523.36 86.2 531.32 99.48 531.32 c 2
 138.2 531.32 l 2
 152.8 531.32 158.78 523.68 158.78 510.74 c 2
 158.78 451.7 l 2
 158.78 437.1 149.82 432.78 138.2 432.78 c 2
 99.48 432.78 l 2
 87.86 432.78 79.56 440.08 79.56 451.7 c 2
EndSplineSet
EndChar

StartChar: semicolon
Encoding: 59 59 134
Width: 239
VWidth: 0
Flags: HW
LayerCount: 2
Fore
SplineSet
79.56 20.92 m 2
 79.56 77.64 l 2
 79.56 89.94 87.52 99.88 100.14 99.88 c 2
 137.2 99.88 l 2
 150.16 99.88 157.12 90.26 157.12 77.64 c 2
 157.12 -19.84 l 2
 157.12 -96.14 83.54 -81.2 83.54 -81.2 c 1
 83.54 -58.04 l 0
 108.44 -58.7 109.44 -41.78 109.44 -32.48 c 2
 109.44 0 l 1
 100.14 0 l 2
 88.52 0 79.56 10.28 79.56 20.92 c 2
80.88 452.36 m 2
 80.88 511.4 l 2
 80.88 524.02 87.52 531.98 100.8 531.98 c 2
 139.52 531.98 l 2
 154.12 531.98 160.1 524.34 160.1 511.4 c 2
 160.1 452.36 l 2
 160.1 437.76 151.14 433.44 139.52 433.44 c 2
 100.8 433.44 l 2
 89.18 433.44 80.88 440.74 80.88 452.36 c 2
EndSplineSet
EndChar

StartChar: quotedbl
Encoding: 34 34 135
Width: 339
VWidth: 0
Flags: HW
LayerCount: 2
Fore
SplineSet
79.56 665 m 1
 79.56 732 l 1
 137.56 732 l 1
 137.56 665 l 1
 128.92 531 l 1
 89.2 531 l 1
 79.56 665 l 1
202.66 665 m 1
 202.66 732 l 1
 260.66 732 l 1
 260.66 665 l 1
 252.02 531 l 1
 212.3 531 l 1
 202.66 665 l 1
EndSplineSet
Substitution2: "'smcp' Lowercase to Small Capitals lookup 16-1" quotedbl.smcp
EndChar

StartChar: exclamdown.alt
Encoding: 262 -1 136
Width: 265
VWidth: 0
Flags: HW
LayerCount: 2
Fore
SplineSet
91.86 653.04 m 2
 91.86 711.74 l 2
 91.86 724.36 99.5 731 111.12 731 c 2
 151.16 731 l 2
 162.78 731 171.08 723.36 171.08 711.74 c 2
 171.08 653.04 l 2
 171.08 640.42 164.44 632.46 151.16 632.46 c 2
 111.12 632.46 l 2
 98.5 632.46 91.86 641.42 91.86 653.04 c 2
98.86 0 m 1
 105.18 535 l 1
 158.76 535 l 1
 165.08 0 l 1
 98.86 0 l 1
EndSplineSet
EndChar

StartChar: zero
Encoding: 48 48 137
Width: 649
VWidth: 0
Flags: W
HStem: 0 57<173.615 479.377> 675 57<175.588 477.511>
VStem: 78.16 57<94.0704 636.353> 514.3 57<90.6224 639.462>
LayerCount: 2
Fore
SplineSet
78.16 162 m 10
 78.16 570 l 2
 78.16 678 155.16 732 250.16 732 c 2
 403.96 732 l 2
 525.96 732 571.3 657.7 571.3 570 c 26
 571.3 162 l 18
 571.3 43 502.96 0 403.96 0 c 2
 250.16 0 l 2
 159.16 0 78.16 42 78.16 162 c 10
135.16 162 m 2
 135.16 86.5 187.88 57 250.16 57 c 10
 403.96 57 l 18
 481.56 57 514.3 97.46 514.3 162 c 2
 514.3 570 l 2
 514.3 630.96 485.44 675 403.96 675 c 2
 250.16 675 l 2
 173.7 675 135.16 631.6 135.16 570 c 2
 135.16 162 l 2
EndSplineSet
Substitution2: "'dnom' Denominators lookup 0 subtable" zero.denominator
Substitution2: "'sups' Superscript lookup 2 subtable" zerosuperior
Substitution2: "'onum' Oldstyle Figures in Latin lookup 5-1" zero.oldstyle
Substitution2: "'tnum' Tabular Numbers in Latin lookup 7-1" zero.tnum
Substitution2: "'numr' Numerators lookup 9 subtable" zero.numerator
Substitution2: "'zero' Slashed Zero lookup 20-1" uni0338
Substitution2: "'sinf' Scientific Inferiors lookup 3-1" zeroinferior
Substitution2: "'frac' Diagonal Fractions lookup 13-1" zero.numerator
Substitution2: "'smcp' Lowercase to Small Capitals lookup 16-1" zero.smcp
EndChar

StartChar: one
Encoding: 49 49 138
Width: 359
VWidth: 0
Flags: W
HStem: 0 21G<212.76 269.76> 0 21G<212.76 269.76> 712 20G<173.231 269.76>
VStem: 212.76 57<0 667.38>
LayerCount: 2
Fore
SplineSet
44.76 607.6 m 1xb0
 44.76 647 l 1
 212.76 732 l 1
 269.76 732 l 1
 269.76 0 l 1
 212.76 0 l 1
 212.76 667.38 l 1
 44.76 607.6 l 1xb0
EndSplineSet
Substitution2: "'dnom' Denominators lookup 0 subtable" one.denominator
Substitution2: "'sups' Superscript lookup 2 subtable" onesuperior
Substitution2: "'onum' Oldstyle Figures in Latin lookup 5-1" one.oldstyle
Substitution2: "'tnum' Tabular Numbers in Latin lookup 7-1" one.tnum
Substitution2: "'numr' Numerators lookup 9 subtable" one.numerator
Substitution2: "'sinf' Scientific Inferiors lookup 3-1" oneinferior
Substitution2: "'frac' Diagonal Fractions lookup 13-1" one.numerator
Substitution2: "'smcp' Lowercase to Small Capitals lookup 16-1" one.smcp
EndChar

StartChar: two
Encoding: 50 50 139
Width: 597
VWidth: 0
Flags: W
HStem: 0 57<159.4 541.56> 684 58<116.361 421.803> 684 41.4<44.76 250.885>
VStem: 483.56 58<455.018 623.955>
LayerCount: 2
Fore
SplineSet
44.76 684 m 2xb0
 44.76 725.4 l 1xb0
 147.1 738.4 247.96 742 338.56 742 c 3
 484.24 742 541.56 641.48 541.56 532 c 3
 541.56 341.1 224.26 102.6 159.4 57 c 9
 541.56 57 l 25
 541.56 0 l 25
 51.76 0 l 25
 51.76 52.7 l 17
 157.02 128.4 483.56 367.66 483.56 533.66 c 3
 483.56 629.1 435 684 337.22 684 c 2xd0
 44.76 684 l 2xb0
EndSplineSet
Substitution2: "'dnom' Denominators lookup 0 subtable" two.denominator
Substitution2: "'sups' Superscript lookup 2 subtable" twosuperior
Substitution2: "'onum' Oldstyle Figures in Latin lookup 5-1" two.oldstyle
Substitution2: "'tnum' Tabular Numbers in Latin lookup 7-1" two.tnum
Substitution2: "'numr' Numerators lookup 9 subtable" two.numerator
Substitution2: "'sinf' Scientific Inferiors lookup 3-1" twoinferior
Substitution2: "'frac' Diagonal Fractions lookup 13-1" two.numerator
Substitution2: "'smcp' Lowercase to Small Capitals lookup 16-1" two.smcp
EndChar

StartChar: three
Encoding: 51 51 140
Width: 596
VWidth: 0
Flags: W
HStem: -7 58<112.21 417.06> 15.22 35.78<40.74 138.565> 334.84 58.68<145.653 406.863> 341.84 43.04<101.4 290.287> 677 57<120.554 411.623> 677 35.12<33.4 125.144>
VStem: 455.54 57<88.7656 287.574 434.502 636.816>
LayerCount: 2
Fore
SplineSet
33.4 677 m 1x06
 33.4 712.12 l 1x06
 111.88 736.32 224.2 736 341.2 734 c 0
 454.26 732 512.54 661 512.54 569 c 2
 512.54 500 l 2
 512.54 416.12 464.78 375.58 428.18 364.34 c 1
 466.12 345.48 512.54 305.52 512.54 220 c 1
 512.54 161 l 2
 512.54 52 456.54 -7 334.54 -7 c 0x8a
 220.54 -7 110.74 -7.96 39.4 15.22 c 1
 40.74 51 l 1x42
 329.9 51 l 2
 391.74 51 453.54 65.78 453.54 161 c 2
 453.54 220 l 2
 453.54 305.48 389.56 332.84 334.54 334.84 c 2xa2
 101.4 341.84 l 2
 101.4 384.88 l 1x12
 334.54 393.52 l 1
 406.6 395.84 455.54 430.84 455.54 500 c 2
 455.54 569 l 2
 455.54 645.56 398.1 677 335.9 677 c 2x2a
 33.4 677 l 1x06
EndSplineSet
Substitution2: "'dnom' Denominators lookup 0 subtable" three.denominator
Substitution2: "'sups' Superscript lookup 2 subtable" threesuperior
Substitution2: "'onum' Oldstyle Figures in Latin lookup 5-1" three.oldstyle
Substitution2: "'tnum' Tabular Numbers in Latin lookup 7-1" three.tnum
Substitution2: "'numr' Numerators lookup 9 subtable" three.numerator
Substitution2: "'sinf' Scientific Inferiors lookup 3-1" threeinferior
Substitution2: "'frac' Diagonal Fractions lookup 13-1" three.numerator
Substitution2: "'smcp' Lowercase to Small Capitals lookup 16-1" three.smcp
EndChar

StartChar: four
Encoding: 52 52 141
Width: 593
VWidth: 0
Flags: W
HStem: 195.5 59.64<108.14 424.1 481.1 520.623> 211.44 43.7<531.577 571.1> 712 20G<326.06 405.88>
VStem: 424.1 57<2 195.5 255.14 472>
DStem2: 22.38 228.42 108.14 255.14 0.531815 0.846861<68.2365 594.643>
LayerCount: 2
Fore
SplineSet
22.38 228.42 m 1xb0
 338.62 732 l 1
 405.88 732 l 1
 108.14 255.14 l 1
 424.1 255.14 l 1xb0
 424.1 472 l 1
 451.92 547 l 1
 481.1 547 l 1
 481.1 255.14 l 1
 571.1 255.14 l 1
 571.1 211.44 l 1x70
 481.1 195.5 l 1
 481.1 2 l 1
 424.1 2 l 1
 424.1 195.5 l 1
 48.9 195.5 l 1
 22.38 228.42 l 1xb0
EndSplineSet
Substitution2: "'dnom' Denominators lookup 0 subtable" four.denominator
Substitution2: "'sups' Superscript lookup 2 subtable" foursuperior
Substitution2: "'onum' Oldstyle Figures in Latin lookup 5-1" four.oldstyle
Substitution2: "'tnum' Tabular Numbers in Latin lookup 7-1" four.tnum
Substitution2: "'numr' Numerators lookup 9 subtable" four.numerator
Substitution2: "'sinf' Scientific Inferiors lookup 3-1" fourinferior
Substitution2: "'frac' Diagonal Fractions lookup 13-1" four.numerator
Substitution2: "'smcp' Lowercase to Small Capitals lookup 16-1" four.smcp
EndChar

StartChar: five
Encoding: 53 53 142
Width: 618
VWidth: 0
Flags: W
HStem: -4 60.3<162.881 454.611> 15.24 41.06<85.18 291.104> 383.9 57<173.081 460.571> 675 57<161.54 531.18>
VStem: 86.84 51.72<291.9 350.069> 108.84 52.7<591.968 675> 495.84 57<99.4382 349.187>
LayerCount: 2
Fore
SplineSet
85.18 15.24 m 1x76
 85.18 56.3 l 1
 389.18 56.3 l 2
 458.52 56.3 495.84 104.96 495.84 168 c 2
 495.84 272.9 l 2
 495.84 311.68 490.42 383.9 388.84 383.9 c 2
 235.18 383.9 l 2
 189.04 383.9 138.56 349.98 138.56 291.9 c 1
 86.84 291.9 l 1xba
 108.84 732 l 17
 531.18 732 l 1
 531.18 675 l 1
 161.54 675 l 25
 147.84 398.66 l 1
 159.8 414.98 193.24 438.26 238.84 440.9 c 1
 299.3 445.52 358.18 440.9 389.18 440.9 c 0
 507.18 440.9 552.84 371.9 552.84 274.9 c 2
 552.84 166 l 2
 552.84 29 451.18 -4 389.18 -4 c 3xb6
 265.18 -4 198.1 -3.34 85.18 15.24 c 1x76
EndSplineSet
Substitution2: "'dnom' Denominators lookup 0 subtable" five.denominator
Substitution2: "'sups' Superscript lookup 2 subtable" fivesuperior
Substitution2: "'onum' Oldstyle Figures in Latin lookup 5-1" five.oldstyle
Substitution2: "'tnum' Tabular Numbers in Latin lookup 7-1" five.tnum
Substitution2: "'numr' Numerators lookup 9 subtable" five.numerator
Substitution2: "'sinf' Scientific Inferiors lookup 3-1" fiveinferior
Substitution2: "'frac' Diagonal Fractions lookup 13-1" five.numerator
Substitution2: "'smcp' Lowercase to Small Capitals lookup 16-1" five.smcp
EndChar

StartChar: six
Encoding: 54 54 143
Width: 627
VWidth: 0
Flags: W
HStem: -1 57<202.995 477.921> 362.84 57.34<175.617 477.78> 362.84 39.74<129.82 334.035> 681 57<201.266 465.633> 681 41.4<330.874 536.62>
VStem: 72.82 57<165.572 362.84 402.58 565.872> 504.62 56<84.8688 335.324>
LayerCount: 2
Fore
SplineSet
72.82 384 m 0xc6
 72.82 646.62 158.76 738 244.82 738 c 0xd6
 345.82 738 453.18 733.36 536.62 722.4 c 1
 536.62 681 l 1x8e
 254.42 681 l 2
 151.18 681 131.14 496.1 129.82 402.58 c 1xb6
 214.82 412.58 325.62 420.18 399.62 420.18 c 0
 534.94 420.18 560.62 351.56 560.62 272.2 c 2
 560.62 148 l 2
 560.62 36 493.62 -1 399.62 -1 c 2
 260.82 -1 l 2
 151.82 -0.34 72.82 73.08 72.82 384 c 0xc6
129.82 362.84 m 1xa6
 129.82 247.76 139.26 56 260.82 56 c 2
 399.62 56 l 2
 454.36 56 504.62 69.06 504.62 151.28 c 2
 504.62 272.2 l 2
 504.62 348.16 455.82 362.84 399.62 362.84 c 2xc6
 129.82 362.84 l 1xa6
EndSplineSet
Substitution2: "'dnom' Denominators lookup 0 subtable" six.denominator
Substitution2: "'sups' Superscript lookup 2 subtable" sixsuperior
Substitution2: "'onum' Oldstyle Figures in Latin lookup 5-1" six.oldstyle
Substitution2: "'tnum' Tabular Numbers in Latin lookup 7-1" six.tnum
Substitution2: "'numr' Numerators lookup 9 subtable" six.numerator
Substitution2: "'sinf' Scientific Inferiors lookup 3-1" sixinferior
Substitution2: "'frac' Diagonal Fractions lookup 13-1" six.numerator
Substitution2: "'smcp' Lowercase to Small Capitals lookup 16-1" six.smcp
EndChar

StartChar: seven
Encoding: 55 55 144
Width: 542
VWidth: 0
Flags: W
HStem: 0 21G<185.1 260.088> 0 21G<185.1 260.088> 675 57<33.4 436.3>
DStem2: 185.1 0 252.7 0 0.346526 0.93804<23.4252 720.225>
LayerCount: 2
Fore
SplineSet
33.4 675 m 1xa0
 33.4 732 l 1
 485.26 732 l 1
 508.52 692.5 l 1
 252.7 0 l 1
 185.1 0 l 1
 436.3 675 l 1
 33.4 675 l 1xa0
EndSplineSet
Substitution2: "'dnom' Denominators lookup 0 subtable" seven.denominator
Substitution2: "'sups' Superscript lookup 2 subtable" sevensuperior
Substitution2: "'onum' Oldstyle Figures in Latin lookup 5-1" seven.oldstyle
Substitution2: "'tnum' Tabular Numbers in Latin lookup 7-1" seven.tnum
Substitution2: "'numr' Numerators lookup 9 subtable" seven.numerator
Substitution2: "'sinf' Scientific Inferiors lookup 3-1" seveninferior
Substitution2: "'frac' Diagonal Fractions lookup 13-1" seven.numerator
Substitution2: "'smcp' Lowercase to Small Capitals lookup 16-1" seven.smcp
EndChar

StartChar: percent
Encoding: 37 37 145
Width: 954
VWidth: 0
Flags: HW
LayerCount: 2
Fore
SplineSet
47.1 474 m 2
 47.1 607 l 2
 47.1 692 75.1 732 176.1 732 c 2
 277.1 732 l 2
 375.1 732 404.1 692 404.1 607 c 2
 404.1 474 l 18
 404.1 389 376.1 349 275.1 349 c 2
 174.1 349 l 2
 76.1 349 47.1 389 47.1 474 c 2
95.1 474 m 2
 95.1 412.42 116.56 397 174.1 397 c 2
 275.1 397 l 2
 339.56 397 356.1 414.04 356.1 474 c 10
 356.1 607 l 2
 356.1 665.86 337.36 684 277.1 684 c 2
 176.1 684 l 2
 110.96 684 95.1 666.96 95.1 607 c 2
 95.1 474 l 2
232.1 0 m 1
 670.1 732 l 1
 724.1 732 l 1
 286.1 0 l 1
 232.1 0 l 1
550.9 127.34 m 2
 550.9 260.34 l 2
 550.9 345.34 578.9 385.34 679.9 385.34 c 2
 780.9 385.34 l 2
 878.9 385.34 907.9 345.34 907.9 260.34 c 2
 907.9 127.34 l 18
 907.9 42.34 879.9 2.34 778.9 2.34 c 2
 677.9 2.34 l 2
 579.9 2.34 550.9 42.34 550.9 127.34 c 2
598.9 127.34 m 2
 598.9 65.76 620.36 50.34 677.9 50.34 c 2
 778.9 50.34 l 2
 843.36 50.34 859.9 67.38 859.9 127.34 c 10
 859.9 260.34 l 2
 859.9 319.2 841.16 337.34 780.9 337.34 c 2
 679.9 337.34 l 2
 614.76 337.34 598.9 320.3 598.9 260.34 c 2
 598.9 127.34 l 2
EndSplineSet
Substitution2: "'smcp' Lowercase to Small Capitals lookup 16-1" percent.smcp
EndChar

StartChar: nine
Encoding: 57 57 146
Width: 627
VWidth: 0
Flags: W
HStem: -2.7 57<159.858 426.494> 12.9 41.4<91.14 295.985> 315.12 57.34<149.98 452.143> 332.72 39.74<293.725 497.94> 679.3 57<149.839 424.765>
VStem: 67.14 56<399.976 650.431> 497.94 57<169.428 332.72 372.46 569.728>
LayerCount: 2
Fore
SplineSet
67.14 463.1 m 2x2e
 67.14 587.3 l 2
 67.14 699.3 134.14 736.3 228.14 736.3 c 2
 366.94 736.3 l 2
 475.94 735.64 554.94 662.22 554.94 351.3 c 0
 554.94 88.68 469 -2.7 382.94 -2.7 c 0xae
 281.94 -2.7 169.3 -1.36 91.14 12.9 c 1x4e
 91.14 54.3 l 1
 373.34 54.3 l 2
 476.58 54.3 496.62 239.2 497.94 332.72 c 1x9e
 412.94 322.72 302.14 315.12 228.14 315.12 c 0
 92.82 315.12 67.14 383.74 67.14 463.1 c 2x2e
123.14 463.1 m 2
 123.14 387.14 171.94 372.46 228.14 372.46 c 2x2e
 497.94 372.46 l 1x1e
 497.94 487.54 488.5 679.3 366.94 679.3 c 2
 228.14 679.3 l 2
 173.4 679.3 123.14 666.24 123.14 584.02 c 2
 123.14 463.1 l 2
EndSplineSet
Substitution2: "'dnom' Denominators lookup 0 subtable" nine.denominator
Substitution2: "'sups' Superscript lookup 2 subtable" ninesuperior
Substitution2: "'onum' Oldstyle Figures in Latin lookup 5-1" nine.oldstyle
Substitution2: "'tnum' Tabular Numbers in Latin lookup 7-1" nine.tnum
Substitution2: "'numr' Numerators lookup 9 subtable" nine.numerator
Substitution2: "'sinf' Scientific Inferiors lookup 3-1" nineinferior
Substitution2: "'frac' Diagonal Fractions lookup 13-1" nine.numerator
Substitution2: "'smcp' Lowercase to Small Capitals lookup 16-1" nine.smcp
EndChar

StartChar: eight
Encoding: 56 56 147
Width: 641
VWidth: 0
Flags: W
HStem: 0 57<174.448 464.211> 345.5 56<173.675 468.262> 680 57<173.379 466.093>
VStem: 83.84 57<90.4869 312.81 432.312 647.369> 500.64 57<91.542 316.383 432.975 646.995>
LayerCount: 2
Fore
SplineSet
83.84 154 m 2
 83.84 252.34 l 2
 83.84 327.02 134.28 352.8 173.94 361.38 c 1
 102.46 381 83.84 446 83.84 499 c 2
 83.84 564 l 2
 83.84 698 156.84 737 259.84 737 c 2
 395.64 737 l 2
 502.64 737 557.64 687 557.64 564 c 2
 557.64 499 l 2
 558.3 466.12 543.42 393.24 476.86 381.98 c 1
 536.3 368.58 558.3 301.8 557.64 252 c 2
 557.64 154 l 2
 557.64 24 458.64 0 394.64 0 c 2
 259.84 0 l 2
 87.84 0 83.84 113 83.84 154 c 2
140.84 151 m 2
 140.84 87.04 182.76 57 259.84 57 c 2
 394.64 57 l 2
 443.76 57 500.64 83.38 500.64 151 c 2
 500.64 256 l 2
 500.64 329.66 443.68 345.5 397.64 345.5 c 2
 248.84 345.5 l 2
 202.84 345.5 140.84 324.8 140.84 256 c 2
 140.84 151 l 2
140.84 494 m 2
 140.84 415.44 203.96 401.5 248.84 401.5 c 2
 397.64 401.5 l 2
 478.8 401.5 500.64 454.6 500.64 494 c 2
 500.64 562 l 2
 500.64 648.24 466.2 680 395.64 680 c 2
 259.84 680 l 2
 180.54 680 140.84 656.76 140.84 562 c 2
 140.84 494 l 2
EndSplineSet
Substitution2: "'dnom' Denominators lookup 0 subtable" eight.denominator
Substitution2: "'sups' Superscript lookup 2 subtable" eightsuperior
Substitution2: "'onum' Oldstyle Figures in Latin lookup 5-1" eight.oldstyle
Substitution2: "'tnum' Tabular Numbers in Latin lookup 7-1" eight.tnum
Substitution2: "'numr' Numerators lookup 9 subtable" eight.numerator
Substitution2: "'sinf' Scientific Inferiors lookup 3-1" eightinferior
Substitution2: "'frac' Diagonal Fractions lookup 13-1" eight.numerator
Substitution2: "'smcp' Lowercase to Small Capitals lookup 16-1" eight.smcp
EndChar

StartChar: quotesingle
Encoding: 39 39 148
Width: 160
VWidth: 0
Flags: HW
LayerCount: 2
Fore
SplineSet
51.3961 665 m 1
 51.3961 732 l 1
 109.396 732 l 1
 109.396 665 l 1
 100.756 531 l 1
 61.0361 531 l 1
 51.3961 665 l 1
EndSplineSet
Substitution2: "'smcp' Lowercase to Small Capitals lookup 16-1" quotesingle.smcp
EndChar

StartChar: onesuperior
Encoding: 185 185 149
Width: 265
VWidth: 133
Flags: HW
LayerCount: 2
Fore
SplineSet
18.04 774.6 m 1
 18.04 810 l 1
 146.04 865 l 1
 193.08 865 l 1
 193.08 389 l 1
 146.04 389 l 1
 146.04 813.34 l 1
 18.04 774.6 l 1
EndSplineSet
EndChar

StartChar: twosuperior
Encoding: 178 178 150
Width: 395
VWidth: 133
Flags: HW
LayerCount: 2
Fore
SplineSet
35.4 823.96 m 2
 33.4 823.96 34.4 859.72 35.4 858.72 c 1
 101.4 866.72 146.4 871 218.4 871 c 3
 316.4 871 348.4 813 348.4 735 c 3
 348.4 611.02 165.18 469.34 124.54 436.04 c 9
 347.4 436.04 l 25
 347.4 389 l 25
 38.4 389 l 25
 38.4 432.04 l 17
 105.4 486.04 299.04 621.38 299.04 732 c 3
 299.04 790.44 280.02 823.96 209.1 823.96 c 2
 35.4 823.96 l 2
EndSplineSet
EndChar

StartChar: threesuperior
Encoding: 179 179 151
Width: 416
VWidth: 133
Flags: HW
LayerCount: 2
Fore
SplineSet
33.4 819.62 m 1
 33.4 851.4 l 1
 86.66 867.66 152.74 866 228.74 866 c 0
 315.74 866 349.74 811.38 349.74 751.38 c 2
 349.74 716.38 l 2
 349.74 665.98 314.16 634.64 289.18 627.36 c 1
 314.14 614.78 349.74 585.76 349.74 532 c 2
 349.74 504 l 2
 349.74 433 322.4 385 223.4 385 c 0
 149.4 385 89.3 384.36 37.4 400.62 c 1
 38.06 431.38 l 1
 59.18 431.38 215.4 432.04 215.4 432.04 c 2
 278.92 432.04 302.36 451.08 302.36 508 c 2
 302.36 531 l 2
 302.36 585.06 260.18 606.14 219.4 607.14 c 2
 77.4 611.8 l 2
 77.4 646.22 l 1
 219.4 652.2 l 2
 270.18 654.2 303.7 679.26 303.7 722.66 c 2
 303.7 749.08 l 2
 303.7 802.3 268.82 819.62 222.12 819.62 c 2
 33.4 819.62 l 1
EndSplineSet
EndChar

StartChar: ordmasculine
Encoding: 186 186 152
Width: 386
VWidth: 0
Flags: HW
LayerCount: 2
Fore
SplineSet
33.4 550 m 0
 33.4 692 67.64 737 194.64 737 c 3
 321.64 737 353.2 692 353.2 550 c 0
 353.2 422 321.64 373 194.64 373 c 3
 67.64 373 33.4 422 33.4 550 c 0
44.74 277.8 m 1
 44.74 320.5 l 1
 342.56 320.5 l 1
 342.56 277.8 l 1
 44.74 277.8 l 1
79.76 550 m 0
 79.76 432.9 116 419.36 194.64 419.36 c 3
 273.54 419.36 305.52 428.52 306.84 550 c 0
 308.16 677.42 276.94 690.64 194.64 690.64 c 3
 112.74 690.64 79.76 682.48 79.76 550 c 0
EndSplineSet
Ligature2: "'ordn' Ordinals lookup 21-1" o
Substitution2: "'smcp' Lowercase to Small Capitals lookup 16-1" ordmasculine.smcp
EndChar

StartChar: ordfeminine
Encoding: 170 170 153
Width: 362
VWidth: 0
Flags: HW
LayerCount: 2
Fore
SplineSet
33.4 275.82 m 1
 33.4 318.52 l 1
 329.24 318.52 l 1
 329.24 275.82 l 1
 33.4 275.82 l 1
33.4 463 m 10
 33.4 509 l 2
 33.4 563 71.4 599 133.4 599 c 2
 133.4 599 280.88 598 280.88 599 c 0
 280.88 599 281.88 630 280.88 631 c 2
 280.88 676.16 254.48 695.28 203.9 695.28 c 0
 149.9 695.28 112.96 691.28 45.4 685.22 c 9
 45.4 716.34 l 17
 95.28 725.7 136.9 738 211.9 739 c 0
 274.58 740 327.24 709 327.24 636 c 2
 327.24 378 l 9
 297.44 378 l 25
 281.54 427 l 17
 279.54 427 194.78 374 133.4 374 c 27
 81.4 374 33.4 405 33.4 463 c 10
80.1 472.6 m 2
 80.1 434.1 105.24 420.36 139.4 420.36 c 0
 199.4 420.36 280.88 457.8 280.88 457.8 c 9
 280.88 565.9 l 17
 139.4 557.94 l 1
 105.36 555.96 80.1 540 80.1 503 c 2
 80.1 472.6 l 2
EndSplineSet
Ligature2: "'ordn' Ordinals lookup 21-1" a
Substitution2: "'smcp' Lowercase to Small Capitals lookup 16-1" ordfeminine.smcp
EndChar

StartChar: slash
Encoding: 47 47 154
Width: 384
VWidth: 0
Flags: HW
LayerCount: 2
Fore
SplineSet
22.38 -72 m 1
 303.38 770 l 1
 361.98 770 l 1
 80.98 -72 l 1
 22.38 -72 l 1
EndSplineSet
Substitution2: "'numr' Numerators lookup 9 subtable" fraction
Substitution2: "'frac' Diagonal Fractions lookup 12-1" fraction
EndChar

StartChar: backslash
Encoding: 92 92 155
Width: 384
VWidth: 0
Flags: HW
LayerCount: 2
Fore
SplineSet
22.38 770 m 1
 80.98 770 l 1
 361.98 -72 l 1
 303.38 -72 l 1
 22.38 770 l 1
EndSplineSet
EndChar

StartChar: bar
Encoding: 124 124 156
Width: 248
VWidth: 0
Flags: HW
LayerCount: 2
Fore
SplineSet
96.2 -72 m 1
 96.2 770 l 1
 153.2 770 l 1
 153.2 -72 l 1
 96.2 -72 l 1
EndSplineSet
EndChar

StartChar: underscore
Encoding: 95 95 157
Width: 668
VWidth: 0
Flags: HW
LayerCount: 2
Fore
SplineSet
22.38 -1 m 1
 22.38 56 l 1
 646.18 56 l 1
 646.18 -1 l 1
 22.38 -1 l 1
EndSplineSet
EndChar

StartChar: hyphen
Encoding: 45 45 158
Width: 348
VWidth: 0
Flags: HW
LayerCount: 2
Fore
SplineSet
22.38 261.5 m 1
 22.38 318.5 l 1
 326.18 318.5 l 1
 326.18 261.5 l 1
 22.38 261.5 l 1
EndSplineSet
Substitution2: "'case' Case-Sensitive Forms lookup 1-1" hyphen.alt
Substitution2: "'c2sc' Capitals to Small Capitals in Latin lookup 17 subtable" hyphen.smcp
Substitution2: "'smcp' Lowercase to Small Capitals lookup 16-1" hyphen.smcp
EndChar

StartChar: numbersign
Encoding: 35 35 159
Width: 675
VWidth: 0
Flags: HW
LayerCount: 2
Fore
SplineSet
22.38 238.12 m 1
 28.34 276.52 l 1
 194.14 276.52 l 1
 222.18 455.12 l 1
 56.38 455.12 l 1
 63.34 493.52 l 1
 228.14 493.52 l 1
 266.5 732 l 1
 304.9 732 l 1
 266.54 493.52 l 1
 439.34 493.52 l 1
 476.7 732 l 1
 515.1 732 l 1
 477.74 493.52 l 1
 654.74 493.52 l 1
 648.12 455.12 l 1
 470.78 455.12 l 1
 442.74 275.52 l 1
 619.74 275.52 l 1
 613.78 237.12 l 1
 436.78 237.12 l 1
 399.1 0 l 1
 360.7 0 l 1
 398.38 237.12 l 1
 225.58 238.12 l 1
 187.9 0 l 1
 149.5 0 l 1
 187.18 238.12 l 1
 22.38 238.12 l 1
232.54 276.52 m 1
 404.34 275.52 l 1
 432.38 455.12 l 1
 260.58 455.12 l 1
 232.54 276.52 l 1
EndSplineSet
Substitution2: "'smcp' Lowercase to Small Capitals lookup 16-1" numbersign.smcp
EndChar

StartChar: dollar
Encoding: 36 36 160
Width: 578
VWidth: 0
Flags: HW
LayerCount: 2
Fore
SplineSet
61.46 494 m 2
 61.46 560 l 1
 62.78 704.4 145.16 738.04 257.26 738 c 1
 257.26 824 l 1
 301.66 824 l 1
 301.66 735.68 l 1
 362.62 731.36 448.24 720.38 488.24 715.7 c 1
 488.24 673 l 1
 433.48 674.36 257.76 681.66 257.76 681.66 c 2
 175.86 685 118.46 665.54 118.46 560 c 2
 118.46 494 l 1
 118.46 407.2 173.48 387.5 237.08 387.5 c 2
 358.24 387.5 l 2
 494.54 387.5 516.94 306 516.94 224 c 2
 516.94 156 l 2
 516.94 14.6 409 -12.64 301.66 -8 c 1
 301.66 -89.32 l 1
 257.26 -89.32 l 1
 257.26 -4.36 l 1
 195.28 0.94 112.84 9.24 82.76 13.6 c 1
 82.76 55 l 1
 124.12 53.64 224 49 317 49 c 0
 377.04 49 459.94 61.44 459.94 156 c 2
 459.94 224 l 2
 459.94 290.52 435.14 330.5 358.24 330.5 c 2
 237.76 330.5 l 2
 88.04 330.5 61.46 417.72 61.46 494 c 2
EndSplineSet
Substitution2: "'smcp' Lowercase to Small Capitals lookup 16-1" dollar.smcp
EndChar

StartChar: zerosuperior
Encoding: 263 8304 161
Width: 482
VWidth: 133
Flags: HW
LayerCount: 2
Fore
SplineSet
67.14 498 m 2
 67.14 753 l 2
 67.14 837 113.14 863 184.14 863 c 2
 301.14 863 l 2
 384.14 863 414.14 820 414.14 753 c 10
 414.14 498 l 2
 414.14 402 365.14 388 301.14 388 c 2
 184.14 388 l 2
 125.14 388 67.14 398 67.14 498 c 2
114.84 502 m 2
 114.84 448.4 132.34 435.04 188.14 435.04 c 10
 297.14 435.04 l 18
 359.36 435.04 367.76 456.12 367.76 502 c 2
 367.76 749 l 2
 367.76 793.52 353.98 815.96 297.14 815.96 c 2
 188.14 815.96 l 2
 129.66 815.96 114.84 793.94 114.84 749 c 2
 114.84 502 l 2
EndSplineSet
EndChar

StartChar: foursuperior
Encoding: 264 8308 162
Width: 414
VWidth: 133
Flags: HW
LayerCount: 2
Fore
SplineSet
18.04 543.88 m 1
 219.92 863 l 1
 273.58 863 l 1
 91.56 574 l 1
 291.88 574 l 1
 291.88 695 l 1
 313.42 743 l 1
 338.92 743 l 1
 338.92 574 l 1
 397.92 574 l 1
 397.92 536.96 l 1
 338.92 524.64 l 1
 338.92 389 l 1
 291.88 389 l 1
 291.88 524.64 l 1
 33.92 524.64 l 1
 18.04 543.88 l 1
EndSplineSet
EndChar

StartChar: fivesuperior
Encoding: 265 8309 163
Width: 430
VWidth: 132
Flags: HW
LayerCount: 2
Fore
SplineSet
61.46 395.62 m 1
 61.46 432.04 l 1
 272.46 432.04 l 2
 316.3 432.04 338.42 457.1 338.42 502 c 2
 338.42 558 l 2
 338.42 589.52 337.36 628.16 273.82 628.16 c 0
 160.52 628.16 l 2
 128.38 628.16 102.24 606.68 101.9 571 c 1
 61.46 571 l 1
 76.46 863 l 25
 371.46 863 l 1
 371.46 815.96 l 1
 120.18 815.96 l 25
 110.82 646 l 1
 140.14 685.88 227.46 675.2 276.46 675.2 c 0
 353.46 675.2 385.46 633 385.46 562 c 2
 385.46 498 l 2
 385.46 416 339.46 384 276.46 384 c 0
 195.46 384 131.12 383.68 61.46 395.62 c 1
EndSplineSet
EndChar

StartChar: sixsuperior
Encoding: 266 8310 164
Width: 450
VWidth: 132
Flags: HW
LayerCount: 2
Fore
SplineSet
61.12 638.66 m 0
 63.12 835.66 120.1 865.34 183.78 868.66 c 1
 250.78 872.64 337.22 866.02 389.12 858.7 c 1
 389.12 821.62 l 1
 186.1 821.62 l 2
 118.6 821.62 109.16 726.68 108.16 648.56 c 1
 163.16 654.56 252.12 660.18 300.12 660.18 c 0
 388.12 660.18 405.12 617.66 405.12 566.66 c 2
 405.12 493.66 l 2
 405.12 421.66 361.12 388.66 300.12 388.66 c 2
 193.12 388.66 l 2
 121.12 388.66 59.12 425.66 61.12 638.66 c 0
108.16 613.14 m 1
 108.16 531.52 124.1 435.7 191.14 435.7 c 2
 297.14 435.7 l 2
 338.64 435.7 358.08 456.14 358.08 498.94 c 2
 358.08 563.68 l 2
 358.08 606.82 335.3 613.14 297.14 613.14 c 2
 108.16 613.14 l 1
EndSplineSet
EndChar

StartChar: sevensuperior
Encoding: 267 8311 165
Width: 370
VWidth: 133
Flags: HW
LayerCount: 2
Fore
SplineSet
16.7 817.96 m 1
 16.7 865 l 1
 338.42 865 l 1
 353.04 839.44 l 1
 170.7 389 l 1
 118.38 389 l 1
 292.78 817.96 l 1
 16.7 817.96 l 1
EndSplineSet
EndChar

StartChar: eightsuperior
Encoding: 268 8312 166
Width: 480
VWidth: 133
Flags: HW
LayerCount: 2
Fore
SplineSet
73.82 491 m 2
 73.82 549 l 2
 73.82 597 108.6 616.74 134.94 622.36 c 1
 88.52 635 73.82 677 73.82 711 c 2
 73.82 751 l 2
 73.82 843 122.82 868 189.82 868 c 2
 299.82 868 l 2
 369.82 868 407.82 837 407.82 751 c 2
 407.82 711 l 2
 408.48 690.2 399.34 642.26 352 634.3 c 1
 386.32 628.3 407.82 582.78 407.82 549 c 2
 407.82 491 l 2
 407.82 407 357.82 387 302.82 387 c 2
 182.82 387 l 2
 90.82 387 73.82 437 73.82 491 c 2
120.86 495 m 2
 120.86 451.78 135.96 434.7 186.82 434.7 c 2
 298.82 434.7 l 2
 337.36 434.7 360.78 449.44 360.78 495 c 2
 360.78 545 l 2
 360.78 587.44 332.22 604.82 303.22 604.82 c 2
 184.82 604.82 l 2
 146.66 604.82 120.86 586.36 120.86 545.68 c 2
 120.86 495 l 2
120.86 715 m 2
 120.86 667.94 151.6 652.52 181.42 652.52 c 2
 299.22 652.52 l 2
 343.84 652.52 360.78 682.48 360.78 715 c 2
 360.78 747 l 2
 360.78 807.24 338.34 820.96 290.82 820.96 c 2
 193.82 820.96 l 2
 141 820.96 120.86 804.56 120.86 747 c 2
 120.86 715 l 2
EndSplineSet
EndChar

StartChar: ninesuperior
Encoding: 269 8313 167
Width: 450
VWidth: 133
Flags: HW
LayerCount: 2
Fore
SplineSet
50.44 691 m 2
 50.44 764 l 2
 50.44 836 94.44 869 155.44 869 c 2
 262.44 869 l 2
 334.44 869 396.44 832 394.44 619 c 0
 392.44 422 338.1 392.98 272.44 389 c 0
 206.1 385.02 126.26 387.68 66.44 398.96 c 1
 66.44 436.04 l 1
 268.8 436.04 l 2
 336.3 436.04 346.4 530.98 347.4 609.1 c 1
 292.4 603.1 203.44 597.48 155.44 597.48 c 0
 67.44 597.48 50.44 640 50.44 691 c 2
97.48 693.98 m 2
 97.48 650.84 120.26 644.52 158.42 644.52 c 2
 347.4 644.52 l 1
 347.4 726.14 333.44 821.96 266.4 821.96 c 2
 158.42 821.96 l 2
 116.92 821.96 97.48 801.52 97.48 758.72 c 2
 97.48 693.98 l 2
EndSplineSet
EndChar

StartChar: zeroinferior
Encoding: 270 8320 168
Width: 482
VWidth: 0
Flags: HW
LayerCount: 2
Fore
SplineSet
67.14 -90 m 2
 67.14 165 l 2
 67.14 249 113.14 275 184.14 275 c 2
 301.14 275 l 2
 384.14 275 414.14 232 414.14 165 c 10
 414.14 -90 l 2
 414.14 -186 365.14 -200 301.14 -200 c 2
 184.14 -200 l 2
 125.14 -200 67.14 -190 67.14 -90 c 2
114.84 -86 m 2
 114.84 -139.6 132.34 -152.96 188.14 -152.96 c 10
 297.14 -152.96 l 18
 359.36 -152.96 367.76 -131.88 367.76 -86 c 2
 367.76 161 l 2
 367.76 205.52 353.98 227.96 297.14 227.96 c 2
 188.14 227.96 l 2
 129.66 227.96 114.84 205.94 114.84 161 c 2
 114.84 -86 l 2
EndSplineSet
EndChar

StartChar: oneinferior
Encoding: 271 8321 169
Width: 265
VWidth: 0
Flags: HW
LayerCount: 2
Fore
SplineSet
18.04 186.6 m 1
 18.04 222 l 1
 146.04 277 l 1
 193.08 277 l 1
 193.08 -199 l 1
 146.04 -199 l 1
 146.04 225.34 l 1
 18.04 186.6 l 1
EndSplineSet
EndChar

StartChar: twoinferior
Encoding: 272 8322 170
Width: 395
VWidth: 0
Flags: HW
LayerCount: 2
Fore
SplineSet
35.4 235.96 m 2
 33.4 235.96 34.4 271.72 35.4 270.72 c 1
 101.4 278.72 146.4 283 218.4 283 c 3
 316.4 283 348.4 225 348.4 147 c 3
 348.4 23.02 165.18 -118.66 124.54 -151.96 c 9
 347.4 -151.96 l 25
 347.4 -199 l 25
 38.4 -199 l 25
 38.4 -155.96 l 17
 105.4 -101.96 299.04 33.38 299.04 144 c 3
 299.04 202.44 280.02 235.96 209.1 235.96 c 2
 35.4 235.96 l 2
EndSplineSet
EndChar

StartChar: threeinferior
Encoding: 273 8323 171
Width: 416
VWidth: 0
Flags: HW
LayerCount: 2
Fore
SplineSet
33.4 231.62 m 1
 33.4 263.4 l 1
 86.66 279.66 152.74 278 228.74 278 c 0
 315.74 278 349.74 223.38 349.74 163.38 c 2
 349.74 128.38 l 2
 349.74 77.98 314.16 46.64 289.18 39.36 c 1
 314.14 26.78 349.74 -2.24 349.74 -56 c 2
 349.74 -84 l 2
 349.74 -155 322.4 -203 223.4 -203 c 0
 149.4 -203 89.3 -203.64 37.4 -187.38 c 1
 38.06 -156.62 l 1
 59.18 -156.62 215.4 -155.96 215.4 -155.96 c 2
 278.92 -155.96 302.36 -136.92 302.36 -80 c 2
 302.36 -57 l 2
 302.36 -2.94 260.18 18.14 219.4 19.14 c 2
 77.4 23.8 l 2
 77.4 58.22 l 1
 219.4 64.2 l 2
 270.18 66.2 303.7 91.26 303.7 134.66 c 2
 303.7 161.08 l 2
 303.7 214.3 268.82 231.62 222.12 231.62 c 2
 33.4 231.62 l 1
EndSplineSet
EndChar

StartChar: fourinferior
Encoding: 274 8324 172
Width: 414
VWidth: 0
Flags: HW
LayerCount: 2
Fore
SplineSet
18.04 -44.12 m 1
 219.92 275 l 1
 273.58 275 l 1
 91.56 -14 l 1
 291.88 -14 l 1
 291.88 107 l 1
 313.42 155 l 1
 338.92 155 l 1
 338.92 -14 l 1
 397.92 -14 l 1
 397.92 -51.04 l 1
 338.92 -63.36 l 1
 338.92 -199 l 1
 291.88 -199 l 1
 291.88 -63.36 l 1
 33.92 -63.36 l 1
 18.04 -44.12 l 1
EndSplineSet
EndChar

StartChar: fiveinferior
Encoding: 275 8325 173
Width: 430
VWidth: 0
Flags: HW
LayerCount: 2
Fore
SplineSet
61.46 -17 m 1
 76.46 275 l 25
 371.46 275 l 1
 371.46 227.96 l 1
 120.18 227.96 l 25
 110.82 58 l 1
 140.14 97.88 227.46 87.2 276.46 87.2 c 0
 353.46 87.2 385.46 45 385.46 -26 c 2
 385.46 -90 l 2
 385.46 -172 339.46 -204 276.46 -204 c 0
 195.46 -204 131.12 -204.32 61.46 -192.38 c 1
 61.46 -155.96 l 1
 272.46 -155.96 l 2
 316.3 -155.96 338.42 -130.9 338.42 -86 c 2
 338.42 -30 l 2
 338.42 1.52 337.36 40.16 273.82 40.16 c 0
 160.52 40.16 l 2
 128.38 40.16 102.24 18.68 101.9 -17 c 1
 61.46 -17 l 1
EndSplineSet
EndChar

StartChar: sixinferior
Encoding: 276 8326 174
Width: 450
VWidth: 0
Flags: HW
LayerCount: 2
Fore
SplineSet
61.12 50.66 m 0
 63.12 247.66 120.1 277.34 183.78 280.66 c 0
 250.12 283.98 333.26 280.66 389.12 270.7 c 1
 389.12 233.62 l 1
 186.1 233.62 l 2
 118.6 233.62 109.16 138.68 108.16 60.56 c 1
 163.16 66.56 252.12 72.18 300.12 72.18 c 0
 388.12 72.18 405.12 29.66 405.12 -21.34 c 2
 405.12 -94.34 l 2
 405.12 -166.34 361.12 -199.34 300.12 -199.34 c 2
 193.12 -199.34 l 2
 121.12 -199.34 59.12 -162.34 61.12 50.66 c 0
108.16 25.14 m 1
 108.16 -56.48 124.1 -152.3 191.14 -152.3 c 2
 297.14 -152.3 l 2
 338.64 -152.3 358.08 -131.86 358.08 -89.06 c 2
 358.08 -24.32 l 2
 358.08 18.82 335.3 25.14 297.14 25.14 c 2
 108.16 25.14 l 1
EndSplineSet
EndChar

StartChar: seveninferior
Encoding: 277 8327 175
Width: 370
VWidth: 0
Flags: HW
LayerCount: 2
Fore
SplineSet
16.7 229.96 m 1
 16.7 277 l 1
 338.42 277 l 1
 353.04 251.44 l 1
 170.7 -199 l 1
 118.38 -199 l 1
 292.78 229.96 l 1
 16.7 229.96 l 1
EndSplineSet
EndChar

StartChar: eightinferior
Encoding: 278 8328 176
Width: 480
VWidth: 0
Flags: HW
LayerCount: 2
Fore
SplineSet
73.82 -39 m 2
 73.82 9 108.6 28.74 134.94 34.36 c 1
 88.52 47 73.82 89 73.82 123 c 2
 73.82 163 l 2
 73.82 255 122.82 280 189.82 280 c 2
 299.82 280 l 2
 369.82 280 407.82 249 407.82 163 c 2
 407.82 123 l 2
 408.48 102.2 399.34 54.26 352 46.3 c 1
 386.32 40.3 407.82 -5.22 407.82 -39 c 2
 407.82 -97 l 2
 407.82 -181 357.82 -201 302.82 -201 c 2
 182.82 -201 l 2
 90.82 -201 73.82 -151 73.82 -97 c 2
 73.82 -39 l 2
120.86 -42.32 m 2
 120.86 -93 l 2
 120.86 -136.22 135.96 -153.3 186.82 -153.3 c 2
 298.82 -153.3 l 2
 337.36 -153.3 360.78 -138.56 360.78 -93 c 2
 360.78 -43 l 2
 360.78 -0.56 332.22 16.82 303.22 16.82 c 2
 184.82 16.82 l 2
 146.66 16.82 120.86 -1.64 120.86 -42.32 c 2
120.86 127 m 2
 120.86 79.94 151.6 64.52 181.42 64.52 c 2
 299.22 64.52 l 2
 343.84 64.52 360.78 94.48 360.78 127 c 2
 360.78 159 l 2
 360.78 219.24 338.34 232.96 290.82 232.96 c 2
 193.82 232.96 l 2
 141 232.96 120.86 216.56 120.86 159 c 2
 120.86 127 l 2
EndSplineSet
EndChar

StartChar: nineinferior
Encoding: 279 8329 177
Width: 450
VWidth: 0
Flags: HW
LayerCount: 2
Fore
SplineSet
50.44 103 m 2
 50.44 176 l 2
 50.44 248 94.44 281 155.44 281 c 2
 262.44 281 l 2
 334.44 281 396.44 244 394.44 31 c 0
 392.44 -166 338.1 -195.02 272.44 -199 c 0
 206.1 -202.98 124.28 -199.66 66.44 -189.04 c 1
 66.44 -151.96 l 1
 268.8 -151.96 l 2
 336.3 -151.96 346.4 -57.02 347.4 21.1 c 1
 292.4 15.1 203.44 9.48 155.44 9.48 c 0
 67.44 9.48 50.44 52 50.44 103 c 2
97.48 105.98 m 2
 97.48 62.84 120.26 56.52 158.42 56.52 c 2
 347.4 56.52 l 1
 347.4 138.14 333.44 233.96 266.4 233.96 c 2
 158.42 233.96 l 2
 116.92 233.96 97.48 213.52 97.48 170.72 c 2
 97.48 105.98 l 2
EndSplineSet
EndChar

StartChar: zero.oldstyle
Encoding: 280 -1 178
Width: 649
VWidth: 0
Flags: W
HStem: 0 57<173.615 479.377> 574 57<175.588 477.511>
VStem: 78.16 57<94.0704 535.353> 514.3 57<90.6224 539.901>
LayerCount: 2
Fore
SplineSet
78.16 162 m 10
 78.16 469 l 2
 78.16 577 155.16 631 250.16 631 c 2
 403.96 631 l 2
 525.96 631 571.3 560 571.3 469 c 26
 571.3 162 l 18
 571.3 43 502.96 0 403.96 0 c 2
 250.16 0 l 2
 159.16 0 78.16 42 78.16 162 c 10
135.16 162 m 2
 135.16 86.5 187.88 57 250.16 57 c 10
 403.96 57 l 18
 481.56 57 514.3 97.46 514.3 162 c 2
 514.3 469 l 2
 514.3 529.96 485.44 574 403.96 574 c 2
 250.16 574 l 2
 173.7 574 135.16 530.6 135.16 469 c 2
 135.16 162 l 2
EndSplineSet
Substitution2: "'tnum' Tabular Numbers in Latin lookup 7-1" zero.tosf
Substitution2: "'lnum' Lining Figures lookup 19-1" zero
EndChar

StartChar: one.oldstyle
Encoding: 281 -1 179
Width: 353
VWidth: 0
Flags: W
HStem: 0 21G<201.4 258.4> 0 21G<201.4 258.4>
VStem: 201.4 57<0 567.38>
LayerCount: 2
Fore
SplineSet
33.4 507.6 m 1xa0
 33.4 547 l 1
 201.4 632 l 1
 258.4 632 l 1
 258.4 0 l 1
 201.4 0 l 1
 201.4 567.38 l 1
 33.4 507.6 l 1xa0
EndSplineSet
Substitution2: "'tnum' Tabular Numbers in Latin lookup 7-1" one.tosf
Substitution2: "'lnum' Lining Figures lookup 19-1" one
EndChar

StartChar: two.oldstyle
Encoding: 282 -1 180
Width: 597
VWidth: 0
Flags: W
HStem: 0 57<169.74 536.22> 581.34 56.66<118.286 432.503> 581.34 40.06<45.76 250.605>
VStem: 483.56 52.66<383.734 532.833>
LayerCount: 2
Fore
SplineSet
45.76 581.34 m 2xb0
 45.76 621.4 l 1xb0
 127.78 633.36 223.22 643 338.22 638 c 1
 478.22 638 541.22 564 541.22 451 c 3
 541.22 282.04 228.42 87 169.74 57 c 9
 536.22 57 l 25
 536.22 0 l 25
 51.42 0 l 25
 51.42 52.7 l 17
 166.52 115.88 483.56 303.28 483.56 453 c 3
 483.56 542.66 431.26 583.32 333.82 581.34 c 1xd0
 45.76 581.34 l 2xb0
EndSplineSet
Substitution2: "'tnum' Tabular Numbers in Latin lookup 7-1" two.tosf
Substitution2: "'lnum' Lining Figures lookup 19-1" two
EndChar

StartChar: three.oldstyle
Encoding: 283 -1 181
Width: 618
VWidth: 0
Flags: W
HStem: -104.04 58<134.786 435.914> -81.82 35.78<62.78 161.055> 237.8 58.68<168.245 428.903> 244.8 43.04<124.12 312.455> 579.96 57<143.274 434.296> 579.96 35.12<56.12 147.864>
VStem: 477.58 57.34<-4.32501 190.534 337.462 539.776>
LayerCount: 2
Fore
SplineSet
56.12 579.96 m 1x06
 56.12 615.08 l 1x06
 134.6 639.28 246.92 638.96 363.92 636.96 c 0
 476.98 634.96 534.92 563.96 534.92 471.96 c 2
 534.92 402.96 l 2
 534.92 319.08 486.82 278.54 450.22 267.3 c 1
 488.16 248.44 534.92 208.48 534.92 122.96 c 1
 534.92 63.96 l 2
 534.92 -45.04 478.58 -104.04 356.58 -104.04 c 0x8a
 242.58 -104.04 133.46 -105 62.12 -81.82 c 1
 62.78 -46.04 l 1x42
 352.62 -46.04 l 2
 414.46 -46.04 475.58 -27.96 475.58 63.96 c 2
 475.58 122.96 l 2
 475.58 208.44 411.6 235.8 356.58 237.8 c 2xa2
 124.12 244.8 l 2
 124.12 287.84 l 1x12
 356.58 296.48 l 1
 428.64 298.8 477.58 333.8 477.58 402.96 c 2
 477.58 471.96 l 2
 477.58 548.52 420.82 579.96 358.62 579.96 c 2x2a
 56.12 579.96 l 1x06
EndSplineSet
Substitution2: "'tnum' Tabular Numbers in Latin lookup 7-1" three.tosf
Substitution2: "'lnum' Lining Figures lookup 19-1" three
EndChar

StartChar: four.oldstyle
Encoding: 284 -1 182
Width: 593
VWidth: 0
Flags: W
HStem: 95.16 59.64<108.14 424.1 481.1 520.623> 111.1 43.7<531.577 571.1>
VStem: 424.1 57<-98.34 95.16 154.8 371.66>
DStem2: 22.38 128.08 108.14 154.8 0.531815 0.846861<68.2365 594.643>
LayerCount: 2
Fore
SplineSet
22.38 128.08 m 1xa0
 338.62 631.66 l 1
 405.88 631.66 l 1
 108.14 154.8 l 1
 424.1 154.8 l 1xa0
 424.1 371.66 l 1
 451.92 446.66 l 1
 481.1 446.66 l 1
 481.1 154.8 l 1
 571.1 154.8 l 1
 571.1 111.1 l 1x60
 481.1 95.16 l 1
 481.1 -98.34 l 1
 424.1 -98.34 l 1
 424.1 95.16 l 1
 48.9 95.16 l 1
 22.38 128.08 l 1xa0
EndSplineSet
Substitution2: "'tnum' Tabular Numbers in Latin lookup 7-1" four.tosf
Substitution2: "'lnum' Lining Figures lookup 19-1" four
EndChar

StartChar: five.oldstyle
Encoding: 285 -1 183
Width: 637
VWidth: 0
Flags: W
HStem: -104.34 60.3<162.881 454.611> -85.1 41.06<85.18 291.104> 283.56 57<173.081 460.571> 574.66 57<161.54 531.18>
VStem: 86.84 51.72<191.56 249.729> 108.84 52.7<491.628 574.66> 495.84 57<-0.901764 248.847>
LayerCount: 2
Fore
SplineSet
85.18 -44.04 m 1x76
 389.18 -44.04 l 2
 458.52 -44.04 495.84 4.62 495.84 67.66 c 2
 495.84 172.56 l 2
 495.84 211.34 490.42 283.56 388.84 283.56 c 2
 235.18 283.56 l 2
 189.04 283.56 138.56 249.64 138.56 191.56 c 1
 86.84 191.56 l 1xba
 108.84 631.66 l 17
 531.18 631.66 l 1
 531.18 574.66 l 1
 161.54 574.66 l 25
 147.84 298.32 l 1
 159.8 314.64 193.24 337.92 238.84 340.56 c 0
 299.3 345.18 358.18 340.56 389.18 340.56 c 0
 507.18 340.56 552.84 271.56 552.84 174.56 c 2
 552.84 65.66 l 2
 552.84 -71.34 451.18 -104.34 389.18 -104.34 c 3xb6
 265.18 -104.34 198.1 -103.68 85.18 -85.1 c 1
 85.18 -44.04 l 1x76
EndSplineSet
Substitution2: "'tnum' Tabular Numbers in Latin lookup 7-1" five.tosf
Substitution2: "'lnum' Lining Figures lookup 19-1" five
EndChar

StartChar: six.oldstyle
Encoding: 286 -1 184
Width: 627
VWidth: 0
Flags: W
HStem: -1 57<212.995 487.921> 362.84 57.3398<185.617 487.78> 362.84 39.7402<139.82 344.035> 681 57<211.266 475.633> 681 41.4004<340.875 546.62>
VStem: 82.8203 57<165.573 362.84 402.58 565.872> 514.62 56<84.8688 335.323>
LayerCount: 2
Fore
SplineSet
82.8203 384 m 4xc6
 82.8203 646.62 168.76 738 254.82 738 c 4xd6
 355.82 738 463.18 733.36 546.62 722.4 c 5
 546.62 681 l 5x8e
 264.42 681 l 6
 161.18 681 141.14 496.1 139.82 402.58 c 5xb6
 224.82 412.58 335.62 420.18 409.62 420.18 c 4
 544.94 420.18 570.62 351.56 570.62 272.2 c 6
 570.62 148 l 6
 570.62 36 503.62 -1 409.62 -1 c 6
 270.82 -1 l 6
 161.82 -0.339844 82.8203 73.0801 82.8203 384 c 4xc6
139.82 362.84 m 5xa6
 139.82 247.76 149.26 56 270.82 56 c 6
 409.62 56 l 6
 464.36 56 514.62 69.0596 514.62 151.28 c 6
 514.62 272.2 l 6
 514.62 348.16 465.82 362.84 409.62 362.84 c 6xc6
 139.82 362.84 l 5xa6
EndSplineSet
Substitution2: "'tnum' Tabular Numbers in Latin lookup 7-1" six.tosf
Substitution2: "'lnum' Lining Figures lookup 19-1" six
EndChar

StartChar: seven.oldstyle
Encoding: 287 -1 185
Width: 542
VWidth: 0
Flags: W
HStem: 574.66 57<33.4 436.3>
DStem2: 185.1 -100.34 252.7 -100.34 0.346526 0.93804<23.4252 720.225>
LayerCount: 2
Fore
SplineSet
33.4 574.66 m 1
 33.4 631.66 l 1
 485.26 631.66 l 1
 508.52 592.16 l 1
 252.7 -100.34 l 1
 185.1 -100.34 l 1
 436.3 574.66 l 1
 33.4 574.66 l 1
EndSplineSet
Substitution2: "'tnum' Tabular Numbers in Latin lookup 7-1" seven.tosf
Substitution2: "'lnum' Lining Figures lookup 19-1" seven
EndChar

StartChar: eight.oldstyle
Encoding: 288 -1 186
Width: 641
VWidth: 0
Flags: W
HStem: 0 57<174.448 464.211> 345.5 56<173.675 468.262> 680 57<173.379 466.093>
VStem: 83.84 57<90.4869 312.81 432.312 647.369> 500.64 57<91.542 316.383 432.975 646.995>
LayerCount: 2
Fore
SplineSet
83.84 154 m 2
 83.84 252.34 l 2
 83.84 327.02 134.28 352.8 173.94 361.38 c 1
 102.46 381 83.84 446 83.84 499 c 2
 83.84 564 l 2
 83.84 698 156.84 737 259.84 737 c 2
 395.64 737 l 2
 502.64 737 557.64 687 557.64 564 c 2
 557.64 499 l 2
 558.3 466.12 543.42 393.24 476.86 381.98 c 1
 536.3 368.58 558.3 301.8 557.64 252 c 2
 557.64 154 l 2
 557.64 24 458.64 0 394.64 0 c 2
 259.84 0 l 2
 87.84 0 83.84 113 83.84 154 c 2
140.84 151 m 2
 140.84 87.04 182.76 57 259.84 57 c 2
 394.64 57 l 2
 443.76 57 500.64 83.38 500.64 151 c 2
 500.64 256 l 2
 500.64 329.66 443.68 345.5 397.64 345.5 c 2
 248.84 345.5 l 2
 202.84 345.5 140.84 324.8 140.84 256 c 2
 140.84 151 l 2
140.84 494 m 2
 140.84 415.44 203.96 401.5 248.84 401.5 c 2
 397.64 401.5 l 2
 478.8 401.5 500.64 454.6 500.64 494 c 2
 500.64 562 l 2
 500.64 648.24 466.2 680 395.64 680 c 2
 259.84 680 l 2
 180.54 680 140.84 656.76 140.84 562 c 2
 140.84 494 l 2
EndSplineSet
Substitution2: "'tnum' Tabular Numbers in Latin lookup 7-1" eight.tosf
Substitution2: "'lnum' Lining Figures lookup 19-1" eight
EndChar

StartChar: nine.oldstyle
Encoding: 289 -1 187
Width: 627
VWidth: 0
Flags: W
HStem: -107 57<162.694 426.494> -91.4 41.4<91.14 297.111> 210.82 57.34<149.98 452.143> 228.42 39.74<293.725 497.94> 575 57<149.839 424.765>
VStem: 67.14 56<295.676 546.131> 497.94 57<65.1276 228.42 268.16 465.428>
LayerCount: 2
Fore
SplineSet
67.14 358.8 m 2x2e
 67.14 483 l 2
 67.14 595 134.14 632 228.14 632 c 2
 366.94 632 l 2
 475.94 631.34 554.94 557.92 554.94 247 c 0
 554.94 -15.62 469 -107 382.94 -107 c 0xae
 281.94 -107 175.9 -105.66 91.14 -91.4 c 1
 91.14 -50 l 1x4e
 373.34 -50 l 2
 476.58 -50 496.62 134.9 497.94 228.42 c 1x9e
 412.94 218.42 302.14 210.82 228.14 210.82 c 0
 92.82 210.82 67.14 279.44 67.14 358.8 c 2x2e
123.14 358.8 m 2
 123.14 282.84 171.94 268.16 228.14 268.16 c 2x2e
 497.94 268.16 l 1x1e
 497.94 383.24 488.5 575 366.94 575 c 2
 228.14 575 l 2
 173.4 575 123.14 561.94 123.14 479.72 c 2
 123.14 358.8 l 2
EndSplineSet
Substitution2: "'tnum' Tabular Numbers in Latin lookup 7-1" nine.tosf
Substitution2: "'lnum' Lining Figures lookup 19-1" nine
EndChar

StartChar: ampersand
Encoding: 38 38 188
Width: 642
VWidth: 0
Flags: HW
LayerCount: 2
Fore
SplineSet
82.42 82 m 1
 6.4 178.7 31.42 292 118.42 366 c 2
 204.42 439 l 1
 141.42 524 l 2
 62.42 631 139.72 717.56 211.08 728.3 c 0
 307.36 740.32 405.42 728.02 477.42 714.76 c 1
 477.42 677 l 1
 274.42 677 l 2
 185.7 677 126.94 637.12 200.36 538 c 2
 453.72 194.84 l 1
 581.32 324.04 l 1
 599.56 305.48 l 1
 542.44 205.62 l 1
 488.86 150.76 l 1
 598.04 0 l 1
 529.42 0 l 1
 447.42 111 l 1
 375.42 44 l 2
 294.76 -31 157.16 -20.36 82.42 82 c 1
130.46 113.5 m 0
 177.94 51.62 272.5 25.3 333.98 83.1 c 2
 412.28 156.4 l 1
 236.9 391.6 l 1
 158.9 326.6 l 18
 75.5 257.54 77.66 182.36 130.46 113.5 c 0
EndSplineSet
AlternateSubs2: "'salt' Access All Alternates in Latin lookup 4-1" ampersand.salt
Substitution2: "'smcp' Lowercase to Small Capitals lookup 16-1" ampersand.smcp
EndChar

StartChar: asterisk
Encoding: 42 42 189
Width: 449
VWidth: 0
Flags: HW
LayerCount: 2
Fore
SplineSet
56.12 574.84 m 1
 56.12 606 l 1
 196.14 626.5 l 1
 199.44 569.5 l 1
 56.12 574.84 l 1
128.2 412.3 m 1
 155.26 546.96 l 1
 211.62 534.38 l 1
 157.04 403.02 l 1
 128.2 412.3 l 1
186.2 719.04 m 1
 216.36 730.96 l 1
 288.64 611.26 l 1
 235.6 587.06 l 1
 186.2 719.04 l 1
218.54 482.46 m 1
 249.68 531.2 l 1
 362.4 442.92 l 1
 345.82 418.06 l 1
 218.54 482.46 l 1
261.88 564.54 m 1
 379.16 642.92 l 1
 394.42 615.74 l 1
 299.68 521.12 l 1
 261.88 564.54 l 1
EndSplineSet
Substitution2: "'smcp' Lowercase to Small Capitals lookup 16-1" asterisk.smcp
EndChar

StartChar: Euro
Encoding: 290 8364 190
Width: 605
VWidth: 0
Flags: HW
LayerCount: 2
Fore
SplineSet
22.38 260.78 m 1
 22.38 296.56 l 1
 110.38 302.2 l 1
 110.38 416.8 l 1
 22.38 423.1 l 1
 22.38 455.9 l 1
 110.38 463.2 l 1
 110.38 535.2 100.38 740 344.38 740 c 3
 396.38 740 509.18 726.4 579.18 713.4 c 1
 579.18 669.7 l 2
 579.18 669.7 426.72 683.34 344.38 683 c 1
 182.46 682.66 167.04 587 167.38 463.2 c 1
 418.38 457.56 l 1
 418.38 422.44 l 1
 167.38 416.8 l 1
 167.38 302.2 l 1
 418.38 296.22 l 1
 418.38 260.44 l 1
 418.38 260.44 164.38 256.8 167.38 254.8 c 1
 166.36 120.46 236.44 52.02 344.38 51 c 1
 445.46 49.98 583.18 66.3 583.18 66.3 c 1
 583.18 24.24 l 1
 502.18 2.6 428.06 -6 344.38 -6 c 3
 267.38 -6 110.38 28.8 110.38 254.8 c 1
 22.38 260.78 l 1
EndSplineSet
Substitution2: "'smcp' Lowercase to Small Capitals lookup 16-1" Euro.smcp
EndChar

StartChar: parenleft
Encoding: 40 40 191
Width: 328
VWidth: 60
Flags: HW
LayerCount: 2
Fore
SplineSet
83.84 326 m 0
 83.84 600 242.84 860 242.84 860 c 1
 305.48 860 l 1
 305.48 860 140.84 598 140.84 326 c 3
 140.84 26 305.82 -210 305.82 -210 c 1
 242.84 -210 l 1
 242.84 -210 83.84 10 83.84 326 c 0
EndSplineSet
Substitution2: "'case' Case-Sensitive Forms lookup 1-1" parenleft.alt
Substitution2: "'c2sc' Capitals to Small Capitals in Latin lookup 17 subtable" parenleft.smcp
Substitution2: "'smcp' Lowercase to Small Capitals lookup 16-1" parenleft.smcp
EndChar

StartChar: parenright
Encoding: 41 41 192
Width: 327
VWidth: 60
Flags: HW
LayerCount: 2
Fore
SplineSet
22.38 -210 m 1
 22.38 -210 187.02 26 187.02 326 c 3
 187.02 598 22.38 860 22.38 860 c 1
 85.02 860 l 1
 85.02 860 244.02 600 244.02 326 c 0
 244.02 10 85.02 -210 85.02 -210 c 1
 22.38 -210 l 1
EndSplineSet
Substitution2: "'case' Case-Sensitive Forms lookup 1-1" parenright.alt
Substitution2: "'c2sc' Capitals to Small Capitals in Latin lookup 17 subtable" parenright.smcp
Substitution2: "'smcp' Lowercase to Small Capitals lookup 16-1" parenright.smcp
EndChar

StartChar: plus
Encoding: 43 43 193
Width: 517
VWidth: 0
Flags: HW
LayerCount: 2
Fore
SplineSet
56.12 327.5 m 1
 56.12 384.5 l 1
 229.52 384.5 l 1
 229.52 558.9 l 1
 286.52 558.9 l 1
 286.52 384.5 l 1
 461.92 384.5 l 1
 461.92 327.5 l 1
 286.52 327.5 l 1
 286.52 153.1 l 1
 229.52 153.1 l 1
 229.52 327.5 l 1
 56.12 327.5 l 1
EndSplineSet
EndChar

StartChar: endash
Encoding: 291 8211 194
Width: 517
VWidth: 0
Flags: HW
LayerCount: 2
Fore
SplineSet
22.38 258.5 m 1
 22.38 316.5 l 1
 495.38 316.5 l 1
 495.38 258.5 l 1
 22.38 258.5 l 1
EndSplineSet
Substitution2: "'case' Case-Sensitive Forms lookup 1-1" endash.alt
Substitution2: "'c2sc' Capitals to Small Capitals in Latin lookup 17 subtable" endash.smcp
Substitution2: "'smcp' Lowercase to Small Capitals lookup 16-1" endash.smcp
EndChar

StartChar: emdash
Encoding: 292 8212 195
Width: 740
VWidth: 0
Flags: HW
LayerCount: 2
Fore
SplineSet
22.38 260.5 m 1
 22.38 318.5 l 1
 718.38 318.5 l 1
 718.38 260.5 l 1
 22.38 260.5 l 1
EndSplineSet
Substitution2: "'case' Case-Sensitive Forms lookup 1-1" emdash.alt
Substitution2: "'c2sc' Capitals to Small Capitals in Latin lookup 17 subtable" emdash.smcp
Substitution2: "'smcp' Lowercase to Small Capitals lookup 16-1" emdash.smcp
EndChar

StartChar: less
Encoding: 60 60 196
Width: 476
VWidth: 0
Flags: HW
LayerCount: 2
Fore
SplineSet
56.12 324.54 m 1
 56.12 384.14 l 1
 420.58 556.34 l 1
 420.58 494.36 l 1
 131.66 354.34 l 1
 420.58 203.98 l 1
 420.58 140.34 l 1
 56.12 324.54 l 1
EndSplineSet
EndChar

StartChar: equal
Encoding: 61 61 197
Width: 471
VWidth: 0
Flags: HW
LayerCount: 2
Fore
SplineSet
22.38 212 m 1
 22.38 269 l 1
 449.38 269 l 1
 449.38 212 l 1
 22.38 212 l 1
22.38 438 m 1
 22.38 495 l 1
 449.38 495 l 1
 449.38 438 l 1
 22.38 438 l 1
EndSplineSet
EndChar

StartChar: greater
Encoding: 62 62 198
Width: 476
VWidth: 0
Flags: HW
LayerCount: 2
Fore
SplineSet
56.12 140.34 m 1
 56.12 203.98 l 1
 345.04 354.34 l 1
 56.12 494.36 l 1
 56.12 556.34 l 1
 420.58 384.14 l 1
 420.58 324.54 l 1
 56.12 140.34 l 1
EndSplineSet
EndChar

StartChar: multiply
Encoding: 215 215 199
Width: 451
VWidth: 0
Flags: HW
LayerCount: 2
Fore
SplineSet
62.8 232.62 m 1
 186.18 355.34 l 1
 62.8 478.72 l 1
 102.9 519.48 l 1
 226.28 396.1 l 1
 350.32 519.48 l 1
 390.42 479.38 l 1
 266.38 355.34 l 1
 389.76 232.62 l 1
 349.66 191.86 l 1
 226.28 315.24 l 1
 103.56 192.52 l 1
 62.8 232.62 l 1
EndSplineSet
EndChar

StartChar: divide
Encoding: 247 247 200
Width: 527
VWidth: 0
Flags: HW
LayerCount: 2
Fore
SplineSet
56.12 324.5 m 1
 56.12 381.5 l 1
 472.12 381.5 l 1
 472.12 324.5 l 1
 56.12 324.5 l 1
229 168.24 m 2
 229 218.16 l 2
 229 230.78 235.64 238.74 248.92 238.74 c 2
 285.66 238.74 l 2
 298.28 238.74 304.92 229.78 304.92 218.16 c 2
 304.92 168.24 l 2
 304.92 155.62 297.28 148.98 285.66 148.98 c 2
 248.92 148.98 l 2
 237.3 148.98 229 156.62 229 168.24 c 2
229 479.48 m 2
 229 529.74 l 2
 229 542.36 235.64 550.32 248.92 550.32 c 2
 285.66 550.32 l 2
 298.28 550.32 304.92 541.36 304.92 529.74 c 2
 304.92 479.48 l 2
 304.92 466.86 297.28 460.56 285.66 460.56 c 2
 248.92 460.56 l 2
 237.3 460.56 229 467.86 229 479.48 c 2
EndSplineSet
EndChar

StartChar: question
Encoding: 63 63 201
Width: 537
VWidth: 0
Flags: HW
LayerCount: 2
Fore
SplineSet
22.38 681.34 m 2
 22.38 722.4 l 1
 116.22 734.04 190.06 742.3 294.18 739 c 1
 447.88 740.02 493.18 658.8 493.18 554 c 2
 493.18 453 l 2
 493.18 318 395.04 276.02 242.02 296.34 c 1
 242.02 195 l 1
 183.68 195 l 1
 183.68 343.4 l 1
 313.44 343.4 l 0
 381.14 344.72 436.84 374.44 436.84 453 c 2
 436.84 554 l 2
 436.84 646.28 393.1 681.34 286.58 681.34 c 2
 22.38 681.34 l 2
173.4 19.26 m 2
 173.4 77.96 l 2
 173.4 90.58 180.04 98.54 193.32 98.54 c 2
 233.7 98.54 l 2
 246.32 98.54 252.62 89.58 252.62 77.96 c 2
 252.62 19.26 l 2
 252.62 6.64 245.32 0 233.7 0 c 2
 193.32 0 l 2
 181.7 0 173.4 7.64 173.4 19.26 c 2
EndSplineSet
Substitution2: "'smcp' Lowercase to Small Capitals lookup 16-1" question.smcp
EndChar

StartChar: bracketleft
Encoding: 91 91 202
Width: 323
VWidth: 60
Flags: HW
LayerCount: 2
Fore
SplineSet
95.2 -38 m 2
 95.2 670 l 2
 95.2 730 110.2 842 231.2 842 c 2
 301 842 l 1
 301 785 l 1
 231.2 785 l 2
 183.68 785 152.2 745.3 152.2 670 c 2
 152.2 -38 l 2
 152.2 -104.8 177.9 -153 231.2 -153 c 2
 301 -153 l 1
 301 -210 l 1
 231.2 -210 l 2
 110.2 -210 95.2 -98 95.2 -38 c 2
EndSplineSet
EndChar

StartChar: bracketright
Encoding: 93 93 203
Width: 323
VWidth: 60
Flags: HW
LayerCount: 2
Fore
SplineSet
22.38 -153 m 1
 92.18 -153 l 2
 145.48 -153 171.18 -104.8 171.18 -38 c 2
 171.18 670 l 2
 171.18 745.3 139.7 785 92.18 785 c 2
 22.38 785 l 1
 22.38 842 l 1
 92.18 842 l 2
 213.18 842 228.18 730 228.18 670 c 2
 228.18 -38 l 2
 228.18 -98 213.18 -210 92.18 -210 c 2
 22.38 -210 l 1
 22.38 -153 l 1
EndSplineSet
EndChar

StartChar: braceleft
Encoding: 123 123 204
Width: 314
VWidth: 60
Flags: HW
LayerCount: 2
Fore
SplineSet
22.38 306.8 m 1
 22.38 360.2 l 1
 55.38 363.2 112.38 366.62 112.38 420 c 2
 112.38 656 l 2
 112.38 752 159.18 842 292.18 842 c 1
 292.18 785 l 1
 220.68 785 169.38 757.54 169.38 656 c 2
 169.38 420 l 2
 169.38 372 132.38 341.98 86.08 334 c 1
 132.38 327.34 168.38 293 168.38 251 c 2
 168.38 -38 l 2
 168.38 -119.66 215.04 -155.64 292.18 -153 c 1
 292.18 -210 l 1
 143.18 -210 111.38 -116 111.38 -38 c 2
 111.38 247 l 2
 111.38 291.04 62.38 309.8 22.38 306.8 c 1
EndSplineSet
EndChar

StartChar: braceright
Encoding: 125 125 205
Width: 314
VWidth: 60
Flags: HW
LayerCount: 2
Fore
SplineSet
22.38 -153 m 1
 99.52 -155.64 146.18 -119.66 146.18 -38 c 2
 146.18 251 l 2
 146.18 293 182.18 327.34 228.48 334 c 1
 182.18 341.98 145.18 372 145.18 420 c 2
 145.18 656 l 2
 145.18 757.54 93.88 785 22.38 785 c 1
 22.38 842 l 1
 155.38 842 202.18 752 202.18 656 c 2
 202.18 420 l 2
 202.18 366.62 259.18 363.2 292.18 360.2 c 1
 292.18 306.8 l 1
 252.18 309.8 203.18 291.04 203.18 247 c 2
 203.18 -38 l 2
 203.18 -116 171.38 -210 22.38 -210 c 1
 22.38 -153 l 1
EndSplineSet
EndChar

StartChar: at
Encoding: 64 64 206
Width: 851
VWidth: 0
Flags: HW
LayerCount: 2
Fore
SplineSet
72.82 0 m 2
 72.82 348 l 2
 72.82 384 74.82 512 240.82 512 c 10
 450.72 512 l 18
 521.72 512 603.72 482 603.72 372 c 2
 603.72 0 l 9
 561.32 0 l 25
 549.7 64 l 17
 547.7 64 446.72 -9 355.72 -9 c 1
 281.72 -11 226.72 40 227.72 108 c 10
 227.72 161 l 2
 227.72 241 273.72 294 356.72 294 c 8
 431.18 294 548.04 293 548.04 294 c 0
 548.04 294 549.04 369.66 548.04 370 c 2
 548.04 434.84 510.56 455 447.72 455 c 2
 240.82 455 l 2
 179.9 455 129.82 435.82 129.82 348 c 2
 129.82 0 l 2
 129.82 -99.52 191.3 -120 240.82 -120 c 10
 579.62 -120 l 2
 668.76 -120 699.62 -79.56 699.62 0 c 2
 699.62 512 l 2
 699.62 594.78 655.24 643 579.62 643 c 2
 180.72 643 l 9
 180.72 678.78 l 17
 228.72 688.78 342.72 701 468.72 700 c 0
 579.62 700 l 2
 685.62 698 756.62 637 756.62 512 c 10
 756.62 0 l 2
 756.62 -98 717.62 -178 579.62 -178 c 2
 240.82 -178 l 2
 138.82 -178 72.82 -116 72.82 0 c 2
284.72 114 m 2
 284.72 79.74 317.82 47.34 362.72 48 c 1
 421.72 47 498.04 81.06 548.04 105.06 c 9
 548.04 254.92 l 17
 361.72 240.96 l 2
 321.72 237.64 284.06 215.42 284.72 159 c 2
 284.38 158 284.38 115 284.72 114 c 2
EndSplineSet
Substitution2: "'case' Case-Sensitive Forms lookup 1-1" at.alt
Substitution2: "'smcp' Lowercase to Small Capitals lookup 16-1" at.smcp
EndChar

StartChar: breve
Encoding: 293 728 207
Width: 340
VWidth: 0
Flags: HW
LayerCount: 2
Fore
SplineSet
56.12 644 m 1
 91.9 644 l 1
 91.9 598.88 129.98 565.44 170.12 565.78 c 0
 215.26 566.12 250.34 596.56 250.34 644 c 1
 286.12 644 l 1
 286.12 568 225.12 530 170.12 530 c 0
 115.12 530 56.12 572 56.12 644 c 1
EndSplineSet
EndChar

StartChar: ogonek
Encoding: 294 731 208
Width: 235
VWidth: 0
Flags: HW
LayerCount: 2
Fore
SplineSet
137.1 0 m 1
 166.92 0 l 1
 74.4 -60.18 83.1 -136.34 179.78 -136.64 c 9
 179.78 -181 l 16
 64.78 -197 -12.56 -64.68 137.1 0 c 1
EndSplineSet
EndChar

StartChar: caron
Encoding: 295 711 209
Width: 397
VWidth: 0
Flags: HW
LayerCount: 2
Fore
SplineSet
56.12 661 m 1
 109.08 661 l 1
 200.3 575.04 l 1
 288.34 661 l 1
 341.32 661 l 1
 227.8 531 l 1
 173.46 531 l 1
 56.12 661 l 1
173.46 531 m 1
227.8 531 m 1
EndSplineSet
Substitution2: "'smcp' Lowercase to Small Capitals lookup 16-1" caron.smcp
EndChar

StartChar: hungarumlaut
Encoding: 296 733 210
Width: 367
VWidth: 0
Flags: HW
LayerCount: 2
Fore
SplineSet
22.38 531 m 25
 134.14 664 l 25
 205.68 664 l 25
 72.68 531 l 25
 22.38 531 l 25
158.74 531 m 25
 270.5 664 l 25
 342.04 664 l 25
 209.04 531 l 25
 158.74 531 l 25
EndSplineSet
EndChar

StartChar: dotaccent
Encoding: 297 729 211
Width: 187
VWidth: 0
Flags: W
HStem: 544.22 96.5601<54.0861 130>
VStem: 54.08 75.92<544.22 640.78>
LayerCount: 2
Fore
SplineSet
54.08 563.48 m 2
 54.08 620.2 l 2
 54.08 632.82 60.72 640.78 74 640.78 c 2
 110.74 640.78 l 2
 123.36 640.78 130 631.82 130 620.2 c 2
 130 563.48 l 2
 130 550.86 122.36 544.22 110.74 544.22 c 2
 74 544.22 l 2
 62.38 544.22 54.08 551.86 54.08 563.48 c 2
EndSplineSet
EndChar

StartChar: Lcaron
Encoding: 299 317 213
Width: 557
VWidth: 0
Flags: HW
LayerCount: 2
Fore
SplineSet
89.52 126 m 2
 89.52 732 l 1
 146.52 732 l 1
 146.52 126 l 2
 146.52 59.74 188.02 57 225.52 57 c 2
 521.32 57 l 1
 521.32 0 l 1
 225.52 0 l 2
 159.515 0 89.52 13 89.52 126 c 2
226.24 705 m 1
 226.24 772 l 1
 283.58 772 l 1
 283.58 705 l 1
 274.94 571 l 1
 235.88 571 l 1
 226.24 705 l 1
EndSplineSet
Substitution2: "'c2sc' Capitals to Small Capitals in Latin lookup 17 subtable" lcaron.smcp
EndChar

StartChar: lcaron
Encoding: 308 318 222
Width: 299
VWidth: 0
Flags: HW
LayerCount: 2
Fore
SplineSet
67.14 189 m 2
 67.14 783 l 1
 124.14 783 l 1
 124.14 189 l 2
 124.14 85.68 146.3 67.64 193.04 57 c 2
 193.04 57 269.94 39.4 276.94 39.4 c 1
 276.94 0 l 1
 194.38 0 l 2
 106.16 0 67.14 48 67.14 189 c 2
208.3 714.34 m 1
 208.3 781.34 l 1
 265.64 781.34 l 1
 265.64 714.34 l 1
 257 580.34 l 1
 217.94 580.34 l 1
 208.3 714.34 l 1
EndSplineSet
Substitution2: "'smcp' Lowercase to Small Capitals lookup 16-1" lcaron.smcp
EndChar

StartChar: tcaron
Encoding: 312 357 226
Width: 357
VWidth: 0
Flags: HW
LayerCount: 2
Fore
SplineSet
22.38 475 m 1
 22.38 517.4 l 1
 116.28 532 l 1
 130.88 680 l 1
 173.28 680 l 1
 173.28 532 l 1
 335.08 532 l 1
 335.08 475 l 1
 173.28 475 l 1
 173.28 190 l 2
 173.28 79.54 206.48 65.32 242.18 58 c 2
 242.18 58 319.08 40.4 326.08 40.4 c 1
 326.08 1 l 1
 243.18 1 l 2
 166.52 1 116.28 49 116.28 190 c 2
 116.28 475 l 1
 22.38 475 l 1
242.74 776.54 m 1
 292.24 799.32 l 1
 300.74 755.1 l 1
 293.48 643.88 l 1
 256.46 598.32 l 1
 245.78 686.76 l 1
 242.74 776.54 l 1
EndSplineSet
AlternateSubs2: "'salt' Access All Alternates in Latin lookup 4-1" tcaron.salt
Substitution2: "'smcp' Lowercase to Small Capitals lookup 16-1" tcaron.smcp
EndChar

StartChar: dcaron
Encoding: 338 271 252
Width: 553
VWidth: 0
Flags: HW
LayerCount: 2
Fore
SplineSet
56.12 263 m 0
 56.12 399 83.18 539 234.18 539 c 3
 279.18 539 366.86 525 430.86 499 c 1
 430.86 785 l 1
 486.18 785 l 1
 486.18 0 l 1
 446.78 0 l 1
 430.18 59 l 17
 404.18 38.3 302.18 -6 234.18 -6 c 3
 89.18 -6 56.12 141 56.12 263 c 0
113.12 263 m 0
 113.12 115.66 162.38 51 234.18 51 c 3
 313.18 51 376.52 76.36 430.18 100.06 c 1
 430.18 454.64 l 1
 361.18 472.64 311.18 482 234.18 482 c 3
 163.38 482 113.12 441.64 113.12 263 c 0
538.96 757.9 m 1
 588.46 780.68 l 1
 596.96 736.46 l 1
 589.7 625.24 l 1
 552.68 579.68 l 1
 542 668.12 l 1
 538.96 757.9 l 1
EndSplineSet
AlternateSubs2: "'salt' Access All Alternates in Latin lookup 4-1" dcaron.salt
Substitution2: "'smcp' Lowercase to Small Capitals lookup 16-1" dcaron.smcp
EndChar

StartChar: Lslash
Encoding: 346 321 260
Width: 557
VWidth: 0
Flags: HW
LayerCount: 2
Fore
SplineSet
6.86 333.6 m 1
 6.86 381 l 1
 89.52 417 l 1
 89.52 732 l 1
 146.52 732 l 1
 146.52 441.52 l 1
 279.72 498.8 l 1
 279.06 452.4 l 1
 146.52 394.46 l 1
 146.52 126 l 2
 146.52 59.74 188.02 57 225.52 57 c 2
 521.32 57 l 1
 521.32 0 l 1
 225.52 0 l 2
 159.515 0 89.52 13 89.52 126 c 2
 89.52 369.6 l 1
 6.86 333.6 l 1
EndSplineSet
Substitution2: "'c2sc' Capitals to Small Capitals in Latin lookup 17 subtable" lslash.smcp
EndChar

StartChar: uni00AD
Encoding: 173 173 261
Width: 358
VWidth: 0
Flags: HW
LayerCount: 2
Fore
SplineSet
22.38 261.5 m 1
 22.38 318.5 l 1
 336.38 318.5 l 1
 336.38 261.5 l 1
 22.38 261.5 l 1
EndSplineSet
Substitution2: "'case' Case-Sensitive Forms lookup 1-1" uni00AD.alt
Substitution2: "'c2sc' Capitals to Small Capitals in Latin lookup 17 subtable" uni00AD.smcp
Substitution2: "'smcp' Lowercase to Small Capitals lookup 16-1" uni00AD.smcp
EndChar

StartChar: lslash
Encoding: 347 322 262
Width: 319
VWidth: 0
Flags: HW
LayerCount: 2
Fore
SplineSet
10.34 379.2 m 1
 10.34 426.6 l 1
 86.94 461.28 l 1
 86.94 783 l 1
 143.94 783 l 1
 143.94 486.82 l 1
 283.54 551.2 l 1
 282.54 504.8 l 1
 143.94 440.08 l 1
 143.94 189 l 2
 143.94 85.68 172.04 65 212.84 57 c 2
 212.84 57 289.74 39.4 296.74 39.4 c 1
 296.74 0 l 1
 214.18 0 l 2
 137.18 0 86.94 48 86.94 189 c 2
 86.94 414.88 l 1
 10.34 379.2 l 1
EndSplineSet
Substitution2: "'smcp' Lowercase to Small Capitals lookup 16-1" lslash.smcp
EndChar

StartChar: dcroat
Encoding: 349 273 264
Width: 553
VWidth: 0
Flags: HW
LayerCount: 2
Fore
SplineSet
56.12 263 m 0
 56.12 399 83.52 539 234.52 539 c 0
 279.52 539 366.86 525 430.86 499 c 1
 430.86 624.5 l 1
 305.46 624.5 l 1
 305.46 664.9 l 1
 430.86 664.9 l 1
 430.86 785 l 1
 486.52 785 l 1
 486.52 664.9 l 1
 562.26 664.9 l 1
 562.26 624.5 l 1
 486.52 624.5 l 1
 486.52 0 l 1
 447.12 0 l 1
 430.52 59 l 1
 404.52 38.3 302.52 -6 234.52 -6 c 0
 89.52 -6 56.12 141 56.12 263 c 0
113.12 263 m 0
 113.12 118.04 162.72 51 234.52 51 c 0
 313.52 51 376.86 76.36 430.52 100.06 c 1
 430.52 454.64 l 1
 361.52 472.64 311.52 482 234.52 482 c 0
 163.72 482 113.12 440.28 113.12 263 c 0
EndSplineSet
AlternateSubs2: "'salt' Access All Alternates in Latin lookup 4-1" dcroat.salt
Substitution2: "'smcp' Lowercase to Small Capitals lookup 16-1" dcroat.smcp
EndChar

StartChar: questiondown.alt
Encoding: 350 -1 265
Width: 537
VWidth: 0
Flags: HW
LayerCount: 2
Fore
SplineSet
44.76 178.66 m 2
 44.76 280 l 2
 44.76 415 142.9 456.98 295.92 436.66 c 1
 295.92 438.64 297.24 534.04 295.92 538 c 1
 354.26 538 l 1
 354.26 389.6 l 1
 315.98 390.26 262.78 390.92 224.5 389.6 c 0
 156.8 388.28 101.1 358.56 101.1 280 c 2
 101.1 178.66 l 2
 101.1 86.38 144.84 51 251.36 51 c 2
 515.56 51.66 l 2
 515.56 10.6 l 1
 421.72 -1.04 347.88 -9.3 243.76 -6 c 1
 90.06 -7.02 44.76 73.86 44.76 178.66 c 2
287.3 654.7 m 2
 287.3 713.4 l 2
 287.3 726.02 294.6 732.66 306.22 732.66 c 2
 346.6 732.66 l 2
 358.22 732.66 366.52 725.02 366.52 713.4 c 2
 366.52 654.7 l 2
 366.52 642.08 359.88 634.12 346.6 634.12 c 2
 306.22 634.12 l 2
 293.6 634.12 287.3 643.08 287.3 654.7 c 2
EndSplineSet
EndChar

StartChar: at.alt
Encoding: 351 -1 266
Width: 853
VWidth: 0
Flags: HW
LayerCount: 2
Fore
SplineSet
72.82 433.48 m 2
 72.82 469.48 75.48 597.48 241.48 597.48 c 10
 451.38 597.48 l 18
 522.38 597.48 604.38 567.48 604.38 457.48 c 2
 604.38 85.48 l 9
 561.98 85.48 l 25
 550.36 149.48 l 17
 548.36 149.48 447.38 76.48 356.38 76.48 c 1
 282.38 74.48 227.38 125.48 228.38 193.48 c 10
 228.38 246.48 l 2
 228.38 326.48 274.38 379.48 357.38 379.48 c 8
 431.84 379.48 548.7 378.48 548.7 379.48 c 0
 548.7 379.48 549.7 455.14 548.7 455.48 c 2
 548.7 520.32 511.22 540.48 448.38 540.48 c 2
 241.48 540.48 l 2
 180.56 540.48 130.48 521.3 130.48 433.48 c 2
 130.48 85.48 l 2
 130.48 -14.04 191.96 -34.52 241.48 -34.52 c 10
 580.28 -34.52 l 2
 669.42 -34.52 700.28 5.92 700.28 85.48 c 2
 700.28 597.48 l 2
 700.28 680.26 655.9 728.48 580.28 728.48 c 2
 181.38 728.48 l 9
 181.38 764.26 l 17
 229.38 774.26 343.38 786.48 469.38 785.48 c 0
 580.28 784.82 l 2
 686.28 782.82 757.28 722.48 757.28 597.48 c 10
 757.28 85.48 l 2
 757.28 -12.52 718.28 -92.52 580.28 -92.52 c 2
 241.48 -92.52 l 2
 139.48 -92.52 73.48 -30.52 73.48 85.48 c 2
 72.82 433.48 l 2
285.38 199.48 m 2
 285.38 165.22 318.48 132.82 363.38 133.48 c 1
 422.38 132.48 498.7 166.54 548.7 190.54 c 9
 548.7 340.4 l 17
 362.38 326.44 l 2
 322.38 323.12 284.72 300.9 285.38 244.48 c 2
 285.38 243.48 285.04 200.48 285.38 199.48 c 2
EndSplineSet
EndChar

StartChar: questiondown
Encoding: 191 191 267
Width: 538
VWidth: 0
Flags: HW
LayerCount: 2
Fore
SplineSet
44.42 20.64 m 1
 43.1 143.76 141.24 194.98 294.26 174.66 c 1
 294.26 176.64 295.58 272.04 294.26 276 c 1
 353.92 276 l 1
 354.58 127.6 l 1
 316.3 128.26 262.44 128.92 224.16 127.6 c 0
 156.46 126.28 112.64 84.68 110 16.02 c 1
 110 16.02 109.34 -71.46 109.34 -84.66 c 1
 109.34 -159.12 147.8 -212.98 251.02 -211 c 1
 284.02 -211 516.54 -210.34 516.54 -210.34 c 2
 514.56 -210.34 516.54 -252.06 515.22 -251.4 c 1
 421.38 -263.04 347.54 -271.3 243.42 -268 c 1
 78.5 -269.68 44.42 -176.92 44.42 -81.36 c 2
 44.42 20.64 l 1
285.64 394.68 m 1
 285.64 449.42 l 2
 285.64 461.38 294.92 470 305.22 470.66 c 1
 341.64 470.66 l 1
 353.26 470 361.56 463.02 361.56 451.4 c 2
 361.56 394.68 l 2
 360.9 382.72 354.92 374.76 343.62 374.1 c 1
 302.58 374.1 l 1
 291.28 376.74 286.3 384.38 285.64 394.68 c 1
EndSplineSet
Substitution2: "'case' Case-Sensitive Forms lookup 1-1" questiondown.alt
Substitution2: "'smcp' Lowercase to Small Capitals lookup 16-1" questiondown.smcp
EndChar

StartChar: oe
Encoding: 352 339 268
Width: 924
VWidth: 0
Flags: HW
LayerCount: 2
Fore
SplineSet
56.12 258 m 0
 56.12 475 115.78 536 284.68 536 c 0
 389.84 536 450.5 507.84 481.76 443.24 c 1
 512 521.28 573.96 535 677.4 535 c 0
 801.04 535 880.06 523 880.06 347 c 0
 880.06 269.32 836 233.5 743.4 233.5 c 2
 513.26 233.5 l 1
 510.62 90.24 547.88 52 630.26 52 c 0
 722.26 52 795.06 54.4 870.06 65.4 c 1
 870.06 23 l 1
 789.06 0 713.26 -5.34 630.26 -5 c 0
 550.76 -4.66 505.08 20.8 481.12 83.1 c 1
 449.86 19.78 389.2 -5 284.68 -5 c 0
 106.7 -5 56.12 68 56.12 258 c 0
113.12 258 m 0
 113.12 69.44 173.52 52 284.68 52 c 0
 419.28 52 455.6 89.66 455.6 264.6 c 0
 455.6 445.3 407 479 284.68 479 c 0
 169.96 479 113.12 462.94 113.12 258 c 0
513.26 289.5 m 1
 743.4 289.5 l 2
 791.48 289.5 823.06 301.42 823.06 347 c 0
 823.06 467.3 789.46 478 678.06 478 c 0
 555.56 478 509.3 460.54 513.26 289.5 c 1
EndSplineSet
Substitution2: "'smcp' Lowercase to Small Capitals lookup 16-1" oe.smcp
EndChar

StartChar: OE
Encoding: 353 338 269
Width: 1054
VWidth: 0
Flags: HW
LayerCount: 2
Fore
SplineSet
129.82 361 m 0
 129.82 90.06 185.58 53 350.72 53 c 0
 518.28 53 571.28 101.12 571.28 364.06 c 0
 571.28 664.76 497.26 680 350.72 680 c 0
 212.62 680 129.82 672.92 129.82 361 c 0
72.82 361 m 0
 72.82 704 181.36 737 350.72 737 c 0
 453.9 737 532.28 724.96 577.88 639.2 c 1
 590.42 708.54 640.16 735 697.28 732 c 2
 997.28 718.04 l 1
 997.28 675 l 1
 697.28 675 l 2
 641.88 675 628.28 645.32 628.28 602 c 2
 628.28 602 628.28 417.98 628.62 392.82 c 1
 957.28 384.52 l 1
 957.28 340.82 l 1
 628.62 332.52 l 1
 628.62 307.02 628.28 123 628.28 123 c 2
 628.94 56.74 669.44 54 707.28 54 c 2
 997.28 54 l 1
 997.28 11.62 l 1
 707.28 -3 l 2
 647.14 -6 589.76 7.74 576.56 89.8 c 1
 531.96 10.72 455.92 -4 350.72 -4 c 0
 170.72 -4 72.82 28 72.82 361 c 0
EndSplineSet
EndChar

StartChar: guillemotright
Encoding: 187 187 271
Width: 548
VWidth: 0
Flags: HW
LayerCount: 2
Fore
SplineSet
56.12 186.1 m 1
 227.68 354 l 1
 61.46 517.24 l 1
 101.22 557.34 l 1
 307.22 354 l 1
 96.56 145.66 l 1
 56.12 186.1 l 1
241.44 186.1 m 1
 413 354 l 1
 246.78 517.24 l 1
 287.22 557.34 l 1
 492.54 354 l 1
 281.88 145.66 l 1
 241.44 186.1 l 1
EndSplineSet
EndChar

StartChar: cent
Encoding: 162 162 272
Width: 489
VWidth: 0
Flags: HW
LayerCount: 2
Fore
SplineSet
44.76 266 m 0
 44.76 505.34 120.44 540.62 236.1 537.32 c 1
 236.1 628.56 l 1
 281.82 628.56 l 1
 281.82 533.68 l 1
 331.82 528.7 391.86 519.36 437.56 510 c 1
 437.56 469.6 l 1
 437.56 469.6 308.76 480.32 219.76 480.32 c 0
 149.22 480.32 101.76 460.18 101.76 262 c 0
 101.76 90.98 143 50.68 219.76 50.68 c 0
 311.76 50.68 444.56 65.08 444.56 65.08 c 1
 444.56 22.68 l 1
 384.8 5.32 337.54 -1.34 281.82 -4 c 1
 281.82 -91.24 l 1
 236.1 -91.24 l 1
 236.1 -6.32 l 1
 121.82 -7.64 44.76 23.3849 44.76 266 c 0
EndSplineSet
EndChar

StartChar: sterling
Encoding: 163 163 273
Width: 597
VWidth: 0
Flags: HW
LayerCount: 2
Fore
SplineSet
56.12 0 m 1
 56.12 43.7 l 1
 128.12 57 l 1
 128.12 336.8 l 1
 56.12 336.8 l 1
 56.12 371.26 l 1
 128.12 385.2 l 1
 128.12 505 l 2
 128.12 719 225.12 732 356.12 732 c 3
 413.12 732 541.92 718.38 541.92 718.38 c 1
 541.92 676 l 1
 358.12 676 l 2
 232.04 676 185.12 667.22 185.12 505 c 2
 185.12 385.2 l 1
 462.58 371.26 l 1
 462.58 336.8 l 1
 185.12 336.8 l 1
 185.12 57 l 1
 540.58 57 l 1
 540.58 0 l 1
 56.12 0 l 1
EndSplineSet
Substitution2: "'smcp' Lowercase to Small Capitals lookup 16-1" sterling.smcp
EndChar

StartChar: yen
Encoding: 165 165 274
Width: 594
VWidth: 0
Flags: HW
LayerCount: 2
Fore
SplineSet
22.38 732 m 1
 85.7 732 l 1
 287.28 377.68 l 1
 506.54 732 l 1
 572.18 732 l 1
 316.78 321 l 1
 506.28 321 l 1
 506.28 277.3 l 1
 315.78 277.3 l 1
 315.78 212 l 1
 506.28 212 l 1
 506.28 168.3 l 1
 315.78 168.3 l 1
 315.78 0 l 1
 258.78 0 l 1
 258.78 168.3 l 1
 79.28 168.3 l 1
 79.28 212 l 1
 258.78 212 l 1
 258.78 277.3 l 1
 79.28 277.3 l 1
 79.28 321 l 1
 257.78 321 l 1
 22.38 732 l 1
EndSplineSet
Substitution2: "'smcp' Lowercase to Small Capitals lookup 16-1" yen.smcp
EndChar

StartChar: section
Encoding: 167 167 275
Width: 554
VWidth: 0
Flags: HW
LayerCount: 2
Fore
SplineSet
62.12 353 m 2
 62.12 415 l 2
 62.12 463.98 71.8 498.02 109.86 508 c 1
 73.14 517.32 61.46 555 61.46 590 c 2
 61.46 660 l 2
 61.46 758 127.46 784 191.46 784 c 3
 240.46 784 417.26 772.06 455.26 768.06 c 1
 455.26 727 l 1
 191.46 727 l 2
 141.14 727 119.12 705.78 118.46 660 c 2
 118.46 590 l 2
 118.46 543.5 150.5 534.5 191.46 534.5 c 2
 360.26 534.5 l 2
 473.26 534.5 494.26 490 493.26 416 c 2
 493.26 354 l 2
 493.26 321.92 490.58 270.32 447.86 265 c 1
 489.6 257.64 492.26 216 492.26 183 c 2
 492.26 110 l 2
 492.26 1 418.26 -8 354.26 -8 c 3
 305.26 -8 136.46 3.94 98.46 7.94 c 1
 98.46 49 l 1
 354.26 49 l 2
 401.18 49 434.6 58.44 435.26 110 c 2
 435.26 183 l 2
 435.26 230.44 419.98 238.5 360.26 238.5 c 2
 191.46 238.5 l 2
 111.46 238.5 62.12 251 62.12 353 c 2
118.46 353 m 2
 118.46 297.46 140.18 295.5 191.46 295.5 c 2
 360.26 295.5 l 2
 432.52 295.5 435.26 311.72 435.26 354 c 2
 436.26 355 435.26 416 435.26 416 c 2
 435.26 461.2 427.82 478.5 360.26 478.5 c 2
 191.46 478.5 l 2
 137.92 478.5 118.46 473.88 118.46 414 c 2
 118.46 353 l 2
EndSplineSet
EndChar

StartChar: g.salt
Encoding: 355 -1 276
Width: 557
VWidth: 0
Flags: HW
LayerCount: 2
Fore
SplineSet
56.12 268 m 3
 56.12 436 115.12 537 240.12 537 c 3
 346.12 537 443.58 521.4 490.58 517.4 c 1
 490.58 -104 l 2
 490.58 -228 401.24 -279 331.92 -272 c 2
 84.12 -248 l 1
 84.12 -210.9 l 1
 331.92 -216 l 2
 385.6 -217.36 433.58 -182.96 433.58 -104 c 2
 433.58 29 l 1
 369.58 3 285.12 -10 240.12 -10 c 3
 87.12 -10 56.12 110 56.12 268 c 3
113.12 268 m 3
 113.12 150.74 125.44 47 240.12 47 c 3
 314.12 47 350.58 54.4 433.58 75.4 c 1
 433.58 480 l 2
 240.12 480 l 2
 131.08 480 113.12 360.24 113.12 268 c 3
EndSplineSet
EndChar

StartChar: guillemotleft
Encoding: 171 171 277
Width: 548
VWidth: 0
Flags: HW
LayerCount: 2
Fore
SplineSet
56.12 354 m 1
 261.44 557.34 l 1
 301.88 517.24 l 1
 135.66 354 l 1
 307.22 186.1 l 1
 266.78 145.66 l 1
 56.12 354 l 1
241.44 354 m 1
 447.44 557.34 l 1
 487.2 517.24 l 1
 320.98 354 l 1
 492.54 186.1 l 1
 452.1 145.66 l 1
 241.44 354 l 1
EndSplineSet
EndChar

StartChar: paragraph
Encoding: 182 182 278
Width: 577
VWidth: 0
Flags: HW
LayerCount: 2
Fore
SplineSet
44.76 499 m 2
 44.76 592 l 2
 44.76 687 123.76 732 200.76 732 c 1
 555.56 732 l 1
 555.56 673 l 1
 486.56 673 l 1
 486.56 0 l 1
 429.56 0 l 1
 429.56 675 l 1
 311.76 675 l 1
 311.76 -270 l 1
 254.76 -270 l 1
 254.76 369.62 l 1
 248.42 366.6 229.76 354 200.76 355 c 0
 97.76 355 44.76 421 44.76 499 c 2
101.76 501 m 2
 101.76 423.02 172.76 412 200.76 412 c 10
 254.76 412 l 25
 254.76 675 l 25
 200.76 675 l 2
 128.96 675 101.76 630.92 101.76 590 c 10
 101.76 501 l 2
EndSplineSet
EndChar

StartChar: macron
Encoding: 175 175 279
Width: 390
VWidth: 0
Flags: HW
LayerCount: 2
Fore
SplineSet
56.12 531 m 1
 56.12 577.68 l 1
 334.52 577.68 l 1
 334.52 531 l 1
 56.12 531 l 1
EndSplineSet
Substitution2: "'smcp' Lowercase to Small Capitals lookup 16-1" macron.smcp
EndChar

StartChar: copyright
Encoding: 169 169 280
Width: 829
VWidth: 0
Flags: HW
LayerCount: 2
Fore
SplineSet
61.46 368 m 0
 61.46 531 101.22 732 293.22 732 c 2
 558.46 732 l 2
 754.46 732 767.56 492 767.56 368 c 0
 767.56 175 709.46 0 558.46 0 c 2
 293.22 0 l 2
 109.22 0 61.46 234 61.46 368 c 0
108.46 368 m 0
 107.78 220.24 164.94 47.66 293.22 47 c 2
 558.46 47 l 2
 648.36 47.66 720.56 154.82 720.56 368 c 0
 720.56 512.14 696.26 685 558.46 685 c 2
 293.22 685 l 2
 196.74 685 109.48 619.86 108.46 368 c 0
237.46 365 m 3
 237.46 526 300.46 583 381.46 583 c 3
 422.46 583 503.46 571.38 559.46 561.38 c 1
 559.46 524 l 1
 496.46 533 414.46 536 381.46 536 c 3
 319.3 536 284.46 481.96 284.46 362 c 3
 284.46 263.38 304.94 194 381.46 194 c 3
 453.46 194 526.38 202.96 565.46 210 c 1
 565.46 172.62 l 17
 501.46 154.62 448.46 147 381.46 147 c 3
 302.46 147 237.46 188 237.46 365 c 3
EndSplineSet
EndChar

StartChar: registered
Encoding: 174 174 281
Width: 829
VWidth: 0
Flags: HW
LayerCount: 2
Fore
SplineSet
61.46 368 m 0
 61.46 531 101.22 732 293.22 732 c 2
 558.46 732 l 2
 754.46 732 767.56 492 767.56 368 c 0
 767.56 175 709.46 0 558.46 0 c 2
 293.22 0 l 2
 109.22 0 61.46 234 61.46 368 c 0
108.46 368 m 0
 107.78 220.24 164.94 47.66 293.22 47 c 2
 558.46 47 l 2
 648.36 47.66 720.56 154.82 720.56 368 c 0
 720.56 512.14 696.26 685 558.46 685 c 2
 293.22 685 l 2
 196.74 685 109.48 619.86 108.46 368 c 0
269.16 153 m 1
 269.16 580 l 1
 446.16 580 l 2
 512.16 580 576.76 558.68 576.76 452.68 c 3
 576.76 337.02 509.32 335.14 475.66 329.5 c 1
 573.46 153 l 1
 520.16 153 l 1
 422.36 330.48 l 1
 316.16 340.1 l 1
 316.16 153 l 1
 269.16 153 l 1
316.16 372.2 m 1
 452.16 372.2 l 2
 509.6 372.2 529.76 385.54 529.76 451.68 c 3
 529.76 522.5 491.08 533 452.16 533 c 2
 316.16 533 l 1
 316.16 372.2 l 1
EndSplineSet
EndChar

StartChar: plusminus
Encoding: 177 177 282
Width: 529
VWidth: 0
Flags: HW
LayerCount: 2
Fore
SplineSet
62.8 104 m 1
 62.8 161 l 1
 468.6 161 l 1
 468.6 104 l 1
 62.8 104 l 1
62.8 395.16 m 1
 62.8 452.16 l 1
 236.54 452.16 l 1
 236.54 626.56 l 1
 293.54 626.56 l 1
 293.54 452.16 l 1
 468.6 452.16 l 1
 468.6 395.16 l 1
 293.54 395.16 l 1
 293.54 220.76 l 1
 236.54 220.76 l 1
 236.54 395.16 l 1
 62.8 395.16 l 1
EndSplineSet
EndChar

StartChar: logicalnot
Encoding: 172 172 283
Width: 528
VWidth: 0
Flags: HW
LayerCount: 2
Fore
SplineSet
56.12 264.5 m 1
 56.12 321.5 l 1
 472.58 321.5 l 1
 472.58 264.5 472.58 216 472.58 159 c 1
 415.58 159 l 1
 415.58 264.5 l 1
 56.12 264.5 l 1
EndSplineSet
EndChar

StartChar: guilsinglleft
Encoding: 356 8249 284
Width: 355
VWidth: 0
Flags: HW
LayerCount: 2
Fore
SplineSet
56.12 354 m 1
 262.12 557 l 1
 301.88 517.24 l 1
 134.98 354 l 1
 307.22 186.1 l 1
 266.78 146 l 1
 56.12 354 l 1
EndSplineSet
EndChar

StartChar: guilsinglright
Encoding: 357 8250 285
Width: 355
VWidth: 0
Flags: HW
LayerCount: 2
Fore
SplineSet
56.12 186.1 m 1
 227.68 354 l 1
 60.78 517.24 l 1
 101.22 557 l 1
 307.22 354 l 1
 95.88 146 l 1
 56.12 186.1 l 1
EndSplineSet
EndChar

StartChar: perthousand
Encoding: 358 8240 286
Width: 1380
VWidth: 0
Flags: HW
LayerCount: 2
Fore
SplineSet
47.1 474 m 2
 47.1 607 l 2
 47.1 692 75.1 732 176.1 732 c 2
 277.1 732 l 2
 375.1 732 404.1 692 404.1 607 c 2
 404.1 474 l 18
 404.1 389 376.1 349 275.1 349 c 2
 174.1 349 l 2
 76.1 349 47.1 389 47.1 474 c 2
95.1 474 m 2
 95.1 412.42 116.56 397 174.1 397 c 2
 275.1 397 l 2
 339.56 397 356.1 414.04 356.1 474 c 10
 356.1 607 l 2
 356.1 665.86 337.36 684 277.1 684 c 2
 176.1 684 l 2
 110.96 684 95.1 666.96 95.1 607 c 2
 95.1 474 l 2
232.1 0 m 1
 670.1 732 l 1
 724.1 732 l 1
 286.1 0 l 1
 232.1 0 l 1
550.9 127.34 m 2
 550.9 260.34 l 2
 550.9 345.34 578.9 385.34 679.9 385.34 c 2
 780.9 385.34 l 2
 878.9 385.34 907.9 345.34 907.9 260.34 c 2
 907.9 127.34 l 18
 907.9 42.34 879.9 2.34 778.9 2.34 c 2
 677.9 2.34 l 2
 579.9 2.34 550.9 42.34 550.9 127.34 c 2
598.9 127.34 m 2
 598.9 65.76 620.36 50.34 677.9 50.34 c 2
 778.9 50.34 l 2
 843.36 50.34 859.9 67.38 859.9 127.34 c 10
 859.9 260.34 l 2
 859.9 319.2 841.16 337.34 780.9 337.34 c 2
 679.9 337.34 l 2
 614.76 337.34 598.9 320.3 598.9 260.34 c 2
 598.9 127.34 l 2
976.56 127.34 m 2
 976.56 260.34 l 2
 976.56 345.34 1004.56 385.34 1105.56 385.34 c 2
 1206.56 385.34 l 2
 1304.56 385.34 1333.56 345.34 1333.56 260.34 c 2
 1333.56 127.34 l 18
 1333.56 42.34 1305.56 2.34 1204.56 2.34 c 2
 1103.56 2.34 l 2
 1005.56 2.34 976.56 42.34 976.56 127.34 c 2
1024.56 127.34 m 2
 1024.56 65.76 1046.02 50.34 1103.56 50.34 c 2
 1204.56 50.34 l 2
 1269.02 50.34 1285.56 67.38 1285.56 127.34 c 10
 1285.56 260.34 l 2
 1285.56 319.2 1266.82 337.34 1206.56 337.34 c 2
 1105.56 337.34 l 2
 1040.42 337.34 1024.56 320.3 1024.56 260.34 c 2
 1024.56 127.34 l 2
EndSplineSet
Substitution2: "'smcp' Lowercase to Small Capitals lookup 16-1" perthousand.smcp
EndChar

StartChar: dagger
Encoding: 359 8224 287
Width: 388
VWidth: 0
Flags: HW
LayerCount: 2
Fore
SplineSet
22.38 496.82 m 1
 22.38 540.52 l 1
 164.56 548.48 l 1
 171.54 770 l 1
 217.88 770 l 1
 224.86 548.48 l 1
 366.38 540.52 l 1
 366.38 496.82 l 1
 224.86 488.52 l 1
 216.88 -72 l 1
 170.54 -72 l 1
 164.56 488.52 l 1
 22.38 496.82 l 1
EndSplineSet
EndChar

StartChar: daggerdbl
Encoding: 360 8225 288
Width: 411
VWidth: 0
Flags: HW
LayerCount: 2
Fore
SplineSet
22.38 180.8 m 1
 22.38 224.5 l 1
 165.9 232.46 l 1
 164.56 488.52 l 1
 22.38 496.82 l 1
 22.38 540.52 l 1
 164.56 548.48 l 1
 172.2 770 l 1
 217.88 770 l 1
 224.86 548.48 l 1
 366.38 540.52 l 1
 366.38 496.82 l 1
 224.86 488.52 l 1
 221.86 232.46 l 1
 366.38 224.5 l 1
 366.38 180.8 l 1
 220.54 172.5 l 1
 216.88 -72 l 1
 170.54 -72 l 1
 167.22 172.5 l 1
 22.38 180.8 l 1
EndSplineSet
EndChar

StartChar: trademark
Encoding: 361 8482 289
Width: 696
VWidth: 0
Flags: HW
LayerCount: 2
Fore
SplineSet
22.38 685 m 1
 22.38 732 l 1
 281.38 732 l 1
 281.38 685 l 1
 175.88 685 l 1
 175.88 383 l 1
 128.88 383 l 1
 128.88 685 l 1
 22.38 685 l 1
320.38 383 m 1
 347.38 732 l 1
 392.7 732 l 1
 503.38 464.4 l 1
 601.4 732 l 1
 648.38 732 l 1
 679.38 383 l 1
 633.06 383 l 1
 611.98 624.1 l 1
 523.9 383 l 1
 485.18 383 l 1
 385.1 625.1 l 1
 367.04 383 l 1
 320.38 383 l 1
EndSplineSet
EndChar

StartChar: notequal
Encoding: 362 8800 290
Width: 471
VWidth: 0
Flags: HW
LayerCount: 2
Fore
SplineSet
22.38 212 m 1
 22.38 272.3 l 1
 164.96 272.3 l 1
 263.74 434.7 l 1
 22.38 434.7 l 1
 22.38 495 l 1
 300.18 495 l 1
 346.18 570 l 1
 392.56 570 l 1
 346.56 495 l 1
 449.38 495 l 1
 449.38 434.7 l 1
 310.12 434.7 l 1
 211.34 272.3 l 1
 449.38 272.3 l 1
 449.38 212 l 1
 174.56 212 l 1
 122.56 126 l 1
 76.18 126 l 1
 128.18 212 l 1
 22.38 212 l 1
EndSplineSet
EndChar

StartChar: infinity
Encoding: 363 8734 291
Width: 797
VWidth: 0
Flags: HW
LayerCount: 2
Fore
SplineSet
56.12 341 m 3
 56.12 428 77.32 514 215.32 514 c 3
 291.32 514 360.78 451.7 398.78 393.7 c 1
 435.42 450.68 506.92 514 582.92 514 c 3
 720.92 514 742.12 424.6 742.12 341 c 3
 742.12 249 709.92 169 582.92 169 c 3
 501.5 169 438.72 220.08 398.12 292.3 c 1
 356.84 216.68 294.76 169 215.32 169 c 3
 88.32 169 56.12 249 56.12 341 c 3
113.12 341 m 3
 113.12 270.02 133.56 226 215.32 226 c 3
 290.44 226 342.28 293.02 373.58 341.68 c 1
 336.14 398.82 271.68 457 215.32 457 c 3
 125.26 457 113.12 414.36 113.12 341 c 3
423.98 341.68 m 1
 460.38 283.5 512.56 226 582.92 226 c 3
 666.46 226 685.12 275.8 685.12 341 c 3
 685.12 407.56 674.72 457 582.92 457 c 3
 526.56 457 459.04 396.44 423.98 341.68 c 1
EndSplineSet
EndChar

StartChar: lessequal
Encoding: 364 8804 292
Width: 487
VWidth: 0
Flags: HW
LayerCount: 2
Fore
SplineSet
56.12 112.16 m 1
 56.12 169.16 l 1
 432.8 169.16 l 1
 432.8 112.16 l 1
 56.12 112.16 l 1
56.12 404.54 m 1
 56.12 464.14 l 1
 420.58 636.34 l 1
 420.58 574.36 l 1
 131.66 434.34 l 1
 420.58 283.98 l 1
 420.58 220.34 l 1
 56.12 404.54 l 1
EndSplineSet
EndChar

StartChar: greaterequal
Encoding: 365 8805 293
Width: 487
VWidth: 0
Flags: HW
LayerCount: 2
Fore
SplineSet
56.12 112.16 m 1
 56.12 169.16 l 1
 432.8 169.16 l 1
 432.8 112.16 l 1
 56.12 112.16 l 1
67.66 220.34 m 1
 67.66 283.98 l 1
 356.58 434.34 l 1
 67.66 574.36 l 1
 67.66 636.34 l 1
 432.8 464.14 l 1
 432.8 404.54 l 1
 67.66 220.34 l 1
EndSplineSet
EndChar

StartChar: circumflex
Encoding: 366 710 294
Width: 397
VWidth: 0
Flags: HW
LayerCount: 2
Fore
SplineSet
56.12 531 m 1
 178.22 661 l 1
 231.88 661 l 1
 341.32 531 l 1
 288.34 531 l 1
 203.4 616.96 l 1
 109.76 531 l 1
 56.12 531 l 1
178.22 661 m 1
231.88 661 m 1
EndSplineSet
Substitution2: "'smcp' Lowercase to Small Capitals lookup 16-1" circumflex.smcp
EndChar

StartChar: tilde
Encoding: 367 732 295
Width: 449
VWidth: 0
Flags: HW
LayerCount: 2
Fore
SplineSet
56.12 572 m 17
 94.08 603.98 129.72 633.96 170.04 633.96 c 1
 216.3 631.98 254.14 586.7 283.5 586.04 c 1
 312.6 585.38 348.62 610.14 377.56 627.82 c 9
 394.12 597.72 l 17
 361.12 570 324.18 533.74 282.18 535.06 c 1
 230.94 537.04 203.7 582.98 168.72 582.32 c 1
 126.76 581.66 108 560.3 71.34 542.22 c 9
 56.12 572 l 17
EndSplineSet
Substitution2: "'smcp' Lowercase to Small Capitals lookup 16-1" tilde.smcp
EndChar

StartChar: ring
Encoding: 368 730 296
Width: 314
VWidth: 0
Flags: HW
LayerCount: 2
Fore
SplineSet
56.12 632 m 0
 56.12 689 102.12 735 158.12 735 c 0
 214.12 735 258.78 689 258.78 632 c 0
 258.78 575 214.12 530 158.12 530 c 0
 102.12 530 56.12 575 56.12 632 c 0
91.9 632 m 27
 91.9 595.88 122 566.78 158.12 566.78 c 27
 194.24 566.78 223 595.88 223 632 c 27
 223 668.12 194.24 698.22 158.12 698.22 c 27
 122 698.22 91.9 668.12 91.9 632 c 27
EndSplineSet
Substitution2: "'smcp' Lowercase to Small Capitals lookup 16-1" ring.smcp
EndChar

StartChar: fraction
Encoding: 370 8260 298
Width: 208
VWidth: 0
Flags: HW
LayerCount: 2
Fore
SplineSet
-100.88 0 m 1
 260.04 744.92 l 1
 309.06 744.92 l 1
 -51.86 0 l 1
 -100.88 0 l 1
EndSplineSet
EndChar

StartChar: dotlessi
Encoding: 371 305 299
Width: 191
VWidth: 0
Flags: HW
LayerCount: 2
Fore
SplineSet
67.14 0 m 1
 67.14 531 l 1
 124.14 531 l 1
 124.14 0 l 1
 67.14 0 l 1
EndSplineSet
EndChar

StartChar: fi
Encoding: 372 64257 300
Width: 603
VWidth: 0
Flags: HW
LayerCount: 2
Fore
SplineSet
22.38 472.3 m 1
 22.38 514.68 l 1
 120.38 529.3 l 1
 120.38 584 l 2
 120.38 702 190.58 786 310.58 786 c 0
 355.16 786 441.4 772.1 496.18 757.1 c 1
 496.18 720 l 1
 495.18 720 324.18 729.98 324.18 729.98 c 2
 250.32 733.98 177.38 698.46 177.38 584 c 2
 177.38 529.3 l 1
 541.78 520.32 l 1
 541.78 0 l 1
 484.12 0 l 1
 484.12 472.3 l 1
 177.38 472.3 l 1
 177.38 0 l 1
 120.38 0 l 1
 120.38 472.3 l 1
 22.38 472.3 l 1
EndSplineSet
Ligature2: "'liga' Standard Ligatures lookup 15-1" f i
EndChar

StartChar: fl
Encoding: 373 64258 301
Width: 718
VWidth: 0
Flags: HW
LayerCount: 2
Fore
SplineSet
22.38 474 m 1
 22.38 516.38 l 1
 121.04 531 l 1
 121.04 584 l 2
 121.04 692 164.38 786 284.38 786 c 1
 543.18 786 l 1
 543.18 190.02 l 2
 543.18 79.22 573.5 67.3 612.08 58.02 c 1
 612.08 58.02 688.98 40.42 695.98 40.42 c 1
 695.98 1.02 l 1
 615.12 1.02 l 2
 524.52 1.02 486.18 52.08 486.18 190.02 c 2
 486.18 730.32 l 1
 297.3 730.32 l 2
 225.48 730.32 178.04 698.12 178.04 584 c 2
 178.04 531 l 1
 324.38 531 l 1
 324.38 474 l 1
 176.72 474 l 1
 176.72 0 l 1
 119.72 0 l 1
 119.72 474 l 1
 22.38 474 l 1
EndSplineSet
Ligature2: "'liga' Standard Ligatures lookup 15-1" f l
EndChar

StartChar: exclamdown
Encoding: 161 161 302
Width: 268
VWidth: 0
Flags: HW
LayerCount: 2
Fore
SplineSet
92.86 385.68 m 2
 92.86 442.08 l 2
 92.86 454.04 101.16 460 112.78 460.66 c 1
 148.86 460.66 l 1
 159.16 460 168.78 451.72 168.78 440.1 c 2
 168.78 386.34 l 1
 168.12 375.7 164.12 364.1 149.52 364.1 c 1
 112.78 364.1 l 1
 99.5 364.1 92.86 373.4 92.86 385.68 c 2
98.54 -270 m 1
 104.2 262.7 l 1
 157.78 262.7 l 1
 164.76 -270 l 1
 98.54 -270 l 1
EndSplineSet
Substitution2: "'case' Case-Sensitive Forms lookup 1-1" exclamdown.alt
Substitution2: "'smcp' Lowercase to Small Capitals lookup 16-1" exclamdown.smcp
EndChar

StartChar: ampersand.salt
Encoding: 374 -1 303
Width: 943
VWidth: 0
Flags: HW
LayerCount: 2
Fore
SplineSet
49.1 286 m 2
 49.1 375 l 2
 49.1 512 126.1 532 260.1 532 c 1
 707.9 532 l 1
 723.18 680 l 1
 764.9 680 l 1
 764.9 530.68 l 1
 919.9 530.68 l 1
 919.9 491.6 l 1
 764.9 475 l 1
 764.9 187 l 2
 764.9 30.86 634.9 0 531.9 0 c 2
 378.1 0 l 0
 267.1 0 190.1 20.68 190.1 161.82 c 1
 130.1 161.82 49.1 191 49.1 286 c 2
106.1 286 m 1
 106.1 231.46 151.96 217.84 190.1 217.5 c 1
 190.1 336.14 240.3 392 351.3 392 c 2
 480.3 392 l 2
 541.3 392 613.9 388.72 613.9 276.1 c 0
 613.9 179.42 575.2 161.16 480.3 161.16 c 2
 247.1 161.16 l 1
 247.76 59.86 307.08 58.98 378.1 57 c 1
 531.9 57 l 2
 622.72 57 707.9 85.6 707.9 187 c 2
 707.9 475 l 1
 260.1 475 l 0
 153.24 475 106.1 469.26 106.1 375 c 1
 106.1 286 l 1
247.1 217.5 m 1
 480.3 217.5 l 2
 538.84 217.5 556.9 220.6 556.9 276.1 c 0
 556.9 326.98 543.42 335 480.3 335 c 2
 351.3 335 l 2
 287.88 335 247.1 321.8 247.1 217.5 c 1
EndSplineSet
EndChar

StartChar: a.superior
Encoding: 375 -1 304
Width: 369
VWidth: 0
Flags: HW
LayerCount: 2
Fore
SplineSet
34.74 463 m 10
 34.74 509 l 2
 34.74 563 72.74 599 134.74 599 c 2
 134.74 599 279.5 599 279.5 600 c 0
 279.5 600 280.5 630 279.5 631 c 2
 279.5 676.16 253.1 694.6 205.92 694.6 c 0
 151.92 694.6 112.9 692.94 46.74 687.6 c 9
 46.74 719.4 l 17
 100.98 732.68 137.2 736.68 211.54 739 c 1
 273.54 740 326.54 709 326.54 636 c 2
 326.54 378 l 9
 296.06 378 l 25
 280.5 430.4 l 17
 278.5 430.4 195.78 374 134.74 374 c 27
 82.74 374 34.74 405 34.74 463 c 10
81.78 471.24 m 2
 81.78 434.44 108.62 421.04 138.7 421.04 c 0
 198.7 421.04 279.5 463.52 279.5 463.52 c 9
 279.5 567.54 l 17
 138.36 556.58 l 1
 100.58 553.92 81.78 534.56 81.78 505.04 c 2
 81.78 471.24 l 2
EndSplineSet
EndChar

StartChar: b.superior
Encoding: 376 -1 305
Width: 392
VWidth: 0
Flags: HW
LayerCount: 2
Fore
SplineSet
42.42 378 m 1
 42.42 902 l 1
 89.46 902 l 1
 89.46 709 l 1
 137.46 729 190.22 739 224.22 739 c 3
 338.22 739 352.82 645 352.82 554 c 0
 352.82 472 331.86 374 222.86 374 c 3
 165.4 374 109.12 411.72 89.46 426.4 c 9
 72.9 378 l 1
 42.42 378 l 1
89.46 458.88 m 1
 126.38 443.18 159.56 421.04 218.56 421.04 c 3
 276.4 421.04 305.78 463.18 305.78 554 c 0
 305.78 665.14 278.12 691.96 219.24 691.96 c 3
 161.24 691.96 138.4 683.58 89.46 672.58 c 1
 89.46 458.88 l 1
EndSplineSet
Ligature2: "'ordn' Ordinals lookup 21-1" b
EndChar

StartChar: c.superior
Encoding: 377 -1 306
Width: 360
VWidth: 0
Flags: HW
LayerCount: 2
Fore
SplineSet
34.74 555 m 0
 34.74 710 88.74 737 165.74 737 c 3
 204.74 737 266.24 727.02 317.54 716.68 c 1
 317.54 682.24 l 1
 317.54 682.24 228.86 689.96 170.02 689.96 c 3
 117.54 689.96 81.78 681.16 81.78 553 c 3
 81.78 449.2 106.84 420.04 170.36 420.04 c 3
 242.42 420.04 322.54 430.1 322.54 430.1 c 1
 322.54 395 l 17
 269.36 379.02 227.74 374 165.74 373 c 0
 91.74 373 34.74 399 34.74 555 c 0
EndSplineSet
Ligature2: "'ordn' Ordinals lookup 21-1" c
EndChar

StartChar: d.superior
Encoding: 378 -1 307
Width: 390
VWidth: 0
Flags: HW
LayerCount: 2
Fore
SplineSet
34.74 554.66 m 0
 34.74 645.66 48.68 739.66 162.68 739.66 c 3
 196.68 739.66 250.1 729.66 298.1 709.66 c 1
 298.1 903.32 l 1
 343.82 903.32 l 1
 343.82 378 l 1
 313.34 378 l 1
 297.44 426.4 l 17
 277.78 411.72 221.5 374 164.04 374 c 3
 55.04 374 34.74 472.66 34.74 554.66 c 0
81.78 554.66 m 0
 81.78 463.84 111.16 421.04 169 421.04 c 3
 228 421.04 260.52 443.18 297.44 458.88 c 1
 297.44 673.24 l 1
 248.5 684.9 226.32 692.62 168.32 692.62 c 3
 109.44 692.62 81.78 665.8 81.78 554.66 c 0
EndSplineSet
Ligature2: "'ordn' Ordinals lookup 21-1" d
EndChar

StartChar: e.superior
Encoding: 379 -1 308
Width: 390
VWidth: 0
Flags: HW
LayerCount: 2
Fore
SplineSet
34.74 557 m 0
 34.74 675.3 64.28 734.64 196.38 734.64 c 0
 277.6 734.64 351.54 726.66 351.54 607.34 c 0
 351.54 555.38 316.94 529.48 245.52 529.48 c 2
 81.78 529.48 l 1
 81.78 436.38 109.36 420.04 172.74 420.04 c 3
 241.74 420.04 287.2 420.76 343.54 429.78 c 1
 343.54 396 l 17
 282.54 379 228.74 373 166.74 373 c 0
 75.74 373 34.74 411 34.74 557 c 0
81.78 576.52 m 1
 242.54 576.52 l 2
 279.62 576.52 304.5 584.14 304.5 611.62 c 0
 304.5 673.82 280.46 687.6 196.38 687.6 c 0
 119.62 687.6 81.78 672.32 81.78 576.52 c 1
EndSplineSet
Ligature2: "'ordn' Ordinals lookup 21-1" e
EndChar

StartChar: f.superior
Encoding: 380 -1 309
Width: 327
VWidth: 0
Flags: HW
LayerCount: 2
Fore
SplineSet
29.06 679.48 m 1
 29.06 714.54 l 1
 103.72 724.86 l 1
 103.72 798 l 2
 103.72 834 110.06 903 200.06 903 c 0
 237.06 903 263.64 897.7 298.26 889.74 c 1
 298.26 857.28 l 1
 297.6 857.28 214.38 858.6 214.38 858.6 c 2
 158.56 859.26 150.76 833.56 150.76 792.7 c 2
 150.76 726.18 l 1
 266.26 726.18 l 1
 266.26 679.48 l 1
 149.44 679.48 l 9
 149.44 378 l 17
 102.4 378 l 1
 102.4 679.48 l 1
 29.06 679.48 l 1
EndSplineSet
Ligature2: "'ordn' Ordinals lookup 21-1" f
EndChar

StartChar: g.superior
Encoding: 381 -1 310
Width: 415
VWidth: 0
Flags: HW
LayerCount: 2
Fore
SplineSet
37.12 291 m 2
 37.12 333 l 1
 57.32 384.82 l 1
 40.02 398.82 36.06 421.72 36.06 439.72 c 0
 36.06 463.08 50.8 494.34 92.26 497.66 c 1
 58.98 513.26 39.44 558.84 39.44 603 c 0
 39.44 689 87.44 732 160.44 732 c 2
 381.24 732 l 1
 381.24 704.2 l 1
 318.34 686.62 l 1
 329.76 678.96 351.24 644.94 351.24 603 c 3
 351.24 550 326.24 472.48 229.24 472.48 c 2
 126.44 472.48 l 2
 115.44 472.48 84.44 469.48 83.76 444 c 0
 83.42 423.96 93.76 416.2 115.56 413.52 c 2
 263.24 396.52 l 2
 322.24 389.52 361.24 357 361.24 303 c 2
 361.24 295 l 2
 361.24 254 349.24 186 260.24 186 c 2
 146.12 186 l 2
 82.12 186 37.12 220 37.12 291 c 2
83.16 300 m 2
 83.16 243.24 114.84 232.04 155.1 232.04 c 2
 251.94 232.04 l 2
 298.06 232.04 315.52 252.8 315.52 295 c 2
 315.52 300 l 2
 315.52 338.8 284.04 348.78 248.04 353.44 c 2
 114.88 369.12 l 2
 107.74 369.8 83.16 374.84 83.16 374.84 c 1
 83.16 300 l 2
87.14 603 m 0
 86.48 561.16 107.7 518.52 167.04 518.52 c 2
 225.24 518.52 l 2
 282.26 518.52 303.54 561.36 303.54 603 c 0
 303.54 648.16 279.78 686.28 231.02 686.28 c 1
 169 686.28 l 1
 102.8 686.28 87.8 644.36 87.14 603 c 0
EndSplineSet
Ligature2: "'ordn' Ordinals lookup 21-1" g
EndChar

StartChar: h.superior
Encoding: 382 -1 311
Width: 398
VWidth: 0
Flags: HW
LayerCount: 2
Fore
SplineSet
42.42 378 m 1
 42.42 901 l 1
 89.46 901 l 1
 89.46 685 l 1
 131.04 710.32 174.22 739 235.22 739 c 3
 315.9 739 354.82 684 354.82 625 c 2
 354.82 378 l 9
 307.78 378 l 17
 307.78 617.74 l 2
 307.78 667.2 272.36 691.96 230.58 691.96 c 27
 173.86 691.96 141.68 675.54 89.46 652.22 c 1
 89.46 378 l 1
 42.42 378 l 1
EndSplineSet
Ligature2: "'ordn' Ordinals lookup 21-1" h
EndChar

StartChar: i.superior
Encoding: 383 -1 312
Width: 136
VWidth: 0
Flags: HW
LayerCount: 2
Fore
SplineSet
38.08 794.98 m 2
 38.08 834.58 l 2
 38.08 844.56 43.4 851.2 54.04 851.2 c 2
 81.46 851.2 l 2
 91.44 851.2 96.76 844.22 96.76 834.58 c 2
 96.76 794.98 l 2
 96.76 785 91.1 780.02 81.46 780.02 c 2
 54.04 780.02 l 2
 44.4 780.02 38.08 785.34 38.08 794.98 c 2
42.74 378 m 1
 42.74 734 l 1
 89.78 734 l 1
 89.78 378 l 1
 42.74 378 l 1
EndSplineSet
Ligature2: "'ordn' Ordinals lookup 21-1" i
EndChar

StartChar: j.superior
Encoding: 384 -1 313
Width: 139
VWidth: 0
Flags: HW
LayerCount: 2
Fore
SplineSet
39.08 797.62 m 2
 39.08 837.22 l 2
 39.08 847.2 44.4 853.84 55.04 853.84 c 2
 82.8 853.84 l 2
 92.78 853.84 97.76 846.86 97.76 837.22 c 2
 97.76 797.62 l 2
 97.76 787.64 92.44 782 82.8 782 c 2
 55.04 782 l 2
 45.4 782 39.08 787.98 39.08 797.62 c 2
43.08 196 m 1
 43.08 733 l 1
 91.78 733 l 1
 91.78 375 l 2
 92.78 317 88.44 254.6 75.5 196 c 1
 43.08 196 l 1
EndSplineSet
Ligature2: "'ordn' Ordinals lookup 21-1" j
EndChar

StartChar: k.superior
Encoding: 385 -1 314
Width: 373
VWidth: 0
Flags: HW
LayerCount: 2
Fore
SplineSet
42.42 378 m 1
 42.42 899 l 1
 89.46 899 l 1
 89.46 597.86 l 1
 127.36 597.86 l 1
 274.02 730.68 l 1
 340.92 730.68 l 1
 170.1 575.66 l 1
 341.98 378 l 1
 280.36 378 l 1
 131.98 550.82 l 1
 89.46 550.82 l 1
 89.46 378 l 1
 42.42 378 l 1
EndSplineSet
Ligature2: "'ordn' Ordinals lookup 21-1" k
EndChar

StartChar: l.superior
Encoding: 386 -1 315
Width: 238
VWidth: 0
Flags: HW
LayerCount: 2
Fore
SplineSet
41.42 504 m 2
 41.42 900 l 1
 88.46 900 l 1
 88.46 509.28 l 2
 88.46 442.42 104.96 429.72 142.4 422.4 c 2
 142.4 422.4 204.12 410.44 207.42 410.44 c 1
 207.42 378 l 1
 140.42 378 l 2
 68.4 378 41.42 414.76 41.42 504 c 2
EndSplineSet
Ligature2: "'ordn' Ordinals lookup 21-1" l
EndChar

StartChar: m.superior
Encoding: 387 -1 316
Width: 660
VWidth: 0
Flags: HW
LayerCount: 2
Fore
SplineSet
42.42 378 m 1
 42.42 732 l 1
 76.92 732 l 1
 89.46 683.68 l 1
 131.04 709 173.56 737.02 231.92 737.02 c 1
 281.6 737.02 321.52 715.36 338.18 680.74 c 1
 375.48 710.02 432.16 737.02 496.44 737.02 c 1
 567.88 737.02 617.36 687.96 617.36 623.02 c 2
 617.36 378 l 1
 570.32 378 l 1
 570.32 615.76 l 2
 570.32 662.6 535.56 689.98 493.78 689.98 c 1
 437.1 689.98 397.64 676.22 352.74 651.6 c 1
 355.12 646.16 356.14 624.2 356.14 617.74 c 2
 356.14 378 l 1
 309.1 378 l 1
 309.1 615.76 l 2
 309.1 662.6 273.02 689.98 231.24 689.98 c 1
 173.86 689.98 141.68 673.56 89.46 650.24 c 1
 89.46 378 l 1
 42.42 378 l 1
EndSplineSet
Ligature2: "'ordn' Ordinals lookup 21-1" m
EndChar

StartChar: n.superior
Encoding: 388 -1 317
Width: 398
VWidth: 0
Flags: W
HStem: 692.62 46.38<145.049 287.834> 712 20G<42.42 80.5467>
VStem: 42.42 47.04<378 661.658> 42.42 31.86<709.66 732> 307.78 47.04<378 672.697>
LayerCount: 2
Fore
SplineSet
42.42 378 m 1xa8
 42.42 732 l 1
 74.28 732 l 1x58
 88.8 685.66 l 1
 130.38 710.98 174.22 739 235.22 739 c 3
 315.9 739 354.82 684 354.82 625 c 2
 354.82 378 l 9
 307.78 378 l 17
 307.78 618.4 l 2
 307.78 667.86 273.02 692.62 231.24 692.62 c 27
 173.86 692.62 141.68 675.54 89.46 652.22 c 1
 89.46 378 l 1
 42.42 378 l 1xa8
EndSplineSet
Ligature2: "'ordn' Ordinals lookup 21-1" n
EndChar

StartChar: o.superior
Encoding: 389 -1 318
Width: 395
VWidth: 0
Flags: HW
LayerCount: 2
Fore
SplineSet
34.74 550 m 0
 34.74 669 67.64 735 196.64 735 c 0
 322.64 735 354.54 670 354.54 550 c 0
 354.54 440 322.64 375 196.64 375 c 0
 68.64 375 34.74 438 34.74 550 c 0
81.78 550 m 0
 81.78 441.18 118.78 422.04 196.64 422.04 c 0
 277.96 422.04 307.5 448.38 307.5 550 c 0
 307.5 663.48 277.84 687.96 194.64 687.96 c 0
 108.72 687.96 81.78 656.08 81.78 550 c 0
EndSplineSet
EndChar

StartChar: p.superior
Encoding: 390 -1 319
Width: 390
VWidth: 0
Flags: HW
LayerCount: 2
Fore
SplineSet
42.42 194.34 m 1
 42.42 733.32 l 1
 72.9 733.32 l 1
 87.48 685.58 l 17
 105.82 700.26 168.7 737.98 224.18 737.98 c 3
 328.56 737.98 350.84 638.66 350.84 556 c 0
 350.84 464.34 334.26 369.68 225.54 369.68 c 3
 192.86 369.68 133.5 379.68 87.48 399.68 c 1
 87.48 194.34 l 1
 42.42 194.34 l 1
87.48 436.1 m 1
 133.12 424.44 165.2 416.72 219.9 416.72 c 3
 276.14 416.72 303.8 443.54 303.8 556 c 0
 303.8 647.48 274.42 690.94 219.22 690.94 c 3
 163.52 690.94 121.76 668.14 87.48 652.44 c 1
 87.48 436.1 l 1
EndSplineSet
Ligature2: "'ordn' Ordinals lookup 21-1" p
EndChar

StartChar: q.superior
Encoding: 391 -1 320
Width: 393
VWidth: 0
Flags: HW
LayerCount: 2
Fore
SplineSet
34.74 556 m 3
 34.74 670 79.74 739 173.74 739 c 3
 253.74 739 312.14 727.38 347.14 724.38 c 1
 347.14 194 l 17
 300.1 194 l 9
 300.1 397 l 1
 252.1 377 207.74 367 173.74 367 c 3
 58.74 367 34.74 463 34.74 556 c 3
81.78 556 m 3
 81.78 486.28 92.7 413.7 180.74 413.7 c 3
 236.74 413.7 238.1 418.74 300.1 432.74 c 1
 300.1 692.3 l 2
 180.74 692.3 l 2
 98.36 692.3 81.78 618.42 81.78 556 c 3
EndSplineSet
Ligature2: "'ordn' Ordinals lookup 21-1" q
EndChar

StartChar: r.superior
Encoding: 392 -1 321
Width: 332
VWidth: 0
Flags: HW
LayerCount: 2
Fore
SplineSet
42.42 378 m 1
 42.42 732 l 1
 74.84 732 l 1
 89.46 681 l 1
 131.72 705.98 175.18 736 236.22 736 c 27
 258.22 736 283.22 734 292.22 730 c 1
 292.22 684.96 l 1
 283.22 686.96 258.22 688.96 236.22 688.96 c 27
 176.84 688.96 144.4 672.9 89.46 648.56 c 1
 89.46 378 l 1
 42.42 378 l 1
EndSplineSet
Ligature2: "'ordn' Ordinals lookup 21-1" r
EndChar

StartChar: s.superior
Encoding: 393 -1 322
Width: 375
VWidth: 0
Flags: W
HStem: 367 48.04<53.0384 283.879> 383 33.74<51.74 245.872> 529.48 47.04<84.4658 285.093> 693.94 35.06<131.484 315.54> 694.96 47.04<87.6795 313.796>
VStem: 34.74 47.04<579.267 689.266> 289.5 47.04<418.871 524.736>
LayerCount: 2
Fore
SplineSet
34.74 616 m 10xa6
 34.74 651 l 18
 34.74 708 59.74 742 129.74 742 c 3xae
 165.74 742 279.54 733 315.54 729 c 9
 315.54 693.94 l 17x36
 138.72 694.96 l 2
 86.2 695.3 81.78 674.88 81.78 643 c 10
 81.78 619 l 18
 81.78 577.52 99.76 576.52 136.32 576.52 c 2
 248.54 576.52 l 2
 307.54 576.52 336.54 544 336.54 491 c 1
 336.54 454 l 2
 336.54 381.02 291.54 367 247.54 367 c 3xae
 213.54 367 77.74 380 51.74 383 c 9
 51.74 416.74 l 17x66
 236.54 415.04 l 2
 247.76 414.7 289.5 406.1 289.5 463 c 2
 289.5 488 l 2
 289.5 517.82 277.08 529.48 239.94 529.48 c 10
 127.74 529.48 l 2
 64.74 529.48 34.74 545 34.74 616 c 10xa6
EndSplineSet
Ligature2: "'ordn' Ordinals lookup 21-1" s
EndChar

StartChar: t.superior
Encoding: 394 -1 323
Width: 310
VWidth: 0
Flags: W
HStem: 379 33.08<182.253 263.06> 686.96 47.04<151.1 263.1> 686.96 34.4<30.06 78.7441>
VStem: 104.06 47.04<433.474 686.96> 118.02 33.08<782.355 833>
LayerCount: 2
Fore
SplineSet
30.06 686.96 m 1xb0
 30.06 721.36 l 1
 104.06 732 l 1xb0
 118.02 833 l 1
 151.1 833 l 1
 151.1 734 l 1xc8
 263.1 734 l 1
 263.1 686.96 l 1
 151.1 686.96 l 1xd0
 151.1 507.28 l 2
 151.1 440.88 161.86 429.04 206.06 422.04 c 2
 206.06 422.04 262.4 412.08 263.06 412.08 c 1
 263.06 379 l 1
 204.06 379 l 2
 133.06 379 104.06 411 104.06 503 c 2
 104.06 686.96 l 1
 30.06 686.96 l 1xb0
EndSplineSet
Ligature2: "'ordn' Ordinals lookup 21-1" t
EndChar

StartChar: u.superior
Encoding: 395 -1 324
Width: 394
VWidth: 0
Flags: HW
LayerCount: 2
Fore
SplineSet
40.42 491.34 m 2
 40.42 734.38 l 9
 87.46 734.38 l 17
 87.46 493.98 l 2
 87.46 447.16 122.88 420.42 164 420.42 c 27
 219.4 420.42 248.28 435.52 300.5 458.84 c 1
 300.5 734.38 l 1
 347.54 734.38 l 1
 347.54 380.38 l 1
 315.02 380.38 l 1
 300.5 426.72 l 1
 258.92 401.4 221.68 373.38 160.68 373.38 c 3
 80 373.38 40.42 432.34 40.42 491.34 c 2
EndSplineSet
Ligature2: "'ordn' Ordinals lookup 21-1" u
EndChar

StartChar: v.superior
Encoding: 396 -1 325
Width: 416
VWidth: 0
Flags: HW
LayerCount: 2
Fore
SplineSet
28.06 732 m 25
 81.06 732 l 17
 209.96 447.2 l 9
 334.52 732 l 25
 386.86 732 l 25
 229.86 378 l 25
 189.06 378 l 25
 28.06 732 l 25
EndSplineSet
Ligature2: "'ordn' Ordinals lookup 21-1" v
EndChar

StartChar: w.superior
Encoding: 397 -1 326
Width: 616
VWidth: 0
Flags: HW
LayerCount: 2
Fore
SplineSet
28.06 732 m 1
 81.06 732 l 1
 209.96 447.2 l 1
 334.52 732 l 1
 386.86 732 l 1
 334.2 613.68 l 1
 409.78 447.2 l 1
 534.34 732 l 1
 586.68 732 l 1
 429.68 378 l 1
 388.88 378 l 1
 307.7 554.06 l 1
 229.86 378 l 1
 189.06 378 l 1
 28.06 732 l 1
EndSplineSet
Ligature2: "'ordn' Ordinals lookup 21-1" w
EndChar

StartChar: x.superior
Encoding: 398 -1 327
Width: 393
VWidth: 0
Flags: HW
LayerCount: 2
Fore
SplineSet
29.06 378 m 1
 168.7 556.66 l 1
 29.4 732 l 1
 86.72 732 l 1
 196.54 594.76 l 1
 302.06 732 l 1
 360.7 732 l 1
 224.7 556.66 l 1
 363.02 378 l 1
 305.04 378 l 1
 197.2 519.88 l 1
 87.04 378 l 1
 29.06 378 l 1
EndSplineSet
Ligature2: "'ordn' Ordinals lookup 21-1" x
EndChar

StartChar: y.superior
Encoding: 399 -1 328
Width: 429
VWidth: 0
Flags: HW
LayerCount: 2
Fore
SplineSet
28.06 733 m 1
 80.08 733 l 1
 189.46 461.22 l 2
 198.84 438.76 210.94 423.72 230.94 423.72 c 9
 347.06 733 l 1
 399.08 733 l 9
 225.72 264 l 17
 173.86 196 l 1
 142.1 196 l 1
 213.06 376 l 1
 180.38 380.36 156.72 413 144.72 442 c 2
 28.06 733 l 1
EndSplineSet
Ligature2: "'ordn' Ordinals lookup 21-1" y
EndChar

StartChar: z.superior
Encoding: 400 -1 329
Width: 375
VWidth: 0
Flags: HW
LayerCount: 2
Fore
SplineSet
34.74 686.32 m 17
 34.74 732 l 25
 334.54 732 l 25
 334.54 692.32 l 25
 107.62 424.68 l 17
 333.54 424.68 l 17
 334.54 423.68 333.54 379 333.54 379 c 25
 45.74 379 l 25
 45.74 424.68 l 25
 269.64 686.32 l 17
 34.74 686.32 l 17
EndSplineSet
Ligature2: "'ordn' Ordinals lookup 21-1" z
EndChar

StartChar: zero.tnum
Encoding: 401 -1 330
Width: 623
VWidth: 0
Flags: W
HStem: 0 57<160.255 466.079> 675 57<162.228 464.196>
VStem: 64.8 57<94.0704 636.353> 501.26 57<90.6224 639.462>
LayerCount: 2
Fore
SplineSet
64.8 162 m 10
 64.8 570 l 2
 64.8 678 141.8 732 236.8 732 c 2
 390.6 732 l 2
 512.6 732 558.26 657.7 558.26 570 c 26
 558.26 162 l 18
 558.26 43 489.6 0 390.6 0 c 2
 236.8 0 l 2
 145.8 0 64.8 42 64.8 162 c 10
121.8 162 m 2
 121.8 86.5 174.52 57 236.8 57 c 10
 390.6 57 l 18
 468.2 57 501.26 97.46 501.26 162 c 2
 501.26 570 l 2
 501.26 630.96 472.08 675 390.6 675 c 2
 236.8 675 l 2
 160.34 675 121.8 631.6 121.8 570 c 2
 121.8 162 l 2
EndSplineSet
Substitution2: "'onum' Oldstyle Figures in Latin lookup 5-1" zero.tosf
Substitution2: "'lnum' Lining Figures lookup 19-1" zero
EndChar

StartChar: one.tnum
Encoding: 402 -1 331
Width: 623
VWidth: 0
Flags: W
HStem: -0.339844 58.3594<158.5 335.26 392.92 561.7> 712 20G<294.506 392.92>
VStem: 335.26 57.6602<58.0195 667.38>
LayerCount: 2
Fore
SplineSet
158.02 605.62 m 5
 158.02 645.02 l 5
 335.26 732 l 5
 392.92 732 l 5
 392.92 58.0195 l 5
 561.7 58.0195 l 5
 561.7 -0.339844 l 5
 158.5 -0.339844 l 5
 158.5 58.0195 l 5
 335.26 58.0195 l 5
 335.26 667.38 l 5
 158.02 605.62 l 5
EndSplineSet
Substitution2: "'onum' Oldstyle Figures in Latin lookup 5-1" one.tosf
Substitution2: "'lnum' Lining Figures lookup 19-1" one
EndChar

StartChar: two.tnum
Encoding: 403 -1 332
Width: 623
VWidth: 0
Flags: W
HStem: 0 57<177.44 559.6> 684 58<134.401 439.843> 684 41.4<62.8 268.925>
VStem: 501.6 58<455.018 623.955>
LayerCount: 2
Fore
SplineSet
62.8 684 m 2xb0
 62.8 725.4 l 1xb0
 165.14 738.4 266 742 356.6 742 c 3
 502.28 742 559.6 641.48 559.6 532 c 3
 559.6 341.1 242.3 102.6 177.44 57 c 9
 559.6 57 l 25
 559.6 0 l 25
 69.8 0 l 25
 69.8 52.7 l 17
 175.06 128.4 501.6 367.66 501.6 533.66 c 3
 501.6 629.1 453.04 684 355.26 684 c 2xd0
 62.8 684 l 2xb0
EndSplineSet
Substitution2: "'onum' Oldstyle Figures in Latin lookup 5-1" two.tosf
Substitution2: "'lnum' Lining Figures lookup 19-1" two
EndChar

StartChar: three.tnum
Encoding: 404 -1 333
Width: 623
VWidth: 0
Flags: W
HStem: -7 58<152.418 456.642> 15.22 35.78<80.16 178.647> 334.84 58.68<185.883 446.283> 341.84 43.04<141.82 329.897> 677 57<160.974 451.904> 677 35.12<73.82 165.564>
VStem: 494.96 57<88.7656 287.574 434.502 636.816>
LayerCount: 2
Fore
SplineSet
73.82 677 m 1x06
 73.82 712.12 l 1x06
 152.3 736.32 264.62 736 381.62 734 c 0
 494.68 732 551.96 661 551.96 569 c 2
 551.96 500 l 2
 551.96 416.12 504.2 375.58 467.6 364.34 c 1
 505.54 345.48 551.96 305.52 551.96 220 c 1
 551.96 161 l 2
 551.96 52 495.96 -7 373.96 -7 c 0x8a
 259.96 -7 151.16 -7.96 79.82 15.22 c 1
 80.16 51 l 1x42
 369.66 51 l 2
 431.5 51 492.96 65.78 492.96 161 c 2
 492.96 220 l 2
 492.96 305.48 428.98 332.84 373.96 334.84 c 2xa2
 141.82 341.84 l 2
 141.82 384.88 l 1x12
 373.96 393.52 l 1
 446.02 395.84 494.96 430.84 494.96 500 c 2
 494.96 569 l 2
 494.96 645.56 437.86 677 375.66 677 c 2x2a
 73.82 677 l 1x06
EndSplineSet
Substitution2: "'onum' Oldstyle Figures in Latin lookup 5-1" three.tosf
Substitution2: "'lnum' Lining Figures lookup 19-1" three
EndChar

StartChar: four.tnum
Encoding: 405 -1 334
Width: 623
VWidth: 0
Flags: W
HStem: 195.5 59.64<117.82 433.78 490.78 530.303> 211.44 43.7<541.257 580.78> 712 20G<335.714 415.56>
VStem: 433.78 57<2 195.5 255.14 472>
DStem2: 31.4 228.42 117.82 255.14 0.53261 0.846361<68.6429 594.995>
LayerCount: 2
Fore
SplineSet
31.4 228.42 m 1xb0
 348.3 732 l 1
 415.56 732 l 1
 117.82 255.14 l 1
 433.78 255.14 l 1
 433.78 472 l 1
 460.94 547 l 1
 490.78 547 l 1
 490.78 255.14 l 1xb0
 580.78 255.14 l 1
 580.78 211.44 l 1x70
 490.78 195.5 l 1
 490.78 2 l 1
 433.78 2 l 1
 433.78 195.5 l 1
 57.92 195.5 l 1
 31.4 228.42 l 1xb0
EndSplineSet
Substitution2: "'onum' Oldstyle Figures in Latin lookup 5-1" four.tosf
Substitution2: "'lnum' Lining Figures lookup 19-1" four
EndChar

StartChar: five.tnum
Encoding: 406 -1 335
Width: 623
VWidth: 0
Flags: W
HStem: -4 60.3<162.881 454.611> 15.24 41.06<85.18 291.104> 383.9 57<173.239 460.571> 675 57<161.54 531.18>
VStem: 86.84 51.72<291.9 350.069> 108.84 52.7<591.968 675> 495.84 57<99.4382 349.187>
LayerCount: 2
Fore
SplineSet
85.18 15.24 m 1x76
 85.18 56.3 l 1
 389.18 56.3 l 2
 458.52 56.3 495.84 104.96 495.84 168 c 2
 495.84 272.9 l 2
 495.84 311.68 490.42 383.9 388.84 383.9 c 2
 235.18 383.9 l 2
 189.04 383.9 138.56 349.98 138.56 291.9 c 1
 86.84 291.9 l 1xba
 108.84 732 l 17
 531.18 732 l 1
 531.18 675 l 1
 161.54 675 l 25
 147.84 398.66 l 1
 159.8 414.98 191.92 437.6 237.52 440.24 c 0
 297.98 444.86 358.18 440.9 389.18 440.9 c 0
 507.18 440.9 552.84 371.9 552.84 274.9 c 2
 552.84 166 l 2
 552.84 29 451.18 -4 389.18 -4 c 3xb6
 265.18 -4 198.1 -3.34 85.18 15.24 c 1x76
EndSplineSet
Substitution2: "'onum' Oldstyle Figures in Latin lookup 5-1" five.tosf
Substitution2: "'lnum' Lining Figures lookup 19-1" five
EndChar

StartChar: six.tnum
Encoding: 407 -1 336
Width: 623
VWidth: 0
Flags: W
HStem: -1 57<198.315 473.241> 362.84 57.34<170.937 473.1> 362.84 39.74<125.14 329.355> 681 57<196.586 459.819> 681 41.4<325.744 531.94>
VStem: 68.14 57<165.572 362.84 402.58 565.872> 499.94 56<84.8688 335.324>
LayerCount: 2
Fore
SplineSet
68.14 384 m 0xc6
 68.14 646.62 154.08 738 240.14 738 c 0xd6
 341.14 738 445.86 733.36 531.94 722.4 c 1
 531.94 681 l 1x8e
 249.74 681 l 2
 146.5 681 126.46 496.1 125.14 402.58 c 1xb6
 210.14 412.58 320.94 420.18 394.94 420.18 c 0
 530.26 420.18 555.94 351.56 555.94 272.2 c 2
 555.94 148 l 2
 555.94 36 488.94 -1 394.94 -1 c 2
 256.14 -1 l 2
 147.14 -0.34 68.14 73.08 68.14 384 c 0xc6
125.14 362.84 m 1xa6
 125.14 247.76 134.58 56 256.14 56 c 2
 394.94 56 l 2
 449.68 56 499.94 69.06 499.94 151.28 c 2
 499.94 272.2 l 2
 499.94 348.16 451.14 362.84 394.94 362.84 c 2xc6
 125.14 362.84 l 1xa6
EndSplineSet
Substitution2: "'onum' Oldstyle Figures in Latin lookup 5-1" six.tosf
Substitution2: "'lnum' Lining Figures lookup 19-1" six
EndChar

StartChar: seven.tnum
Encoding: 408 -1 337
Width: 623
VWidth: 0
Flags: W
HStem: 0 21G<226.52 301.508> 0 21G<226.52 301.508> 675 57<74.82 477.72>
DStem2: 226.52 0 294.12 0 0.346526 0.93804<23.4252 720.225>
LayerCount: 2
Fore
SplineSet
74.82 675 m 1xa0
 74.82 732 l 1
 526.68 732 l 1
 549.94 692.5 l 1
 294.12 0 l 1
 226.52 0 l 1
 477.72 675 l 1
 74.82 675 l 1xa0
EndSplineSet
Substitution2: "'onum' Oldstyle Figures in Latin lookup 5-1" seven.tosf
Substitution2: "'lnum' Lining Figures lookup 19-1" seven
EndChar

StartChar: eight.tnum
Encoding: 409 -1 338
Width: 623
VWidth: 0
Flags: W
HStem: 0 57<166.768 456.531> 345.5 56<165.995 460.582> 680 57<165.699 458.413>
VStem: 76.16 57<90.4869 312.81 432.312 647.369> 492.96 57<91.542 316.383 432.975 646.995>
LayerCount: 2
Fore
SplineSet
76.16 154 m 2
 76.16 252.34 l 2
 76.16 327.02 126.6 352.8 166.26 361.38 c 1
 94.78 381 76.16 446 76.16 499 c 2
 76.16 564 l 2
 76.16 698 149.16 737 252.16 737 c 2
 387.96 737 l 2
 494.96 737 549.96 687 549.96 564 c 2
 549.96 499 l 2
 550.62 466.12 535.74 393.24 469.18 381.98 c 1
 528.62 368.58 550.62 301.8 549.96 252 c 2
 549.96 154 l 2
 549.96 24 450.96 0 386.96 0 c 2
 252.16 0 l 2
 80.16 0 76.16 113 76.16 154 c 2
133.16 151 m 2
 133.16 87.04 175.08 57 252.16 57 c 2
 386.96 57 l 2
 436.08 57 492.96 83.38 492.96 151 c 2
 492.96 256 l 2
 492.96 329.66 436 345.5 389.96 345.5 c 2
 241.16 345.5 l 2
 195.16 345.5 133.16 324.8 133.16 256 c 2
 133.16 151 l 2
133.16 494 m 2
 133.16 415.44 196.28 401.5 241.16 401.5 c 2
 389.96 401.5 l 2
 471.12 401.5 492.96 454.6 492.96 494 c 2
 492.96 562 l 2
 492.96 648.24 458.52 680 387.96 680 c 2
 252.16 680 l 2
 172.86 680 133.16 656.76 133.16 562 c 2
 133.16 494 l 2
EndSplineSet
Substitution2: "'onum' Oldstyle Figures in Latin lookup 5-1" eight.tosf
Substitution2: "'lnum' Lining Figures lookup 19-1" eight
EndChar

StartChar: nine.tnum
Encoding: 410 -1 339
Width: 623
VWidth: 0
Flags: W
HStem: -2.7 57<160.403 427.494> 12.9 41.4<92.14 298.561> 315.12 57.34<150.98 453.143> 332.72 39.74<294.725 498.94> 679.3 57<150.839 425.765>
VStem: 68.14 56<399.976 650.431> 498.94 57<169.428 332.72 372.46 569.728>
LayerCount: 2
Fore
SplineSet
68.14 463.1 m 2x2e
 68.14 587.3 l 2
 68.14 699.3 135.14 736.3 229.14 736.3 c 2
 367.94 736.3 l 2
 476.94 735.64 555.94 662.22 555.94 351.3 c 0
 555.94 88.68 470 -2.7 383.94 -2.7 c 0xae
 282.94 -2.7 179.54 -1.36 92.14 12.9 c 1x4e
 92.14 54.3 l 1
 374.34 54.3 l 2
 477.58 54.3 497.62 239.2 498.94 332.72 c 1x9e
 413.94 322.72 303.14 315.12 229.14 315.12 c 0
 93.82 315.12 68.14 383.74 68.14 463.1 c 2x2e
124.14 463.1 m 2
 124.14 387.14 172.94 372.46 229.14 372.46 c 2x2e
 498.94 372.46 l 1x1e
 498.94 487.54 489.5 679.3 367.94 679.3 c 2
 229.14 679.3 l 2
 174.4 679.3 124.14 666.24 124.14 584.02 c 2
 124.14 463.1 l 2
EndSplineSet
Substitution2: "'onum' Oldstyle Figures in Latin lookup 5-1" nine.tosf
Substitution2: "'lnum' Lining Figures lookup 19-1" nine
EndChar

StartChar: zero.tosf
Encoding: 411 -1 340
Width: 623
VWidth: 0
Flags: W
HStem: 0 57<160.255 466.079> 574 57<162.228 464.196>
VStem: 64.8 57<94.0704 535.353> 501.26 57<90.6224 539.901>
LayerCount: 2
Fore
SplineSet
64.8 162 m 10
 64.8 469 l 2
 64.8 577 141.8 631 236.8 631 c 2
 390.6 631 l 2
 512.6 631 558.26 560 558.26 469 c 26
 558.26 162 l 18
 558.26 43 489.6 0 390.6 0 c 2
 236.8 0 l 2
 145.8 0 64.8 42 64.8 162 c 10
121.8 162 m 2
 121.8 86.5 174.52 57 236.8 57 c 10
 390.6 57 l 18
 468.2 57 501.26 97.46 501.26 162 c 2
 501.26 469 l 2
 501.26 529.96 472.08 574 390.6 574 c 2
 236.8 574 l 2
 160.34 574 121.8 530.6 121.8 469 c 2
 121.8 162 l 2
EndSplineSet
Substitution2: "'lnum' Lining Figures lookup 19-1" zero
EndChar

StartChar: one.tosf
Encoding: 412 -1 341
Width: 623
VWidth: 0
Flags: W
HStem: -0.339844 58.3594<159.22 328.7 385.7 549.22>
VStem: 328.7 57<58.0195 567.38>
LayerCount: 2
Fore
SplineSet
160.7 507.6 m 5
 160.7 547 l 5
 328.7 632 l 5
 385.7 632 l 5
 385.7 58.0195 l 5
 549.22 58.0195 l 5
 549.22 -0.339844 l 5
 159.22 -0.339844 l 5
 159.22 58.0195 l 5
 328.7 58.0195 l 5
 328.7 567.38 l 5
 160.7 507.6 l 5
EndSplineSet
Substitution2: "'lnum' Lining Figures lookup 19-1" one
EndChar

StartChar: two.tosf
Encoding: 413 -1 342
Width: 623
VWidth: 0
Flags: W
HStem: 0 57<186.78 553.26> 581.34 56.66<135.326 449.543> 581.34 40.06<62.8 267.645>
VStem: 500.6 52.66<383.734 532.833>
LayerCount: 2
Fore
SplineSet
62.8 581.34 m 2xb0
 62.8 621.4 l 1xb0
 144.82 633.36 240.26 643 355.26 638 c 1
 495.26 638 558.26 564 558.26 451 c 3
 558.26 282.04 245.46 87 186.78 57 c 9
 553.26 57 l 25
 553.26 0 l 25
 68.46 0 l 25
 68.46 52.7 l 17
 183.56 115.88 500.6 303.28 500.6 453 c 3
 500.6 542.66 448.3 583.32 350.86 581.34 c 1xd0
 62.8 581.34 l 2xb0
EndSplineSet
Substitution2: "'lnum' Lining Figures lookup 19-1" two
EndChar

StartChar: three.tosf
Encoding: 414 -1 343
Width: 623
VWidth: 0
Flags: W
HStem: -104.7 58<152.418 456.642> -82.48 35.78<80.16 178.647> 237.14 58.68<185.884 446.283> 244.14 43.04<141.82 329.896> 579.3 57<160.974 451.904> 579.3 35.12<73.82 165.564>
VStem: 494.96 57<-8.93439 189.874 336.802 539.116>
LayerCount: 2
Fore
SplineSet
73.82 579.3 m 1x06
 73.82 614.42 l 1x06
 152.3 638.62 264.62 638.3 381.62 636.3 c 0
 494.68 634.3 551.96 563.3 551.96 471.3 c 2
 551.96 402.3 l 2
 551.96 318.42 504.2 277.88 467.6 266.64 c 1
 505.54 247.78 551.96 207.82 551.96 122.3 c 1
 551.96 63.3 l 2
 551.96 -45.7 495.96 -104.7 373.96 -104.7 c 0x8a
 259.96 -104.7 151.16 -105.66 79.82 -82.48 c 1
 80.16 -46.7 l 1x42
 369.66 -46.7 l 2
 431.5 -46.7 492.96 -31.92 492.96 63.3 c 2
 492.96 122.3 l 2
 492.96 207.78 428.98 235.14 373.96 237.14 c 2xa2
 141.82 244.14 l 2
 141.82 287.18 l 1x12
 373.96 295.82 l 1
 446.02 298.14 494.96 333.14 494.96 402.3 c 2
 494.96 471.3 l 2
 494.96 547.86 437.86 579.3 375.66 579.3 c 2x2a
 73.82 579.3 l 1x06
EndSplineSet
Substitution2: "'lnum' Lining Figures lookup 19-1" three
EndChar

StartChar: four.tosf
Encoding: 415 -1 344
Width: 623
VWidth: 0
Flags: W
HStem: 95.16 59.64<117.82 433.78 490.78 530.303> 111.1 43.7<541.257 580.78>
VStem: 433.78 57<-98.34 95.16 154.8 371.66>
DStem2: 31.4 128.08 117.82 154.8 0.53261 0.846361<68.6429 594.994>
LayerCount: 2
Fore
SplineSet
31.4 128.08 m 1xa0
 348.3 631.66 l 1
 415.56 631.66 l 1
 117.82 154.8 l 1
 433.78 154.8 l 1
 433.78 371.66 l 1
 460.94 446.66 l 1
 490.78 446.66 l 1
 490.78 154.8 l 1xa0
 580.78 154.8 l 1
 580.78 111.1 l 1x60
 490.78 95.16 l 1
 490.78 -98.34 l 1
 433.78 -98.34 l 1
 433.78 95.16 l 1
 57.92 95.16 l 1
 31.4 128.08 l 1xa0
EndSplineSet
Substitution2: "'lnum' Lining Figures lookup 19-1" four
EndChar

StartChar: five.tosf
Encoding: 416 -1 345
Width: 623
VWidth: 0
Flags: W
HStem: -104.34 60.3<162.881 454.611> -85.1 41.06<85.18 291.104> 283.56 57<173.081 460.571> 574.66 57<161.54 531.18>
VStem: 86.84 51.72<191.56 249.729> 108.84 52.7<491.628 574.66> 495.84 57<-0.901764 248.847>
LayerCount: 2
Fore
SplineSet
85.18 -44.04 m 1x76
 389.18 -44.04 l 2
 458.52 -44.04 495.84 4.62 495.84 67.66 c 2
 495.84 172.56 l 2
 495.84 211.34 490.42 283.56 388.84 283.56 c 2
 235.18 283.56 l 2
 189.04 283.56 138.56 249.64 138.56 191.56 c 1
 86.84 191.56 l 1xba
 108.84 631.66 l 17
 531.18 631.66 l 1
 531.18 574.66 l 1
 161.54 574.66 l 25
 147.84 298.32 l 1
 159.8 314.64 193.24 337.92 238.84 340.56 c 0
 299.3 345.18 358.18 340.56 389.18 340.56 c 0
 507.18 340.56 552.84 271.56 552.84 174.56 c 2
 552.84 65.66 l 2
 552.84 -71.34 451.18 -104.34 389.18 -104.34 c 3xb6
 265.18 -104.34 198.1 -103.68 85.18 -85.1 c 1
 85.18 -44.04 l 1x76
EndSplineSet
Substitution2: "'lnum' Lining Figures lookup 19-1" five
EndChar

StartChar: six.tosf
Encoding: 417 -1 346
Width: 623
VWidth: 0
Flags: W
HStem: -1 57<198.315 473.241> 362.84 57.34<170.937 473.1> 362.84 39.74<125.14 329.355> 681 57<196.586 459.819> 681 41.4<325.744 531.94>
VStem: 68.14 57<165.572 362.84 402.58 565.872> 499.94 56<84.8688 335.324>
LayerCount: 2
Fore
SplineSet
68.14 384 m 0xc6
 68.14 646.62 154.08 738 240.14 738 c 0xd6
 341.14 738 445.86 733.36 531.94 722.4 c 1
 531.94 681 l 1x8e
 249.74 681 l 2
 146.5 681 126.46 496.1 125.14 402.58 c 1xb6
 210.14 412.58 320.94 420.18 394.94 420.18 c 0
 530.26 420.18 555.94 351.56 555.94 272.2 c 2
 555.94 148 l 2
 555.94 36 488.94 -1 394.94 -1 c 2
 256.14 -1 l 2
 147.14 -0.34 68.14 73.08 68.14 384 c 0xc6
125.14 362.84 m 1xa6
 125.14 247.76 134.58 56 256.14 56 c 2
 394.94 56 l 2
 449.68 56 499.94 69.06 499.94 151.28 c 2
 499.94 272.2 l 2
 499.94 348.16 451.14 362.84 394.94 362.84 c 2xc6
 125.14 362.84 l 1xa6
EndSplineSet
Substitution2: "'lnum' Lining Figures lookup 19-1" six
EndChar

StartChar: seven.tosf
Encoding: 418 -1 347
Width: 623
VWidth: 0
Flags: W
HStem: 574.66 57<74.82 477.72>
DStem2: 226.52 -100.34 294.12 -100.34 0.346526 0.93804<23.4252 720.225>
LayerCount: 2
Fore
SplineSet
74.82 574.66 m 1
 74.82 631.66 l 1
 526.68 631.66 l 1
 549.94 592.16 l 1
 294.12 -100.34 l 1
 226.52 -100.34 l 1
 477.72 574.66 l 1
 74.82 574.66 l 1
EndSplineSet
Substitution2: "'lnum' Lining Figures lookup 19-1" seven
EndChar

StartChar: eight.tosf
Encoding: 419 -1 348
Width: 623
VWidth: 0
Flags: W
HStem: 0 57<166.768 456.531> 345.5 56<165.995 460.582> 680 57<165.699 458.413>
VStem: 76.16 57<90.4869 312.81 432.312 647.369> 492.96 57<91.542 316.383 432.975 646.995>
LayerCount: 2
Fore
SplineSet
76.16 154 m 2
 76.16 252.34 l 2
 76.16 327.02 126.6 352.8 166.26 361.38 c 1
 94.78 381 76.16 446 76.16 499 c 2
 76.16 564 l 2
 76.16 698 149.16 737 252.16 737 c 2
 387.96 737 l 2
 494.96 737 549.96 687 549.96 564 c 2
 549.96 499 l 2
 550.62 466.12 535.74 393.24 469.18 381.98 c 1
 528.62 368.58 550.62 301.8 549.96 252 c 2
 549.96 154 l 2
 549.96 24 450.96 0 386.96 0 c 2
 252.16 0 l 2
 80.16 0 76.16 113 76.16 154 c 2
133.16 151 m 2
 133.16 87.04 175.08 57 252.16 57 c 2
 386.96 57 l 2
 436.08 57 492.96 83.38 492.96 151 c 2
 492.96 256 l 2
 492.96 329.66 436 345.5 389.96 345.5 c 2
 241.16 345.5 l 2
 195.16 345.5 133.16 324.8 133.16 256 c 2
 133.16 151 l 2
133.16 494 m 2
 133.16 415.44 196.28 401.5 241.16 401.5 c 2
 389.96 401.5 l 2
 471.12 401.5 492.96 454.6 492.96 494 c 2
 492.96 562 l 2
 492.96 648.24 458.52 680 387.96 680 c 2
 252.16 680 l 2
 172.86 680 133.16 656.76 133.16 562 c 2
 133.16 494 l 2
EndSplineSet
Substitution2: "'lnum' Lining Figures lookup 19-1" eight
EndChar

StartChar: nine.tosf
Encoding: 420 -1 349
Width: 623
VWidth: 0
Flags: W
HStem: -107 57<163.694 427.494> -91.4 41.4<92.14 298.111> 210.82 57.34<150.98 453.143> 228.42 39.74<294.725 498.94> 575 57<150.839 425.765>
VStem: 68.14 56<295.676 546.131> 498.94 57<65.1276 228.42 268.16 465.428>
LayerCount: 2
Fore
SplineSet
68.14 358.8 m 2x2e
 68.14 483 l 2
 68.14 595 135.14 632 229.14 632 c 2
 367.94 632 l 2
 476.94 631.34 555.94 557.92 555.94 247 c 0
 555.94 -15.62 470 -107 383.94 -107 c 0xae
 282.94 -107 176.9 -105.66 92.14 -91.4 c 1
 92.14 -50 l 1x4e
 374.34 -50 l 2
 477.58 -50 497.62 134.9 498.94 228.42 c 1x9e
 413.94 218.42 303.14 210.82 229.14 210.82 c 0
 93.82 210.82 68.14 279.44 68.14 358.8 c 2x2e
124.14 358.8 m 2
 124.14 282.84 172.94 268.16 229.14 268.16 c 2x2e
 498.94 268.16 l 1x1e
 498.94 383.24 489.5 575 367.94 575 c 2
 229.14 575 l 2
 174.4 575 124.14 561.94 124.14 479.72 c 2
 124.14 358.8 l 2
EndSplineSet
Substitution2: "'lnum' Lining Figures lookup 19-1" nine
EndChar

StartChar: partialdiff
Encoding: 421 8706 350
Width: 655
VWidth: 0
Flags: HW
LayerCount: 2
Fore
SplineSet
63.8 227 m 1
 63.8 378 152.4 456.5 319.4 456.5 c 3
 370.4 456.5 443.28 447.18 506.34 400.18 c 1
 499.08 602.82 442.12 683 295.4 683 c 3
 221.02 683 152.02 653.3 115.02 630.3 c 1
 97.8 665.4 l 1
 164.8 709.4 213.4 740 298.4 740 c 3
 492.38 740 564 603 564 387 c 0
 564 190 490.72 -5 308.4 -5 c 27
 177.08 -5 63.8 69 63.8 227 c 1
120.8 229.32 m 3
 120.8 109.06 208.6 52 306.4 52 c 3
 470.7 52 506.34 272.62 507 357.8 c 1
 473 376.8 395.4 399.5 319.4 399.5 c 3
 182.02 399.5 120.8 338.32 120.8 229.32 c 3
EndSplineSet
EndChar

StartChar: summation
Encoding: 422 8721 351
Width: 579
VWidth: 0
Flags: HW
LayerCount: 2
Fore
SplineSet
44.76 -140 m 1
 258.76 270 l 1
 44.76 675 l 1
 44.76 732 l 1
 557.16 732 l 1
 557.16 675 l 9
 113.36 675 l 17
 326.36 270 l 9
 113.36 -140 l 25
 557.16 -140 l 17
 557.16 -200 l 1
 44.76 -200 l 1
 44.76 -140 l 1
EndSplineSet
EndChar

StartChar: product
Encoding: 423 8719 352
Width: 624
VWidth: 0
Flags: HW
LayerCount: 2
Fore
SplineSet
22.38 675 m 1
 22.38 732 l 1
 602.58 732 l 1
 602.58 675 l 1
 515.58 675 l 1
 515.58 0 l 1
 458.58 0 l 1
 458.58 675 l 1
 165.38 675 l 1
 165.38 0 l 1
 108.38 0 l 1
 108.38 675 l 1
 22.38 675 l 1
EndSplineSet
EndChar

StartChar: pi
Encoding: 424 960 353
Width: 626
VWidth: 0
Flags: HW
LayerCount: 2
Fore
SplineSet
22.38 474 m 1
 22.38 531 l 1
 555.38 531 l 1
 555.38 474 l 1
 426.38 474 l 1
 426.38 166 l 2
 426.38 81.46 451.08 53 503.88 53 c 2
 603.38 53 l 1
 603.38 19.2 l 1
 567.5 3.9 543.46 -5 503.88 -5 c 3
 418.92 -5 369.38 34 369.38 166 c 2
 369.38 474 l 1
 165.38 474 l 1
 165.38 0 l 1
 108.38 0 l 1
 108.38 474 l 1
 22.38 474 l 1
EndSplineSet
EndChar

StartChar: integral
Encoding: 425 8747 354
Width: 445
VWidth: 0
Flags: HW
LayerCount: 2
Fore
SplineSet
22.38 -147 m 1
 114.42 -147 l 1
 193.26 -147 193.22 -35.82 193.88 88 c 9
 193.88 506 l 18
 193.88 665 207.38 800 324.38 800 c 3
 385.38 800 400.96 787.44 423.38 780.1 c 1
 423.38 743 l 1
 331.98 743 l 1
 252.78 743 251.54 619.96 250.88 506 c 1
 250.88 88 l 2
 250.88 -71 243.38 -204 123.38 -204 c 3
 82.38 -204 40.66 -196.4 22.38 -184.1 c 1
 22.38 -147 l 1
EndSplineSet
EndChar

StartChar: Omega
Encoding: 426 937 355
Width: 783
VWidth: 0
Flags: HW
LayerCount: 2
Fore
SplineSet
72.14 388 m 0
 72.14 542 130.04 739 392.04 739 c 3
 640.04 739 705.94 565 705.94 383 c 3
 705.94 266 684.96 144.7 562.54 58.64 c 1
 710.94 48.3 l 1
 710.94 0 l 1
 482.94 0 l 1
 482.94 59.64 l 1
 624.94 153.64 648.94 252.34 648.94 385 c 3
 648.94 539.52 601.22 682 392.04 682 c 3
 182.86 682 129.14 539.56 129.14 380 c 3
 129.14 242.22 150.14 175.64 298.14 59.64 c 1
 298.14 0 l 1
 78.14 0 l 1
 78.14 48.96 l 1
 228.14 59.64 l 1
 74.98 164.54 72.14 275.32 72.14 388 c 0
EndSplineSet
EndChar

StartChar: radical
Encoding: 427 8730 356
Width: 615
VWidth: 0
Flags: HW
LayerCount: 2
Fore
SplineSet
22.38 301 m 1
 22.38 358 l 1
 145.18 358 l 1
 278.24 81.92 l 1
 536.38 800 l 1
 593.38 800 l 1
 308.38 0 l 1
 257.38 0 l 1
 110.38 301 l 1
 22.38 301 l 1
EndSplineSet
EndChar

StartChar: florin
Encoding: 428 402 357
Width: 595
VWidth: 0
Flags: HW
LayerCount: 2
Fore
SplineSet
22.38 -183.42 m 1
 28.02 -147 l 2
 112.92 -147 l 2
 196.18 -147 220.54 -11 235.54 88 c 2
 284.9 405.16 l 1
 182.9 405.16 l 1
 192.84 463.16 l 1
 294.84 463.16 l 1
 301.54 506 l 2
 326.2 660.58 362.04 800 479.04 800 c 3
 528.04 800 566.68 781.42 572.68 779.42 c 1
 567.04 743 l 2
 479.04 743 l 0
 399.52 743 378.88 614.52 360.52 506 c 2
 353.82 462.16 l 1
 495.84 462.16 l 1
 485.9 405.16 l 1
 343.88 405.16 l 1
 294.52 88 l 2
 271.9 -56.38 244.92 -204 112.92 -204 c 3
 73.92 -204 28.38 -187.42 22.38 -183.42 c 1
EndSplineSet
EndChar

StartChar: approxequal
Encoding: 429 8776 358
Width: 511
VWidth: 0
Flags: HW
LayerCount: 2
Fore
SplineSet
56.12 250.34 m 17
 94.08 282.32 133.68 316.92 189.18 316.92 c 3
 242.04 316.92 279.88 267.68 330.36 267.68 c 3
 374.64 267.68 400.1 293.1 438.94 311.44 c 9
 455.5 281.34 l 17
 418.54 252.3 382.92 212.74 329.04 212.74 c 3
 275.16 212.74 238.68 262.64 187.86 262.64 c 3
 141.28 262.64 115.26 239.3 71.34 220.56 c 9
 56.12 250.34 l 17
56.12 427 m 17
 94.08 458.98 133.68 493.58 189.18 493.58 c 3
 242.04 493.58 279.88 444.34 330.36 444.34 c 3
 374.64 444.34 400.1 469.76 438.94 488.1 c 9
 455.5 458 l 17
 418.54 428.96 382.92 389.4 329.04 389.4 c 3
 275.16 389.4 238.68 439.3 187.86 439.3 c 3
 141.28 439.3 115.26 415.96 71.34 397.22 c 9
 56.12 427 l 17
EndSplineSet
EndChar

StartChar: uni2206
Encoding: 430 8710 359
Width: 728
VWidth: 0
Flags: HW
LayerCount: 2
Fore
SplineSet
22.38 0 m 1
 342.56 732 l 1
 398.2 732 l 1
 706.38 0 l 1
 22.38 0 l 1
110.56 57 m 1
 621.18 57 l 1
 371.38 654.4 l 1
 110.56 57 l 1
EndSplineSet
EndChar

StartChar: lozenge
Encoding: 431 9674 360
Width: 526
VWidth: 0
Flags: HW
LayerCount: 2
Fore
SplineSet
22.38 373 m 1
 237.88 732 l 1
 294.88 732 l 1
 504.38 373 l 1
 294.88 0 l 1
 237.88 0 l 1
 22.38 373 l 1
90.3 373 m 1
 266.38 73.52 l 1
 437.46 373 l 1
 266.38 663.48 l 1
 90.3 373 l 1
EndSplineSet
EndChar

StartChar: onequarter
Encoding: 188 188 361
Width: 893
VWidth: 0
Flags: HW
LayerCount: 2
Fore
SplineSet
18.04 641.6 m 1
 18.04 677 l 1
 146.04 732 l 1
 193.08 732 l 1
 193.08 256 l 1
 146.04 256 l 1
 146.04 680.34 l 1
 18.04 641.6 l 1
217.28 0 m 1
 578.2 744.92 l 1
 627.22 744.92 l 1
 266.3 0 l 1
 217.28 0 l 1
490.9 154.56 m 1
 693.44 474.34 l 1
 747.1 474.34 l 1
 565.08 184.68 l 1
 764.74 184.68 l 1
 764.74 305.68 l 1
 786.28 353.68 l 1
 811.78 353.68 l 1
 811.78 184.68 l 1
 870.78 184.68 l 1
 870.78 147.64 l 1
 811.78 135.32 l 1
 811.78 -0.32 l 1
 764.74 -0.32 l 1
 764.74 135.32 l 1
 506.78 135.32 l 1
 490.9 154.56 l 1
EndSplineSet
Ligature2: "'frac' Diagonal Fractions lookup 11 subtable" one fraction four
Ligature2: "'frac' Diagonal Fractions lookup 11 subtable" one slash four
EndChar

StartChar: brokenbar
Encoding: 166 166 362
Width: 249
VWidth: 0
Flags: HW
LayerCount: 2
Fore
SplineSet
96.2 -72 m 1
 96.2 256 l 1
 153.2 256 l 1
 153.2 -72 l 1
 96.2 -72 l 1
96.2 429 m 1
 96.2 770 l 1
 153.2 770 l 1
 153.2 429 l 1
 96.2 429 l 1
EndSplineSet
EndChar

StartChar: currency
Encoding: 164 164 363
Width: 461
VWidth: 0
Flags: HW
LayerCount: 2
Fore
SplineSet
57.12 456.82 m 1
 86.58 483.64 l 1
 129.28 439.94 l 1
 156.3 461.66 190.68 474.36 227.4 474.36 c 0
 266.76 474.36 301.78 461.02 329.46 438.66 c 1
 376.44 484.64 l 1
 402.6 454.84 l 1
 356.62 409.2 l 1
 376.38 383.5 388.1 350.76 388.1 315 c 0
 388.1 277.28 376.4 241.9 355.68 213.54 c 1
 403.58 165.64 l 1
 372.46 138.16 l 1
 327.88 183.42 l 1
 300.86 160.02 265.8 145.64 227.4 145.64 c 0
 189.64 145.64 155.9 159.7 129.54 182.46 c 1
 85.26 138.18 l 1
 58.12 168.62 l 1
 101.08 211.26 l 1
 79.72 239.94 67.7 276.3 67.7 315 c 0
 67.7 352.06 80.08 385.12 101.48 412.14 c 1
 57.12 456.82 l 1
109.76 313.34 m 0
 109.76 246.5 160.56 189.02 227.4 189.02 c 0
 294.24 189.02 346.04 246.5 346.04 313.34 c 0
 346.04 379.18 293.24 430.98 227.4 430.98 c 0
 162.9 430.98 109.76 377.84 109.76 313.34 c 0
EndSplineSet
EndChar

StartChar: onehalf
Encoding: 189 189 364
Width: 963
VWidth: 0
Flags: HW
LayerCount: 2
Fore
SplineSet
18.04 641.6 m 1
 18.04 677 l 1
 146.04 732 l 1
 193.08 732 l 1
 193.08 256 l 1
 146.04 256 l 1
 146.04 680.34 l 1
 18.04 641.6 l 1
209.56 0 m 1
 570.48 744.92 l 1
 619.5 744.92 l 1
 258.58 0 l 1
 209.56 0 l 1
605.38 435.3 m 2
 603.38 435.3 604.38 471.06 605.38 470.06 c 1
 671.38 478.06 716.38 482.34 788.38 482.34 c 3
 886.38 482.34 918.38 424.34 918.38 346.34 c 3
 918.38 222.36 735.16 80.68 694.52 47.38 c 9
 917.38 47.38 l 25
 917.38 0.34 l 25
 608.38 0.34 l 25
 608.38 43.38 l 17
 675.38 97.38 869.02 232.72 869.02 343.34 c 3
 869.02 401.78 850 435.3 779.08 435.3 c 2
 605.38 435.3 l 2
EndSplineSet
Ligature2: "'frac' Diagonal Fractions lookup 11 subtable" one fraction two
Ligature2: "'frac' Diagonal Fractions lookup 11 subtable" one slash two
EndChar

StartChar: threequarters
Encoding: 190 190 365
Width: 1012
VWidth: 0
Flags: HW
LayerCount: 2
Fore
SplineSet
33.4 686.62 m 1
 33.4 718.4 l 1
 86.66 734.66 152.74 733 228.74 733 c 0
 315.74 733 349.74 678.38 349.74 618.38 c 2
 349.74 583.38 l 2
 349.74 532.98 314.16 501.64 289.18 494.36 c 1
 314.14 481.78 349.74 452.76 349.74 399 c 2
 349.74 371 l 2
 349.74 300 322.4 252 223.4 252 c 0
 149.4 252 89.3 251.36 37.4 267.62 c 1
 38.06 298.38 l 1
 59.18 298.38 215.4 299.04 215.4 299.04 c 2
 278.92 299.04 302.36 318.08 302.36 375 c 2
 302.36 398 l 2
 302.36 452.06 260.18 473.14 219.4 474.14 c 2
 77.4 478.8 l 2
 77.4 513.22 l 1
 219.4 519.2 l 2
 270.18 521.2 303.7 546.26 303.7 589.66 c 2
 303.7 616.08 l 2
 303.7 669.3 268.82 686.62 222.12 686.62 c 2
 33.4 686.62 l 1
322.74 0 m 1
 683.66 744.92 l 1
 732.68 744.92 l 1
 371.76 0 l 1
 322.74 0 l 1
575.22 155.22 m 1
 777.1 474.34 l 1
 828.12 474.34 l 1
 646.1 182.7 l 1
 851.36 182.7 l 1
 851.36 306.34 l 1
 870.6 354.34 l 1
 895.76 354.34 l 1
 895.76 182.7 l 1
 955.1 182.7 l 1
 955.1 148.3 l 1
 895.76 135.98 l 1
 895.76 0.34 l 1
 851.36 0.34 l 1
 851.36 135.98 l 1
 591.1 135.98 l 1
 575.22 155.22 l 1
EndSplineSet
Ligature2: "'frac' Diagonal Fractions lookup 11 subtable" three fraction four
Ligature2: "'frac' Diagonal Fractions lookup 11 subtable" three slash four
EndChar

StartChar: Hbar
Encoding: 434 294 368
Width: 660
VWidth: 0
Flags: HW
LayerCount: 2
Fore
SplineSet
27.16 523.14 m 1
 27.16 563.88 l 1
 89.52 563.88 l 1
 89.52 732 l 1
 146.52 732 l 1
 146.52 563.88 l 1
 527.12 563.88 l 1
 527.12 732 l 1
 584.12 732 l 1
 584.12 563.88 l 1
 645.16 563.88 l 1
 645.16 523.14 l 1
 584.12 523.14 l 1
 584.12 0 l 1
 527.12 0 l 1
 527.12 325.5 l 1
 146.52 325.5 l 1
 146.52 0 l 1
 89.52 0 l 1
 89.52 523.14 l 1
 27.16 523.14 l 1
146.52 382.5 m 1
 527.12 382.5 l 1
 527.12 523.14 l 1
 146.52 523.14 l 1
 146.52 382.5 l 1
EndSplineSet
Substitution2: "'c2sc' Capitals to Small Capitals in Latin lookup 17 subtable" hbar.smcp
EndChar

StartChar: hbar
Encoding: 439 295 373
Width: 546
VWidth: 0
Flags: HW
LayerCount: 2
Fore
SplineSet
-7.48 617.14 m 1
 -7.48 657.54 l 1
 67.14 657.54 l 1
 67.14 784 l 1
 126.12 784 l 1
 126.12 657.54 l 1
 263.52 657.54 l 1
 263.52 617.14 l 1
 126.12 617.14 l 1
 126.12 469 l 1
 186.1 505.02 261.78 540.66 332.88 540 c 1
 436.9 542.64 490.94 459.32 490.94 371.32 c 2
 490.94 0 l 1
 431.96 0 l 1
 431.96 369.34 l 1
 429.98 436.84 398.12 484.32 321.66 484.32 c 1
 256.76 482.34 202.1 462.66 126.12 424.64 c 1
 126.12 0 l 1
 67.14 0 l 1
 67.14 617.14 l 1
 -7.48 617.14 l 1
EndSplineSet
Substitution2: "'smcp' Lowercase to Small Capitals lookup 16-1" hbar.smcp
EndChar

StartChar: jcircumflex
Encoding: 441 309 375
Width: 201
VWidth: 0
Flags: HW
LayerCount: 2
Fore
SplineSet
-46.8 597.98 m 1
 75.3 747.78 l 1
 129.3 747.78 l 1
 238.4 597.98 l 1
 193.02 597.98 l 1
 100.48 697.48 l 1
 0.240002 597.98 l 1
 -46.8 597.98 l 1
69.34 -270 m 1
 69.34 531 l 1
 129.64 531 l 1
 129.64 -4 l 1
 130.64 -90 127.34 -179.36 108.74 -270 c 1
 69.34 -270 l 1
75.3 747.78 m 1
129.3 747.78 m 1
EndSplineSet
Substitution2: "'smcp' Lowercase to Small Capitals lookup 16-1" jcircumflex.smcp
EndChar

StartChar: f_f
Encoding: 456 64256 390
Width: 772
VWidth: 0
Flags: HW
LayerCount: 2
Fore
SplineSet
22.38 474 m 1
 22.38 515.7 l 1
 120.7 531 l 1
 120.7 620 l 2
 120.7 674.68 124.38 776 244.38 776 c 0
 287.6 776 328.24 767 374.18 754.38 c 1
 374.18 717.28 l 1
 373.18 717.28 256.62 720.32 256.62 720.32 c 2
 192.28 722.34 177.7 684.66 177.7 620 c 2
 177.7 531 l 1
 493.9 531 l 1
 493.9 630 l 2
 493.9 684 496.9 786 606.7 786 c 0
 649.24 786 705.52 777.34 750.1 764.04 c 1
 750.1 726.94 l 1
 749.1 726.94 620.64 730.32 620.64 730.32 c 2
 555.28 732.34 550.9 684.8 550.9 630 c 2
 550.9 531 l 1
 707.78 531 l 1
 707.78 474 l 1
 549.58 474 l 1
 549.58 -0.68 l 1
 492.58 -0.68 l 1
 492.58 474 l 1
 176.38 474 l 1
 176.38 0 l 1
 119.38 0 l 1
 119.38 474 l 1
 22.38 474 l 1
EndSplineSet
Ligature2: "'dlig' Discretionary Ligatures lookup 14-1" f f
EndChar

StartChar: f_f_i
Encoding: 457 64259 391
Width: 968
VWidth: 0
Flags: HW
LayerCount: 2
Fore
SplineSet
22.38 474 m 1
 22.38 515.7 l 1
 120.7 531 l 1
 120.7 620 l 2
 120.7 674.68 124.38 776 244.38 776 c 0
 287.6 776 328.24 767 374.18 754.38 c 1
 374.18 717.28 l 1
 373.18 717.28 256.62 720.32 256.62 720.32 c 2
 192.28 722.34 178.36 684.66 177.7 620 c 2
 176.38 531 l 1
 481.04 531 l 1
 481.04 584 l 2
 481.04 702 550.58 786 670.58 786 c 0
 715.16 786 800.74 772.1 855.52 757.1 c 1
 855.52 720 l 1
 854.52 720 684.18 729.98 684.18 729.98 c 2
 610.32 733.98 538.04 698.46 538.04 584 c 2
 538.04 531 l 1
 901.12 522.02 l 1
 901.12 0 l 1
 843.46 0 l 1
 843.46 474 l 1
 536.72 474 l 1
 536.72 0 l 1
 479.72 0 l 1
 479.72 474 l 1
 176.38 474 l 1
 176.38 0 l 1
 119.38 0 l 1
 119.38 474 l 1
 22.38 474 l 1
EndSplineSet
Ligature2: "'dlig' Discretionary Ligatures lookup 14-1" f f i
EndChar

StartChar: ffl
Encoding: 458 64260 392
Width: 1076
VWidth: 0
Flags: HW
LayerCount: 2
Fore
SplineSet
22.38 474 m 1
 22.38 515.7 l 1
 120.7 531 l 1
 120.7 620 l 2
 120.7 674.68 124.38 776 244.38 776 c 0
 287.6 776 328.24 767 374.18 754.38 c 1
 374.18 717.28 l 1
 373.18 717.28 256.62 720.32 256.62 720.32 c 2
 192.28 722.34 178.36 684.66 177.7 620 c 2
 176.38 531 l 1
 479.68 531 l 1
 479.68 584 l 2
 479.68 692 523.02 784.68 643.02 784.68 c 1
 901.82 784.68 l 1
 901.82 190.02 l 2
 901.82 79.22 932.14 67.3 970.72 58.02 c 1
 970.72 58.02 1047.62 40.42 1054.62 40.42 c 1
 1054.62 1.02 l 1
 973.76 1.02 l 2
 883.16 1.02 844.82 52.08 844.82 190.02 c 2
 844.82 731 l 1
 656.62 731 l 2
 584.8 731 536.68 698.12 536.68 584 c 2
 536.68 531 l 1
 683.02 531 l 1
 683.02 474 l 1
 535.36 474 l 1
 535.36 0 l 1
 478.36 0 l 1
 478.36 474 l 1
 176.38 474 l 1
 176.38 0 l 1
 119.38 0 l 1
 119.38 474 l 1
 22.38 474 l 1
EndSplineSet
Ligature2: "'dlig' Discretionary Ligatures lookup 14-1" f f l
EndChar

StartChar: c_t
Encoding: 459 -1 393
Width: 836
VWidth: 0
Flags: HW
LayerCount: 2
Fore
SplineSet
44.76 262.02 m 0
 44.76 493 119.12 531.98 219.76 531.98 c 0
 595.74 531.98 l 1
 610.34 679.32 l 1
 652.74 679.32 l 1
 652.74 531.32 l 1
 814.54 531.32 l 1
 814.54 473.68 l 1
 652.74 473.68 l 1
 653.08 188.3 l 2
 653.08 69.58 683.4 64.26 723.3 56.3 c 2
 723.3 56.3 796.9 40.68 799.94 40.68 c 1
 799.94 -0.7 l 1
 725.68 -0.7 l 2
 634.42 -0.7 596.08 51.02 596.08 188.3 c 2
 595.74 473 l 1
 219.76 473 l 3
 150.92 473 101.76 453.48 101.76 258.02 c 3
 101.76 87 143 50 219.76 50 c 3
 311.76 50 444.56 64.4 444.56 64.4 c 1
 444.56 22 l 17
 363.56 -1 302.76 -6 219.76 -7 c 0
 120.76 -7 44.76 29.02 44.76 262.02 c 0
EndSplineSet
Ligature2: "'dlig' Discretionary Ligatures lookup 14-1" c t
EndChar

StartChar: s_t
Encoding: 460 64262 394
Width: 872
VWidth: 0
Flags: HW
LayerCount: 2
Fore
SplineSet
44.76 353.02 m 10
 44.76 400.34 l 18
 44.76 482.34 79.76 532 182.76 532 c 0
 624.9 532 l 1
 639.5 680 l 1
 681.9 680 l 1
 681.9 532 l 1
 843.7 532 l 1
 843.7 476.32 l 1
 681.9 476.32 l 1
 681.9 188.98 l 2
 682.56 70.26 712.22 64.94 752.12 56.98 c 2
 752.12 56.98 825.72 41.36 828.76 41.36 c 1
 828.76 -0.02 l 1
 754.5 -0.02 l 2
 663.24 -0.02 624.9 51.7 624.9 188.98 c 2
 624.9 476.32 l 1
 182.76 475.66 l 2
 111.96 475.66 101.76 447.26 101.76 400.34 c 10
 101.76 353.02 l 18
 101.76 287.48 132.84 287.52 182.76 287.52 c 2
 330.56 287.52 l 2
 413.82 287.52 460.56 240.32 460.56 167.02 c 1
 460.56 121.98 l 2
 460.56 12.98 394.56 -6.02 330.56 -6.02 c 3
 281.56 -6.02 104.76 5.92 66.76 9.92 c 9
 66.76 50.98 l 17
 330.56 50.98 l 18
 346.54 50.98 403.56 50.76 403.56 121.98 c 2
 403.56 167.02 l 2
 403.56 206.78 383.74 230.52 330.56 230.52 c 10
 182.76 230.52 l 2
 88.76 230.52 44.76 250.02 44.76 353.02 c 10
EndSplineSet
Ligature2: "'dlig' Discretionary Ligatures lookup 14-1" s t
EndChar

StartChar: t_t
Encoding: 461 -1 395
Width: 727
VWidth: 0
Flags: HW
LayerCount: 2
Fore
SplineSet
22.38 475 m 1
 22.38 517.4 l 1
 116.28 532 l 1
 130.88 680 l 1
 173.28 680 l 1
 173.28 532 l 1
 486.62 532 l 1
 501.22 679.66 l 1
 543.62 679.66 l 1
 543.62 531.66 l 1
 705.42 531.66 l 1
 705.42 474.66 l 1
 543.62 474.66 l 1
 543.62 189.66 l 1
 544.28 70.94 573.94 66.28 613.84 57.66 c 2
 613.84 57.66 687.44 42.04 690.48 42.04 c 1
 690.48 0.66 l 1
 616.22 0.66 l 2
 524.96 0.66 486.62 52.38 486.62 189.66 c 2
 486.62 474.66 l 1
 173.28 475 l 1
 173.28 189.32 l 1
 173.94 70.6 203.6 65.94 243.5 57.32 c 2
 243.5 57.32 317.1 41.7 320.14 41.7 c 1
 320.14 0.32 l 1
 245.88 0.32 l 2
 154.62 0.32 116.28 52.04 116.28 189.32 c 2
 116.28 475 l 1
 22.38 475 l 1
EndSplineSet
Ligature2: "'dlig' Discretionary Ligatures lookup 14-1" t t
EndChar

StartChar: f_t
Encoding: 462 -1 396
Width: 756
VWidth: 0
Flags: HW
LayerCount: 2
Fore
SplineSet
22.38 474 m 1
 22.38 516.38 l 1
 117.3 531 l 1
 117.3 630 l 2
 117.3 684 120.3 786 230.1 786 c 0
 272.64 786 328.92 779.72 373.5 766.42 c 1
 373.5 729.66 l 1
 372.84 729.66 244.04 730.32 244.04 730.32 c 2
 178.68 730.98 174.3 688.2 174.3 630 c 2
 174.3 531.66 l 1
 515.3 531.66 l 1
 529.9 680 l 1
 572.3 680 l 1
 572.3 531.66 l 1
 734.1 531.66 l 1
 734.1 474.66 l 1
 572.3 474.66 l 1
 572.64 189.32 l 1
 573.3 70.6 602.96 65.94 642.86 57.32 c 2
 642.86 57.32 716.46 41.7 719.5 41.7 c 1
 719.5 0.32 l 1
 645.24 0.32 l 2
 553.98 0.32 515.64 52.04 515.64 189.32 c 2
 515.3 474.66 l 1
 172.98 474.66 l 1
 172.98 0 l 1
 115.98 0 l 1
 115.98 474 l 1
 22.38 474 l 1
EndSplineSet
Ligature2: "'dlig' Discretionary Ligatures lookup 14-1" f t
EndChar

StartChar: t_y
Encoding: 463 -1 397
Width: 930
VWidth: 0
Flags: HW
LayerCount: 2
Fore
SplineSet
22.38 475 m 1
 22.38 517.4 l 1
 116.28 532 l 1
 130.88 680 l 1
 173.28 680 l 1
 173.28 532 l 1
 331.68 532 l 1
 448 531.66 468.06 501.96 497.38 420.98 c 2
 608.66 117.36 l 2
 632.46 50.66 687.22 60.68 686.56 60.68 c 1
 845.02 532.36 l 1
 908.96 532.36 l 1
 675.96 -166.64 l 1
 609.5 -268.64 l 1
 572.42 -268.64 l 1
 669.32 1.36 l 1
 645.68 1.7 583.36 11.36 547.7 111.36 c 2
 441.38 401.4 l 2
 421.26 457.4 399.22 474.66 331.68 474.66 c 2
 173.28 474.66 l 1
 173.28 189.32 l 2
 173.94 70.6 203.6 65.28 243.5 57.32 c 2
 243.5 57.32 317.1 41.7 320.14 41.7 c 1
 320.14 0.32 l 1
 245.88 0.32 l 2
 154.62 0.32 116.28 52.04 116.28 189.32 c 2
 116.28 475 l 1
 22.38 475 l 1
EndSplineSet
Ligature2: "'dlig' Discretionary Ligatures lookup 14-1" t y
EndChar

StartChar: f_y
Encoding: 464 -1 398
Width: 954
VWidth: 0
Flags: HW
LayerCount: 2
Fore
SplineSet
22.38 474 m 1
 22.38 516.38 l 1
 117.3 531 l 1
 117.3 630 l 2
 117.3 684 120.3 786 230.1 786 c 0
 272.64 786 328.92 773.12 373.5 759.82 c 1
 373.5 723.06 l 1
 372.84 723.06 244.04 730.32 244.04 730.32 c 2
 178.68 734.28 174.3 688.2 174.3 630 c 2
 174.3 531 l 1
 348.7 531.34 l 1
 465.02 531 486.4 501.3 517.04 420.98 c 2
 631.62 118.02 l 2
 655.42 51.32 710.18 61.34 709.52 61.34 c 1
 867.32 533.02 l 1
 931.26 533.02 l 1
 698.26 -165.98 l 1
 631.8 -267.98 l 1
 594.72 -267.98 l 1
 691.62 2.02 l 1
 667.98 2.36 605 12.02 570 112.02 c 2
 461.04 401.4 l 2
 440.26 457.4 416.24 474 348.7 474 c 2
 172.98 474 l 1
 172.98 0 l 1
 115.98 0 l 1
 115.98 474 l 1
 22.38 474 l 1
EndSplineSet
Ligature2: "'dlig' Discretionary Ligatures lookup 14-1" f y
EndChar

StartChar: kgreenlandic
Encoding: 465 312 399
Width: 502
VWidth: 0
Flags: HW
LayerCount: 2
Fore
SplineSet
67.14 0 m 1
 67.14 531 l 1
 124.14 531 l 1
 124.14 292.86 l 1
 218.68 292.86 l 1
 409.74 531 l 1
 480.32 531 l 1
 270.04 265.02 l 1
 466.32 0 l 1
 394.74 0 l 1
 216.7 235.86 l 1
 124.8 235.86 l 9
 124.14 0 l 17
 67.14 0 l 1
EndSplineSet
EndChar

StartChar: Tbar
Encoding: 471 358 405
Width: 586
VWidth: 0
Flags: HW
LayerCount: 2
Fore
SplineSet
39.08 675 m 1
 39.08 732 l 1
 550.48 732 l 1
 550.48 675 l 1
 320.28 675 l 1
 320.28 437.2 l 1
 450.48 437.2 l 1
 450.48 396.8 l 1
 320.28 396.8 l 1
 320.28 0 l 1
 263.28 0 l 1
 263.28 396.8 l 1
 139.88 396.8 l 1
 139.88 437.2 l 1
 263.28 437.2 l 1
 263.28 675 l 1
 39.08 675 l 1
EndSplineSet
Substitution2: "'c2sc' Capitals to Small Capitals in Latin lookup 17 subtable" tbar.smcp
EndChar

StartChar: gcommaaccent
Encoding: 476 291 410
Width: 560
VWidth: 0
Flags: HW
LayerCount: 2
Fore
SplineSet
242.994 612.541 m 2
 242.994 700.273 l 2
 242.994 768.943 309.216 755.497 309.216 755.497 c 1
 309.216 734.653 l 0
 286.806 735.245 285.906 720.019 285.906 711.648 c 2
 285.906 682.416 l 1
 294.276 682.416 l 2
 304.734 682.416 312.798 676.135 312.798 663.588 c 2
 312.798 612.541 l 2
 312.798 599.094 306.228 592.524 294.276 592.524 c 2
 260.922 592.524 l 2
 247.476 592.524 242.994 601.183 242.994 612.541 c 2
52.76 115.7 m 1
 52.76 149.72 74.16 189.32 121.28 194.6 c 1
 67.08 223.28 53.42 288.96 53.42 344 c 0
 53.42 472.7 114.32 533 226.08 533 c 2
 538.08 533 l 1
 538.08 491.28 l 1
 446.88 476 l 1
 460.26 457.72 488.08 431.28 488.08 344 c 0
 488.08 284 465.08 157.16 323.08 157.16 c 2
 167.08 157.16 l 2
 151.08 157.16 110.1 152.52 110.1 117.68 c 0
 110.1 86.92 145.08 78.18 167.08 75.18 c 2
 364.08 50.18 l 2
 445.66 39.86 509.08 -4 509.08 -83 c 2
 509.08 -116 l 2
 509.08 -176 490.08 -270 359.08 -270 c 2
 209.08 -270 l 2
 115.08 -270 50.44 -218.3 50.44 -116 c 2
 50.44 -27.94 l 1
 80.92 49.98 l 1
 58.36 67.26 52.76 95.16 52.76 115.7 c 1
107.78 -116 m 2
 107.78 -202.26 172.38 -213 209.08 -213 c 2
 359.08 -213 l 2
 421.82 -213 452.08 -178.98 452.08 -116 c 2
 452.08 -88 l 2
 452.08 -36.92 414.38 -12.88 353.88 -4.86 c 2
 172.3 19.18 l 2
 140.74 23.54 107.78 35.32 107.78 35.32 c 1
 107.78 -116 l 2
110.42 344 m 0
 110.42 275.62 139.36 214.5 219.08 214.5 c 2
 318.44 214.5 l 2
 407.96 214.5 432.4 287.82 431.08 344 c 0
 429.1 428.96 401.54 476 332.4 476 c 2
 222.68 476 l 2
 131.16 476 110.42 413.62 110.42 344 c 0
EndSplineSet
AlternateSubs2: "'salt' Access All Alternates in Latin lookup 4-1" gcommaaccent.salt
Substitution2: "'smcp' Lowercase to Small Capitals lookup 16-1" gcommaaccent.smcp
EndChar

StartChar: gcommaaccent.salt
Encoding: 477 -1 411
Width: 557
VWidth: 0
Flags: HW
LayerCount: 2
Fore
SplineSet
257.294 612.541 m 2
 257.294 700.273 l 2
 257.294 768.943 323.516 755.497 323.516 755.497 c 1
 323.516 734.653 l 0
 301.106 735.245 300.206 720.019 300.206 711.648 c 2
 300.206 682.416 l 1
 308.576 682.416 l 2
 319.034 682.416 327.098 676.135 327.098 663.588 c 2
 327.098 612.541 l 2
 327.098 599.094 320.528 592.524 308.576 592.524 c 2
 275.222 592.524 l 2
 261.776 592.524 257.294 601.183 257.294 612.541 c 2
56.12 268 m 3
 56.12 436 115.12 537 240.12 537 c 3
 346.12 537 443.58 521.4 490.58 517.4 c 1
 490.58 -104 l 2
 490.58 -228 401.24 -279 331.92 -272 c 2
 84.12 -248 l 1
 84.12 -210.9 l 1
 331.92 -216 l 2
 385.6 -217.36 433.58 -182.96 433.58 -104 c 2
 433.58 29 l 1
 369.58 3 285.12 -10 240.12 -10 c 3
 87.12 -10 56.12 110 56.12 268 c 3
113.12 268 m 3
 113.12 150.74 125.44 47 240.12 47 c 3
 314.12 47 350.58 54.4 433.58 75.4 c 1
 433.58 480 l 2
 240.12 480 l 2
 131.08 480 113.12 360.24 113.12 268 c 3
EndSplineSet
EndChar

StartChar: tbar
Encoding: 478 359 412
Width: 357
VWidth: 0
Flags: HW
LayerCount: 2
Fore
SplineSet
22.38 475 m 1
 22.38 517.4 l 1
 116.28 532 l 1
 130.88 680 l 1
 173.28 680 l 1
 173.28 532 l 1
 335.08 532 l 1
 335.08 475 l 1
 173.28 475 l 1
 173.28 325.4 l 1
 285.08 325.4 l 1
 285.08 285 l 1
 173.28 285 l 1
 173.28 190 l 1
 173.94 71.62 200.54 67.3 243.5 58 c 2
 243.5 58 317.1 42.38 320.14 42.38 c 1
 320.14 1 l 1
 243.84 1 l 2
 155.3 1 116.28 49.66 116.28 190 c 2
 116.28 285 l 1
 35.28 285 l 1
 35.28 325.4 l 1
 116.28 325.4 l 1
 116.28 475 l 1
 22.38 475 l 1
EndSplineSet
AlternateSubs2: "'salt' Access All Alternates in Latin lookup 4-1" tbar.salt
Substitution2: "'smcp' Lowercase to Small Capitals lookup 16-1" tbar.smcp
EndChar

StartChar: Eng
Encoding: 479 330 413
Width: 673
VWidth: 0
Flags: HW
LayerCount: 2
Fore
SplineSet
89.52 0 m 1
 89.52 732 l 1
 148.18 732 l 1
 553.86 114 l 1
 553.86 732 l 1
 610.86 732 l 1
 610.86 0 l 1
 610.86 -84 l 1
 610.86 -236 531.86 -257 413.86 -257 c 1
 413.86 -213.26 l 1
 481.38 -199.3 553.86 -205.64 553.86 -75.1 c 1
 553.86 0 l 1
 148.18 624.6 l 1
 146.86 0 l 1
 89.52 0 l 1
EndSplineSet
Substitution2: "'c2sc' Capitals to Small Capitals in Latin lookup 17 subtable" eng.smcp
EndChar

StartChar: eng
Encoding: 480 331 414
Width: 558
VWidth: 0
Flags: HW
LayerCount: 2
Fore
SplineSet
67.14 0 m 1
 67.14 531 l 1
 105.54 531 l 1
 124.14 469 l 1
 185.14 504 242.54 540 323.54 540 c 3
 429.54 540 490.94 458 490.94 370 c 2
 490.94 0 l 1
 490.28 -90 l 1
 485 -222.94 392.94 -244.94 331.02 -260.18 c 1
 307.14 -230 l 1
 360.04 -210.4 431.94 -179.36 433.94 -92.3 c 1
 433.94 0 l 1
 433.94 370 l 2
 433.94 437.7 387.8 483 323.54 483 c 3
 242.18 483 195.36 459.26 124.14 423.62 c 1
 124.14 0 l 1
 67.14 0 l 1
EndSplineSet
Substitution2: "'smcp' Lowercase to Small Capitals lookup 16-1" eng.smcp
EndChar

StartChar: exclam.smcp
Encoding: 501 -1 435
Width: 265
VWidth: 0
Flags: HW
LayerCount: 2
Fore
SplineSet
91.86 19.26 m 2
 91.86 77.96 l 2
 91.86 90.58 98.5 98.54 111.78 98.54 c 2
 151.82 98.54 l 2
 164.44 98.54 171.08 89.58 171.08 77.96 c 2
 171.08 19.26 l 2
 171.08 6.64 163.44 0 151.82 0 c 2
 111.78 0 l 2
 100.16 0 91.86 7.64 91.86 19.26 c 2
97.86 570 m 1
 164.08 570 l 1
 157.76 166.66 l 1
 104.18 166.66 l 1
 97.86 570 l 1
EndSplineSet
EndChar

StartChar: quotedbl.smcp
Encoding: 502 -1 436
Width: 339
VWidth: 0
Flags: HW
LayerCount: 2
Fore
SplineSet
79.56 555.04 m 1
 79.56 622.04 l 1
 136.9 622.04 l 1
 136.9 555.04 l 1
 128.26 421.04 l 1
 89.2 421.04 l 1
 79.56 555.04 l 1
202.66 555.04 m 1
 202.66 622.04 l 1
 260 622.04 l 1
 260 555.04 l 1
 251.36 421.04 l 1
 212.3 421.04 l 1
 202.66 555.04 l 1
EndSplineSet
EndChar

StartChar: numbersign.smcp
Encoding: 503 -1 437
Width: 567
VWidth: 0
Flags: HW
LayerCount: 2
Fore
SplineSet
22.38 180.46 m 1
 28.34 217.86 l 1
 157.12 217.86 l 1
 180.16 349.8 l 1
 48.7 349.8 l 1
 54 387.2 l 1
 186.12 387.2 l 1
 217.14 570 l 1
 255.54 570 l 1
 224.52 387.2 l 1
 361.78 387.2 l 1
 392.14 570 l 1
 430.54 570 l 1
 400.18 387.2 l 1
 546 387.2 l 1
 540.7 349.8 l 1
 394.56 349.8 l 1
 372.18 217.86 l 1
 520.34 217.86 l 1
 514.38 180.46 l 1
 366.22 180.46 l 1
 335.54 -1 l 1
 297.14 -1 l 1
 327.16 180.46 l 1
 190.56 180.46 l 1
 159.54 -1 l 1
 121.14 -1 l 1
 151.5 180.46 l 1
 22.38 180.46 l 1
196.18 217.86 m 1
 333.78 217.86 l 1
 355.5 349.8 l 1
 218.56 349.8 l 1
 196.18 217.86 l 1
EndSplineSet
EndChar

StartChar: dollar.smcp
Encoding: 504 -1 438
Width: 514
VWidth: 0
Flags: HW
LayerCount: 2
Fore
SplineSet
56.12 392.76 m 2
 56.12 423.76 l 1
 56.12 557.76 148.82 574.34 235.6 575 c 1
 235.6 640 l 1
 283.96 640 l 1
 283.96 573.34 l 1
 325.86 570.7 401.04 563.4 434.78 559.38 c 1
 434.78 517 l 1
 228.12 517 l 2
 152 517 113.12 496.42 113.12 423.76 c 2
 113.12 392.76 l 1
 113.12 335.22 158.02 312.52 218.12 312.52 c 2
 300.12 312.52 l 2
 406.12 312.52 455.12 239.96 455.12 174.96 c 2
 455.12 136.96 l 2
 455.12 31.92 363.96 -9.64 283.96 -5.64 c 1
 283.96 -69 l 1
 235.6 -69 l 1
 235.6 -3 l 1
 190.98 1.32 98.22 7.64 74.12 11 c 1
 74.12 52.38 l 1
 104.12 52.38 222.78 53.04 292.78 53.04 c 0
 332.28 53.04 397.12 68.5 397.12 136.96 c 1
 397.12 174.96 l 2
 397.12 223.74 357.96 257.5 300.12 257.5 c 2
 218.12 257.5 l 2
 99.12 257.5 56.12 316.76 56.12 392.76 c 2
EndSplineSet
EndChar

StartChar: percent.smcp
Encoding: 505 -1 439
Width: 799
VWidth: 0
Flags: HW
LayerCount: 2
Fore
SplineSet
32.4 383.34 m 2
 32.4 445.68 l 2
 32.4 530.68 60.4 570.68 161.4 570.68 c 2
 206.74 570.68 l 2
 304.74 570.68 333.74 530.68 333.74 445.68 c 2
 333.74 383.34 l 18
 333.74 298.34 305.74 258.34 204.74 258.34 c 2
 159.4 258.34 l 2
 61.4 258.34 32.4 298.34 32.4 383.34 c 2
80.4 383.34 m 2
 80.4 321.76 101.86 306.34 159.4 306.34 c 2
 204.74 306.34 l 2
 269.2 306.34 285.74 323.38 285.74 383.34 c 10
 285.74 445.68 l 2
 285.74 504.54 267 522.68 206.74 522.68 c 2
 161.4 522.68 l 2
 96.26 522.68 80.4 505.64 80.4 445.68 c 2
 80.4 383.34 l 2
200.04 0 m 1
 543.32 570 l 1
 597.32 570 l 1
 254.04 0 l 1
 200.04 0 l 1
465.32 124.68 m 2
 465.32 187.02 l 2
 465.32 272.02 493.32 312.02 594.32 312.02 c 2
 639.66 312.02 l 2
 737.66 312.02 766.66 272.02 766.66 187.02 c 2
 766.66 124.68 l 18
 766.66 39.68 738.66 -0.32 637.66 -0.32 c 2
 592.32 -0.32 l 2
 494.32 -0.32 465.32 39.68 465.32 124.68 c 2
513.32 124.68 m 2
 513.32 63.1 534.78 47.68 592.32 47.68 c 2
 637.66 47.68 l 2
 702.12 47.68 718.66 64.72 718.66 124.68 c 10
 718.66 187.02 l 2
 718.66 245.88 699.92 264.02 639.66 264.02 c 2
 594.32 264.02 l 2
 529.18 264.02 513.32 246.98 513.32 187.02 c 2
 513.32 124.68 l 2
EndSplineSet
EndChar

StartChar: ampersand.smcp
Encoding: 506 -1 440
Width: 550
VWidth: 0
Flags: HW
LayerCount: 2
Fore
SplineSet
72.4 62 m 1
 14.4 140 26.74 222 103.4 285 c 2
 174.36 343.3 l 1
 130.36 399 l 2
 62.72 486.02 117.68 558.98 179.36 569 c 0
 238.7 577.96 305.26 574.34 407.16 557.06 c 1
 407.16 518 l 1
 229.36 518 l 2
 147.72 518 142.62 474.02 184.36 421.56 c 2
 376.26 180.08 l 1
 469.12 266.66 l 1
 487 246.78 l 1
 438.14 162.42 l 1
 411.06 135 l 1
 515.12 0 l 1
 447.86 0 l 1
 369.98 97.88 l 1
 303.4 34 l 1
 240.4 -24 134.4 -25 72.4 62 c 1
119.12 94.48 m 0
 150.3 53.88 218.18 27.36 268.9 78.06 c 1
 335.18 141.3 l 1
 211.12 298.56 l 1
 142.54 242.94 l 18
 76.78 189.84 89.26 133.1 119.12 94.48 c 0
EndSplineSet
EndChar

StartChar: quotesingle.smcp
Encoding: 507 -1 441
Width: 216
VWidth: 0
Flags: HW
LayerCount: 2
Fore
SplineSet
79.56 554.7 m 1
 79.56 621.7 l 1
 136.9 621.7 l 1
 136.9 554.7 l 1
 128.26 420.7 l 1
 89.2 420.7 l 1
 79.56 554.7 l 1
EndSplineSet
EndChar

StartChar: asterisk.smcp
Encoding: 508 -1 442
Width: 448
VWidth: 0
Flags: HW
LayerCount: 2
Fore
SplineSet
56.12 422.96 m 1
 56.12 454.12 l 1
 196.14 474.62 l 1
 198.78 417.62 l 1
 56.12 422.96 l 1
127.54 260.42 m 1
 155.26 395.08 l 1
 211.62 382.5 l 1
 156.38 251.14 l 1
 127.54 260.42 l 1
186.2 567.16 m 1
 216.36 579.08 l 1
 288.64 459.38 l 1
 235.6 435.84 l 1
 186.2 567.16 l 1
218.54 330.58 m 1
 249.68 379.98 l 1
 362.4 291.04 l 1
 345.82 266.18 l 1
 218.54 330.58 l 1
261.88 413.32 m 1
 378.5 491.04 l 1
 394.42 463.86 l 1
 299.68 369.24 l 1
 261.88 413.32 l 1
EndSplineSet
EndChar

StartChar: zero.smcp
Encoding: 509 -1 443
Width: 589
VWidth: 0
Flags: HW
LayerCount: 2
Fore
SplineSet
78.16 162 m 10
 78.16 408 l 2
 78.16 520 155.16 570 250.16 570 c 2
 343.96 570 l 2
 497.96 570 511.3 456 511.3 408 c 1
 511.3 162 l 18
 511.3 43 442.96 0 343.96 0 c 2
 250.16 0 l 2
 159.16 0 78.16 42 78.16 162 c 10
135.16 162 m 2
 135.16 83.1 193.32 57 250.16 57 c 10
 343.96 57 l 18
 427 57 454.3 103.92 454.3 162 c 2
 454.3 408 l 2
 454.3 467.94 425.78 513 343.96 513 c 2
 250.16 513 l 2
 170.42 513 135.16 471.64 135.16 408 c 2
 135.16 162 l 2
EndSplineSet
EndChar

StartChar: one.smcp
Encoding: 510 -1 444
Width: 340
VWidth: 0
Flags: HW
LayerCount: 2
Fore
SplineSet
44.76 454.4 m 1
 44.76 493.8 l 1
 194.28 578.8 l 1
 251.28 578.8 l 1
 251.28 0 l 1
 194.28 0 l 1
 194.28 514.18 l 1
 44.76 454.4 l 1
EndSplineSet
EndChar

StartChar: two.smcp
Encoding: 511 -1 445
Width: 518
VWidth: 0
Flags: HW
LayerCount: 2
Fore
SplineSet
44.76 513 m 2
 44.76 550.4 l 1
 146.76 563.4 157.36 571 269.36 571 c 3
 409.36 571 462.36 497 462.36 384 c 3
 462.36 224.78 246.18 102.26 163.16 57 c 9
 457.36 57 l 25
 457.36 0 l 25
 50.76 0 l 25
 50.76 53.04 l 17
 157.5 126.92 402.06 241.4 402.06 385.32 c 3
 402.06 465.46 366.68 516.66 260.4 514 c 1
 210.4 514 44.76 513 44.76 513 c 2
EndSplineSet
EndChar

StartChar: three.smcp
Encoding: 512 -1 446
Width: 519
VWidth: 0
Flags: HW
LayerCount: 2
Fore
SplineSet
33.4 516 m 1
 33.4 554.4 l 1
 92.88 574.66 212.34 574.32 303.34 573 c 0
 389.34 571.68 436 506.1 436 429.68 c 2
 436 395 l 2
 436 329.16 402.4 292.6 373.78 283.66 c 1
 404.08 268.76 436 230.76 436 167 c 2
 436 138.96 l 2
 436 48.86 393 -5 298 -5 c 0
 209 -5 93.8 -6.64 38.74 12.94 c 1
 38.74 52 l 1
 280.14 52 l 2
 332.7 52 377 65.78 377 138.96 c 2
 377 167 l 2
 377 236.1 328.16 253.5 286.84 254.5 c 2
 86.74 259.5 l 2
 86.74 307.5 l 1
 286.84 311.5 l 2
 336.76 312.5 379 329.88 379 395 c 2
 379 429.68 l 2
 379 485.78 346.3 516 285.48 516 c 2
 33.4 516 l 1
EndSplineSet
EndChar

StartChar: four.smcp
Encoding: 513 -1 447
Width: 538
VWidth: 0
Flags: HW
LayerCount: 2
Fore
SplineSet
22.38 180.1 m 1
 244.6 570 l 1
 311.52 570 l 1
 107.8 207.5 l 1
 369.2 207.5 l 1
 369.2 381 l 1
 397.02 456 l 1
 426.2 456 l 1
 426.2 207.5 l 1
 516.2 207.5 l 1
 516.2 163.8 l 1
 426.2 147.86 l 1
 426.2 2 l 1
 369.2 2 l 1
 369.2 147.86 l 1
 50.6 147.86 l 1
 22.38 180.1 l 1
EndSplineSet
EndChar

